<?xml version="1.0" encoding="utf-8"?>
<!-- Generator: Adobe Illustrator 24.1.0, SVG Export Plug-In . SVG Version: 6.00 Build 0)  -->
<svg version="1.1" id="Layer_1" xmlns="http://www.w3.org/2000/svg" xmlns:xlink="http://www.w3.org/1999/xlink" x="0px" y="0px"
	 viewBox="0 0 1000 1000" style="enable-background:new 0 0 1000 1000;" xml:space="preserve">
<style type="text/css">
	.st0{fill:#F27D1E;}
	.st1{fill:#E1E1E1;}
	.st2{fill:#FAFAFA;}
	.st3{fill-rule:evenodd;clip-rule:evenodd;}
	.st4{fill:#4D4D4D;}
	.st5{fill-rule:evenodd;clip-rule:evenodd;fill:#1A2E35;}
	.st6{fill:none;}
	.st7{fill:#1A2E35;}
	.st8{fill:#FFFFFF;}
	.st9{fill-rule:evenodd;clip-rule:evenodd;fill:#F27D1E;}
	.st10{fill:#333333;}
</style>
<g>
	<g>
		<g>
			<g>
				<path class="st0" d="M755.4,282.6l-37.7-0.2c-5,0-9.2,4.2-9.2,9.5l0,6.8c0,5.3-4.1,9.5-9.2,9.5l-73.4-0.3c-5,0-9.1-4.3-9.1-9.6
					l0-6.8c0-5.3-4.1-9.6-9.1-9.6l-13.2-0.1l-33-0.2c-16.4-0.1-29.7,13.1-29.8,29.5l-2,475.3c-0.1,16.4,13.1,29.7,29.5,29.8
					l193.8,0.9c16.4,0.1,29.7-13.1,29.8-29.5l2-475.3C785,296,771.8,282.7,755.4,282.6z"/>
			</g>
		</g>
		<g>
			<g>
				<g>
					<g>
						<g>
							<path class="st1" d="M729.3,753.8l-144.1-0.7c-1.5,0-2.7-1.6-2.7-3.6l0.2-37.7c0-2,1.2-3.6,2.7-3.6l144.1,0.7
								c1.5,0,2.7,1.6,2.7,3.6l-0.2,37.7C732,752.2,730.8,753.8,729.3,753.8z"/>
						</g>
					</g>
					<g>
						<path class="st2" d="M625,734.2l0.5-0.9c0.8,0.8,2.1,1.4,3.6,1.4c2,0,2.9-0.9,2.9-2c0-3.1-6.6-1.2-6.6-5.4
							c0-1.7,1.2-3.1,4-3.1c1.2,0,2.5,0.4,3.3,1l-0.4,1c-0.9-0.6-2-0.9-3-1c-2,0-2.9,0.9-2.9,2c0,3.1,6.6,1.3,6.6,5.4
							c0,1.7-1.3,3.1-4,3.1C627.4,735.7,625.8,735.1,625,734.2z"/>
						<path class="st2" d="M635.6,724.3l1.1,0l0,11.3l-1.1,0L635.6,724.3z"/>
						<path class="st2" d="M649.3,724.4l0,11.3h-0.9l-6.9-9.2l0,9.2l-1.1,0l0-11.3l0.9,0l6.9,9.2l0-9.2H649.3z"/>
						<path class="st2" d="M660.4,730.1l1.1,0l0,4.3c-1,1-2.5,1.4-4,1.4c-3.3,0-5.7-2.5-5.7-5.8c0-3.3,2.4-5.7,5.7-5.7
							c1.6,0,3.1,0.6,4,1.6l-0.7,0.8c-0.9-0.9-2-1.3-3.3-1.3c-2.7,0-4.6,2-4.6,4.7c0,2.7,1.9,4.7,4.6,4.7c1,0,2-0.2,2.8-0.9
							L660.4,730.1z"/>
						<path class="st2" d="M668.7,730.9l0-6.5h1.1l0,6.4c0,2.7,1.2,3.9,3.3,3.9c2.1,0,3.3-1.2,3.3-3.9l0-6.4l1.1,0l0,6.5
							c0,3.2-1.7,4.9-4.4,4.9C670.3,735.9,668.7,734.2,668.7,730.9z"/>
						<path class="st2" d="M689.5,728.4c0,2.4-1.7,3.8-4.4,3.8l-2.9,0l0,3.6H681l0-11.3l4,0C687.8,724.5,689.5,726,689.5,728.4z
							 M688.3,728.4c0-1.8-1.1-2.8-3.3-2.9l-2.9,0l0,5.6l2.9,0C687.2,731.2,688.3,730.2,688.3,728.4z"/>
					</g>
				</g>
			</g>
		</g>
	</g>
	<g>
		<g>
			
				<rect x="584.3" y="401.8" transform="matrix(4.615651e-03 -1 1 4.615651e-03 159.3621 1013.6917)" class="st1" width="9.2" height="50"/>
		</g>
	</g>
	<g>
		<g>
			<g>
				<path class="st1" d="M760.6,478.6c0,0,0.4,0,1.1-0.3c0.7-0.3,1.8-1.1,1.9-2.6c0-3.1,0-7.6,0-13.4c0-2.9,0-6.1,0-9.7
					c0-0.9,0-1.8,0-2.7c0-0.9,0-1.8-0.5-2.5c-0.5-0.7-1.4-1.2-2.3-1.2c-1,0-2,0-3,0c-8.3,0-17.7,0-28.1-0.1
					c-41.7-0.2-99.2-0.4-162.7-0.6c-0.8,0-1.7,0.4-2.1,1.1c-0.5,0.7-0.5,1.5-0.5,2.5c0,2,0,3.9,0,5.9c0,3.9,0,7.8,0,11.7
					c0,1.9,0,3.9,0,5.8c0,0.9-0.1,2,0.1,2.7c0.2,0.8,0.8,1.4,1.5,1.7c0.4,0.2,0.7,0.2,1.2,0.2l1.4,0l2.8,0c1.9,0,3.8,0,5.6,0
					c15,0.1,29.4,0.2,43.2,0.2c27.5,0.2,52.3,0.3,73.1,0.4c20.8,0.2,37.6,0.3,49.3,0.4c5.8,0.1,10.3,0.1,13.4,0.2
					c1.5,0,2.7,0,3.5,0.1C760.2,478.6,760.6,478.6,760.6,478.6s-0.4,0-1.2,0c-0.8,0-2,0-3.5,0c-3.1,0-7.6,0-13.4,0
					c-11.7,0-28.5,0-49.3-0.1c-20.8-0.1-45.6-0.1-73.1-0.2c-13.8-0.1-28.2-0.1-43.2-0.2c-1.9,0-3.8,0-5.6,0l-2.8,0l-1.4,0
					c-0.5,0-1.1-0.1-1.6-0.3c-1-0.4-1.8-1.3-2.1-2.4c-0.2-0.6-0.1-1.1-0.1-1.6l0-1.4c0-1.9,0-3.8,0-5.8c0-3.9,0-7.8,0-11.7
					c0-2,0-3.9,0-5.9c0-0.5,0-1,0-1.6c0.1-0.6,0.3-1.1,0.6-1.6c0.7-0.9,1.8-1.5,3-1.5c63.5,0.4,121,0.7,162.6,0.9
					c10.4,0.1,19.8,0.1,28.1,0.2c1,0,2.1,0,3,0c1.1,0,2.1,0.6,2.7,1.4c0.7,0.8,0.7,2,0.6,2.9c0,0.9,0,1.8,0,2.7
					c0,3.5-0.1,6.8-0.1,9.7c-0.1,5.8-0.1,10.3-0.2,13.4c-0.2,1.6-1.3,2.5-2.1,2.7C761,478.7,760.6,478.6,760.6,478.6z"/>
			</g>
		</g>
	</g>
	<g>
		<g>
			
				<rect x="618.7" y="416.2" transform="matrix(4.619080e-03 -1 1 4.619080e-03 158.2682 1082.7863)" class="st1" width="8.6" height="91.5"/>
		</g>
	</g>
	<g>
		<g>
			
				<rect x="583.9" y="485.5" transform="matrix(4.615634e-03 -1 1 4.615634e-03 75.2671 1096.6998)" class="st1" width="9.2" height="50"/>
		</g>
	</g>
	<g>
		<g>
			<g>
				<path class="st1" d="M759.3,562.4c0,0,0.4,0,1.2-0.2c0.7-0.2,1.8-0.8,2.5-2.2c0.3-0.7,0.4-1.5,0.3-2.5c0-0.9,0-2,0-3.1
					c0-2.2,0-4.8,0-7.7c0-2.9,0-6.1,0-9.7c0-0.9,0-1.8,0-2.7c0-0.9-0.1-1.8-0.6-2.6c-0.5-0.8-1.2-1.4-2.1-1.6
					c-0.9-0.3-1.9-0.1-2.9-0.2c-8.2,0-17.6,0-28-0.1c-41.5-0.2-98.8-0.4-162.1-0.6c-1.8,0-3.4,1.4-3.6,3.1c-0.1,1.9,0,3.9,0,5.8
					c0,3.9,0,7.8,0,11.6c0,1.9,0,3.8,0,5.8c0,1-0.1,1.9,0.1,2.7c0.2,0.8,0.7,1.5,1.4,2c0.7,0.5,1.5,0.7,2.4,0.6l2.8,0
					c1.9,0,3.8,0,5.6,0c14.9,0.1,29.3,0.2,43,0.2c27.4,0.2,52.1,0.3,72.9,0.4c20.7,0.2,37.5,0.3,49.1,0.4c5.8,0.1,10.3,0.1,13.4,0.2
					c1.5,0,2.7,0,3.5,0.1C758.9,562.3,759.3,562.4,759.3,562.4s-0.4,0-1.2,0c-0.8,0-2,0-3.5,0c-3.1,0-7.6,0-13.4,0
					c-11.6,0-28.4,0-49.1-0.1c-20.8-0.1-45.5-0.1-72.9-0.2c-13.7-0.1-28.1-0.1-43-0.2c-1.9,0-3.7,0-5.6,0l-2.8,0c-1,0-2.1-0.2-3-0.8
					c-0.9-0.6-1.5-1.5-1.8-2.6c-0.3-1.1-0.1-2-0.2-3c0-1.9,0-3.8,0-5.8c0-3.9,0-7.7,0-11.6c0-2,0-3.9,0.1-5.9c0.2-2.2,2.3-4.1,4.6-4
					c63.3,0.4,120.6,0.7,162.1,0.9c10.4,0.1,19.7,0.1,28,0.2c1,0.1,2-0.1,3.1,0.2c1,0.3,1.9,1,2.4,1.9c0.6,0.9,0.7,1.9,0.6,2.8
					c0,0.9,0,1.8,0,2.7c0,3.5-0.1,6.7-0.1,9.7c0,2.9-0.1,5.5-0.1,7.7c0,1.1,0,2.1,0,3.1c0,0.9,0,1.8-0.4,2.5c-0.7,1.4-1.9,2-2.6,2.2
					C759.7,562.4,759.3,562.4,759.3,562.4z"/>
			</g>
		</g>
	</g>
	<g>
		<g>
			
				<rect x="583.6" y="572.9" transform="matrix(4.596210e-03 -1 1 4.596210e-03 -12.4261 1183.2808)" class="st1" width="9.2" height="50"/>
		</g>
	</g>
	<g>
		<g>
			<g>
				<path class="st1" d="M758.9,649.7c0,0,0.4,0,1.2-0.2c0.7-0.2,1.8-0.8,2.5-2.2c0.3-0.7,0.4-1.5,0.3-2.5c0-0.9,0-2,0-3.1
					c0-2.2,0-4.8,0-7.7c0-2.9,0-6.1,0-9.7c0-0.9,0-1.8,0-2.7c0-0.9-0.1-1.8-0.6-2.6c-0.5-0.8-1.2-1.4-2.1-1.6
					c-0.9-0.3-1.9-0.1-2.9-0.2c-8.2,0-17.6,0-28-0.1c-41.5-0.2-98.8-0.4-162.1-0.6c-1.8,0-3.4,1.4-3.6,3.1c-0.1,1.9,0,3.9,0,5.8
					c0,3.9,0,7.8,0,11.6c0,1.9,0,3.8,0,5.8c0,1-0.1,1.9,0.1,2.7c0.2,0.8,0.7,1.5,1.4,2c0.7,0.5,1.5,0.7,2.4,0.6l2.8,0
					c1.9,0,3.8,0,5.6,0c14.9,0.1,29.3,0.2,43,0.2c27.4,0.2,52.1,0.3,72.9,0.4c20.7,0.2,37.5,0.3,49.1,0.4c5.8,0.1,10.3,0.1,13.4,0.2
					c1.5,0,2.7,0,3.5,0.1C758.5,649.7,758.9,649.7,758.9,649.7s-0.4,0-1.2,0c-0.8,0-2,0-3.5,0c-3.1,0-7.6,0-13.4,0
					c-11.6,0-28.4,0-49.1-0.1c-20.8-0.1-45.5-0.1-72.9-0.2c-13.7-0.1-28.1-0.1-43-0.2c-1.9,0-3.7,0-5.6,0l-2.8,0c-1,0-2.1-0.2-3-0.8
					c-0.9-0.6-1.5-1.5-1.8-2.6c-0.3-1.1-0.1-2-0.2-3c0-1.9,0-3.8,0-5.8c0-3.9,0-7.7,0-11.6c0-2,0-3.9,0.1-5.9c0.2-2.2,2.3-4.1,4.6-4
					c63.3,0.4,120.6,0.7,162.1,0.9c10.4,0.1,19.7,0.1,28,0.2c1,0.1,2-0.1,3.1,0.2c1,0.3,1.9,1,2.4,1.9c0.6,0.9,0.7,1.9,0.6,2.8
					c0,0.9,0,1.8,0,2.7c0,3.5-0.1,6.7-0.1,9.7c0,2.9-0.1,5.5-0.1,7.7c0,1.1,0,2.1,0,3.1c0,0.9,0,1.8-0.4,2.5c-0.7,1.4-1.9,2-2.6,2.2
					C759.3,649.8,758.9,649.7,758.9,649.7z"/>
			</g>
		</g>
	</g>
	<g>
		<g>
			
				<rect x="618.4" y="499.9" transform="matrix(4.619041e-03 -1 1 4.619041e-03 74.1734 1165.7781)" class="st1" width="8.6" height="91.5"/>
		</g>
	</g>
	<g>
		<g>
			<g>
				<path class="st1" d="M585.3,633.8c0,2.4-1.8,4.3-4,4.2c-2.2,0-4-1.9-4-4.3c0-2.4,1.8-4.3,4-4.2
					C583.5,629.6,585.3,631.5,585.3,633.8z"/>
			</g>
		</g>
		<g>
			<g>
				<path class="st1" d="M597.7,633.9c0,2.4-1.8,4.3-4,4.2s-4-1.9-4-4.3c0-2.4,1.8-4.3,4-4.2C595.9,629.6,597.7,631.5,597.7,633.9z"
					/>
			</g>
		</g>
		<g>
			<g>
				<path class="st1" d="M610,633.9c0,2.4-1.8,4.3-4,4.2c-2.2,0-4-1.9-4-4.3c0-2.4,1.8-4.3,4-4.2C608.3,629.7,610.1,631.6,610,633.9
					z"/>
			</g>
		</g>
		<g>
			<g>
				<path class="st1" d="M622.4,634c0,2.4-1.8,4.3-4,4.2s-4-1.9-4-4.3c0-2.4,1.8-4.3,4-4.2C620.7,629.7,622.4,631.6,622.4,634z"/>
			</g>
		</g>
		<g>
			<g>
				<path class="st1" d="M634.8,634.1c0,2.4-1.8,4.3-4,4.2c-2.2,0-4-1.9-4-4.3c0-2.4,1.8-4.3,4-4.2
					C633.1,629.8,634.8,631.7,634.8,634.1z"/>
			</g>
		</g>
		<g>
			<g>
				<path class="st1" d="M647.2,634.1c0,2.4-1.8,4.3-4,4.2s-4-1.9-4-4.3c0-2.4,1.8-4.3,4-4.2C645.5,629.8,647.2,631.8,647.2,634.1z"
					/>
			</g>
		</g>
		<g>
			<g>
				<path class="st1" d="M659.6,634.2c0,2.4-1.8,4.3-4,4.2c-2.2,0-4-1.9-4-4.3c0-2.4,1.8-4.3,4-4.2
					C657.8,629.9,659.6,631.8,659.6,634.2z"/>
			</g>
		</g>
		<g>
			<g>
				<path class="st1" d="M672,634.2c0,2.4-1.8,4.3-4,4.2c-2.2,0-4-1.9-4-4.3c0-2.4,1.8-4.3,4-4.2S672,631.9,672,634.2z"/>
			</g>
		</g>
		<g>
			<g>
				<path class="st1" d="M684.4,634.3c0,2.4-1.8,4.3-4,4.2c-2.2,0-4-1.9-4-4.3c0-2.4,1.8-4.3,4-4.2
					C682.6,630,684.4,631.9,684.4,634.3z"/>
			</g>
		</g>
	</g>
	<g>
		<g>
			<path class="st1" d="M666.8,353.6c2.6-1.1,4.5-3.8,4.5-7c0-4.2-3.1-7.6-7-7.6c-3.9,0-7.1,3.3-7.1,7.5c0,3.2,1.9,5.9,4.5,7
				c-10.9,1.6-10.4,13.5-10.4,13.5l25.7,0.1C677,367.1,677.6,355.2,666.8,353.6z"/>
		</g>
	</g>
	<g>
		<g>
			
				<rect x="657.2" y="334.3" transform="matrix(4.615052e-03 -1 1 4.615052e-03 279.5048 1041.1162)" class="st1" width="11" height="91.8"/>
		</g>
	</g>
</g>
<g>
	<g>
		<g>
			<g>
				<path class="st0" d="M455.5,365.2l-30.7-0.1c-4.1,0-7.5,3.5-7.5,7.8l0,5.6c0,4.3-3.4,7.8-7.5,7.8l-59.8-0.3
					c-4.1,0-7.4-3.5-7.4-7.8l0-5.6c0-4.3-3.3-7.8-7.4-7.8l-10.8,0l-26.9-0.1c-13.3-0.1-24.2,10.7-24.3,24l-1.6,387.2
					c-0.1,13.3,10.7,24.2,24,24.2l157.9,0.7c13.3,0.1,24.2-10.7,24.3-24l1.6-387.2C479.6,376.1,468.8,365.2,455.5,365.2z"/>
			</g>
		</g>
		<g>
			<g>
				<g>
					<g>
						<g>
							<path class="st1" d="M434.3,749l-117.4-0.5c-1.2,0-2.2-1.3-2.2-3l0.1-30.7c0-1.6,1-2.9,2.2-2.9l117.4,0.5
								c1.2,0,2.2,1.3,2.2,3l-0.1,30.7C436.5,747.7,435.5,749,434.3,749z"/>
						</g>
					</g>
					<g>
						<path class="st2" d="M349.3,733l0.4-0.7c0.6,0.6,1.7,1.1,2.9,1.1c1.6,0,2.4-0.7,2.4-1.6c0-2.5-5.4-1-5.4-4.4
							c0-1.4,1-2.5,3.3-2.5c1,0,2,0.3,2.7,0.8l-0.3,0.8c-0.8-0.5-1.6-0.8-2.4-0.8c-1.6,0-2.3,0.7-2.3,1.7c0,2.5,5.4,1,5.4,4.4
							c0,1.4-1,2.5-3.3,2.5C351.2,734.2,349.9,733.7,349.3,733z"/>
						<path class="st2" d="M357.9,725l0.9,0l0,9.2l-0.9,0L357.9,725z"/>
						<path class="st2" d="M369,725l0,9.2h-0.8l-5.6-7.5l0,7.5l-0.9,0l0-9.2l0.8,0l5.6,7.5l0-7.5H369z"/>
						<path class="st2" d="M378.1,729.7l0.9,0l0,3.5c-0.8,0.8-2,1.2-3.2,1.2c-2.7,0-4.6-2-4.6-4.7c0-2.7,2-4.7,4.7-4.7
							c1.3,0,2.5,0.5,3.3,1.3l-0.6,0.6c-0.7-0.8-1.6-1.1-2.7-1.1c-2.2,0-3.8,1.6-3.8,3.8c0,2.2,1.6,3.8,3.7,3.8
							c0.8,0,1.6-0.2,2.3-0.7L378.1,729.7z"/>
						<path class="st2" d="M384.8,730.4l0-5.3h0.9l0,5.2c0,2.2,1,3.2,2.7,3.2c1.7,0,2.7-1,2.7-3.2l0-5.2l0.9,0l0,5.3
							c0,2.6-1.4,4-3.6,4C386.2,734.4,384.8,733,384.8,730.4z"/>
						<path class="st2" d="M401.8,728.3c0,2-1.4,3.1-3.6,3.1l-2.4,0l0,2.9h-0.9l0-9.2l3.3,0C400.4,725.2,401.8,726.4,401.8,728.3z
							 M400.8,728.3c0-1.5-0.9-2.3-2.7-2.3l-2.3,0l0,4.6l2.3,0C399.9,730.6,400.8,729.8,400.8,728.3z"/>
					</g>
				</g>
			</g>
		</g>
	</g>
	<g>
		<g>
			
				<rect x="316.1" y="462.2" transform="matrix(4.615651e-03 -1 1 4.615651e-03 -164.2446 800.1985)" class="st1" width="7.5" height="40.7"/>
		</g>
	</g>
	<g>
		<g>
			<g>
				<path class="st1" d="M459.7,524.8c0,0,0.3,0,0.9-0.2c0.6-0.2,1.4-0.9,1.5-2.1c0-2.5,0-6.2,0-10.9c0-2.4,0-5,0-7.9
					c0-0.7,0-1.5,0-2.2c0-0.8,0-1.5-0.4-2.1c-0.4-0.6-1.1-1-1.9-1c-0.8,0-1.6,0-2.5,0c-6.7,0-14.4,0-22.9,0
					c-33.9-0.1-80.8-0.3-132.5-0.5c-0.7,0-1.3,0.3-1.7,0.9c-0.4,0.6-0.4,1.2-0.4,2.1c0,1.6,0,3.2,0,4.8c0,3.2,0,6.4,0,9.5
					c0,1.6,0,3.1,0,4.7c0,0.8-0.1,1.6,0.1,2.2c0.2,0.6,0.6,1.2,1.2,1.4c0.3,0.1,0.6,0.2,1,0.2l1.2,0l2.3,0c1.5,0,3.1,0,4.6,0
					c12.2,0.1,24,0.1,35.2,0.2c22.4,0.1,42.6,0.3,59.6,0.4c16.9,0.1,30.7,0.2,40.2,0.3c4.7,0.1,8.4,0.1,10.9,0.1
					c1.2,0,2.2,0,2.8,0.1C459.4,524.8,459.7,524.8,459.7,524.8s-0.3,0-1,0c-0.7,0-1.6,0-2.8,0c-2.5,0-6.2,0-10.9,0
					c-9.5,0-23.2,0-40.2-0.1c-17-0.1-37.2-0.1-59.6-0.2c-11.2,0-23-0.1-35.2-0.1c-1.5,0-3.1,0-4.6,0l-2.3,0l-1.2,0
					c-0.4,0-0.9-0.1-1.3-0.2c-0.8-0.4-1.5-1.1-1.7-2c-0.1-0.4-0.1-0.9-0.1-1.3l0-1.2c0-1.6,0-3.1,0-4.7c0-3.2,0-6.3,0-9.5
					c0-1.6,0-3.2,0-4.8c0-0.4,0-0.8,0-1.3c0.1-0.5,0.2-0.9,0.5-1.3c0.5-0.8,1.5-1.2,2.4-1.2c51.7,0.3,98.6,0.5,132.5,0.7
					c8.5,0.1,16.1,0.1,22.9,0.2c0.8,0,1.7,0,2.5,0c0.9,0,1.7,0.5,2.2,1.2c0.5,0.7,0.5,1.6,0.5,2.3c0,0.8,0,1.5,0,2.2
					c0,2.9,0,5.5-0.1,7.9c-0.1,4.7-0.1,8.4-0.1,10.9c-0.1,1.3-1.1,2-1.7,2.2C460,524.9,459.7,524.8,459.7,524.8z"/>
			</g>
		</g>
	</g>
	<g>
		<g>
			
				<rect x="344.2" y="473.9" transform="matrix(4.619080e-03 -1 1 4.619080e-03 -165.1327 856.481)" class="st1" width="7" height="74.5"/>
		</g>
	</g>
	<g>
		<g>
			
				<rect x="315.8" y="530.5" transform="matrix(4.615634e-03 -1 1 4.615634e-03 -232.7584 867.8245)" class="st1" width="7.5" height="40.7"/>
		</g>
	</g>
	<g>
		<g>
			<g>
				<path class="st1" d="M458.6,593c0,0,0.3,0,0.9-0.2c0.6-0.2,1.5-0.7,2-1.8c0.3-0.6,0.3-1.2,0.3-2c0-0.8,0-1.6,0-2.5
					c0-1.8,0-3.9,0-6.3c0-2.4,0-5,0-7.9c0-0.7,0-1.5,0-2.2c0-0.8-0.1-1.5-0.5-2.1c-0.4-0.6-1-1.1-1.7-1.3c-0.7-0.2-1.6-0.1-2.4-0.1
					c-6.7,0-14.4,0-22.8,0c-33.8-0.1-80.5-0.3-132-0.5c-1.4,0-2.8,1.1-2.9,2.5c0,1.5,0,3.2,0,4.7c0,3.2,0,6.3,0,9.5
					c0,1.6,0,3.1,0,4.7c0,0.8-0.1,1.6,0.1,2.2c0.2,0.7,0.6,1.2,1.2,1.6c0.6,0.4,1.2,0.5,2,0.5l2.3,0c1.5,0,3.1,0,4.6,0
					c12.2,0.1,23.9,0.1,35.1,0.2c22.3,0.1,42.5,0.3,59.4,0.4c16.9,0.1,30.5,0.2,40,0.3c4.7,0.1,8.4,0.1,10.9,0.1
					c1.2,0,2.2,0,2.8,0.1C458.3,593,458.6,593,458.6,593s-0.3,0-1,0c-0.7,0-1.6,0-2.8,0c-2.5,0-6.2,0-10.9,0c-9.5,0-23.1,0-40-0.1
					c-16.9-0.1-37-0.1-59.4-0.2c-11.2,0-22.9-0.1-35.1-0.1c-1.5,0-3,0-4.6,0l-2.3,0c-0.8,0-1.7-0.1-2.4-0.6
					c-0.7-0.5-1.3-1.2-1.5-2.1c-0.2-0.9-0.1-1.7-0.1-2.4c0-1.6,0-3.1,0-4.7c0-3.1,0-6.3,0-9.5c0-1.6,0-3.1,0-4.8
					c0.2-1.8,1.9-3.3,3.7-3.3c51.6,0.3,98.2,0.5,132,0.7c8.4,0.1,16.1,0.1,22.8,0.2c0.8,0,1.7-0.1,2.5,0.2c0.8,0.3,1.5,0.8,2,1.5
					c0.5,0.7,0.6,1.6,0.5,2.3c0,0.8,0,1.5,0,2.2c0,2.9,0,5.5-0.1,7.9c0,2.4,0,4.5-0.1,6.3c0,0.9,0,1.7,0,2.5c0,0.8,0,1.5-0.3,2.1
					c-0.6,1.2-1.5,1.6-2.1,1.8C459,593.1,458.6,593,458.6,593z"/>
			</g>
		</g>
	</g>
	<g>
		<g>
			
				<rect x="315.5" y="601.6" transform="matrix(4.596210e-03 -1 1 4.596210e-03 -304.197 938.364)" class="st1" width="7.5" height="40.7"/>
		</g>
	</g>
	<g>
		<g>
			<g>
				<path class="st1" d="M458.4,664.2c0,0,0.3,0,0.9-0.2c0.6-0.2,1.5-0.7,2-1.8c0.3-0.6,0.3-1.2,0.3-2c0-0.8,0-1.6,0-2.5
					c0-1.8,0-3.9,0-6.3c0-2.4,0-5,0-7.9c0-0.7,0-1.5,0-2.2c0-0.8-0.1-1.5-0.5-2.1c-0.4-0.6-1-1.1-1.7-1.3c-0.7-0.2-1.6-0.1-2.4-0.1
					c-6.7,0-14.4,0-22.8,0c-33.8-0.1-80.5-0.3-132-0.5c-1.4,0-2.8,1.1-2.9,2.5c0,1.5,0,3.2,0,4.7c0,3.2,0,6.3,0,9.5
					c0,1.6,0,3.1,0,4.7c0,0.8-0.1,1.6,0.1,2.2c0.2,0.7,0.6,1.2,1.2,1.6c0.6,0.4,1.2,0.5,2,0.5l2.3,0c1.5,0,3.1,0,4.6,0
					c12.2,0.1,23.9,0.1,35.1,0.2c22.3,0.1,42.5,0.3,59.4,0.4c16.9,0.1,30.5,0.2,40,0.3c4.7,0.1,8.4,0.1,10.9,0.1
					c1.2,0,2.2,0,2.8,0.1C458,664.2,458.4,664.2,458.4,664.2s-0.3,0-1,0c-0.7,0-1.6,0-2.8,0c-2.5,0-6.2,0-10.9,0
					c-9.5,0-23.1,0-40-0.1c-16.9-0.1-37-0.1-59.4-0.2c-11.2,0-22.9-0.1-35.1-0.1c-1.5,0-3,0-4.6,0l-2.3,0c-0.8,0-1.7-0.1-2.4-0.6
					c-0.7-0.5-1.3-1.2-1.5-2.1c-0.2-0.9-0.1-1.7-0.1-2.4c0-1.6,0-3.1,0-4.7c0-3.1,0-6.3,0-9.5c0-1.6,0-3.1,0-4.8
					c0.2-1.8,1.9-3.3,3.7-3.3c51.6,0.3,98.2,0.5,132,0.7c8.4,0.1,16.1,0.1,22.8,0.2c0.8,0,1.7-0.1,2.5,0.2c0.8,0.3,1.5,0.8,2,1.5
					c0.5,0.7,0.6,1.6,0.5,2.3c0,0.8,0,1.5,0,2.2c0,2.9,0,5.5-0.1,7.9c0,2.4,0,4.5-0.1,6.3c0,0.9,0,1.7,0,2.5c0,0.8,0,1.5-0.3,2.1
					c-0.6,1.2-1.5,1.6-2.1,1.8C458.7,664.3,458.4,664.2,458.4,664.2z"/>
			</g>
		</g>
	</g>
	<g>
		<g>
			
				<rect x="343.9" y="542.2" transform="matrix(4.619041e-03 -1 1 4.619041e-03 -233.6465 924.1066)" class="st1" width="7" height="74.5"/>
		</g>
	</g>
	<g>
		<g>
			<g>
				<path class="st1" d="M316.9,651.3c0,1.9-1.5,3.5-3.3,3.5c-1.8,0-3.3-1.6-3.2-3.5s1.5-3.5,3.3-3.5
					C315.4,647.8,316.9,649.3,316.9,651.3z"/>
			</g>
		</g>
		<g>
			<g>
				<path class="st1" d="M327,651.3c0,1.9-1.5,3.5-3.3,3.5c-1.8,0-3.3-1.6-3.2-3.5s1.5-3.5,3.3-3.5C325.5,647.8,327,649.4,327,651.3
					z"/>
			</g>
		</g>
		<g>
			<g>
				<path class="st1" d="M337.1,651.4c0,1.9-1.5,3.5-3.3,3.5s-3.3-1.6-3.2-3.5c0-1.9,1.5-3.5,3.3-3.5S337.1,649.4,337.1,651.4z"/>
			</g>
		</g>
		<g>
			<g>
				<path class="st1" d="M347.2,651.4c0,1.9-1.5,3.5-3.3,3.5c-1.8,0-3.3-1.6-3.2-3.5s1.5-3.5,3.3-3.5
					C345.7,647.9,347.2,649.5,347.2,651.4z"/>
			</g>
		</g>
		<g>
			<g>
				<path class="st1" d="M357.3,651.5c0,1.9-1.5,3.5-3.3,3.5c-1.8,0-3.3-1.6-3.2-3.5s1.5-3.5,3.3-3.5
					C355.8,648,357.3,649.5,357.3,651.5z"/>
			</g>
		</g>
		<g>
			<g>
				<path class="st1" d="M367.4,651.5c0,1.9-1.5,3.5-3.3,3.5c-1.8,0-3.3-1.6-3.2-3.5s1.5-3.5,3.3-3.5
					C365.9,648,367.4,649.6,367.4,651.5z"/>
			</g>
		</g>
		<g>
			<g>
				<path class="st1" d="M377.5,651.5c0,1.9-1.5,3.5-3.3,3.5s-3.3-1.6-3.2-3.5s1.5-3.5,3.3-3.5C376,648.1,377.5,649.6,377.5,651.5z"
					/>
			</g>
		</g>
		<g>
			<g>
				<path class="st1" d="M387.6,651.6c0,1.9-1.5,3.5-3.3,3.5c-1.8,0-3.3-1.6-3.2-3.5s1.5-3.5,3.3-3.5
					C386.1,648.1,387.6,649.7,387.6,651.6z"/>
			</g>
		</g>
		<g>
			<g>
				<path class="st1" d="M397.7,651.6c0,1.9-1.5,3.5-3.3,3.5c-1.8,0-3.3-1.6-3.2-3.5s1.5-3.5,3.3-3.5
					C396.2,648.2,397.7,649.7,397.7,651.6z"/>
			</g>
		</g>
	</g>
	<g>
		<g>
			<path class="st1" d="M383.3,422.9c2.1-0.9,3.6-3.1,3.7-5.7c0-3.4-2.6-6.2-5.7-6.2c-3.2,0-5.8,2.7-5.8,6.1c0,2.6,1.5,4.8,3.7,5.7
				c-8.9,1.3-8.5,11-8.5,11l21,0.1C391.6,434,392.1,424.3,383.3,422.9z"/>
		</g>
	</g>
	<g>
		<g>
			
				<rect x="375.5" y="407.2" transform="matrix(4.615052e-03 -1 1 4.615052e-03 -66.3649 822.54)" class="st1" width="8.9" height="74.8"/>
		</g>
	</g>
</g>
<g>
	<path class="st3" d="M368.6,202.7c5.1,3.8,9.6,8.2,13.4,13.2l17.1-3.1l11.3,26.5l-14.1,10.2c0.9,6.2,1,12.5,0.2,18.8l14.3,9.9
		l-10.7,26.7l-17.2-2.8c-3.8,5.1-8.2,9.6-13.2,13.4l3.1,17.1L346.4,344l-10.2-14.1c-6.2,0.9-12.5,1-18.8,0.2l-9.9,14.3l-26.8-10.7
		l2.8-17.2c-5.1-3.8-9.6-8.2-13.4-13.2l-17.1,3.1l-11.3-26.5l14.1-10.2c-0.9-6.2-1-12.5-0.2-18.8l-14.3-9.9l10.7-26.7l17.2,2.8
		c3.8-5.1,8.2-9.6,13.2-13.4l-3.1-17.1l26.5-11.3l10.2,14.1c6.2-0.9,12.5-1,18.8-0.2l9.9-14.3l26.7,10.7L368.6,202.7L368.6,202.7z
		 M338.8,231.4c-15.8-6.4-33.9,1.3-40.2,17.2c-6.4,15.8,1.3,33.9,17.2,40.2c15.9,6.4,33.9-1.3,40.2-17.2
		C362.3,255.8,354.6,237.8,338.8,231.4z"/>
</g>
<g>
	<g>
		<path class="st4" d="M779.5,202H565.1c-4.2,0-7.6-3.4-7.6-7.6v-44.7c0-4.2,3.4-7.6,7.6-7.6h214.5c4.2,0,7.6,3.4,7.6,7.6v44.7
			C787.2,198.6,783.7,202,779.5,202z"/>
	</g>
	<g>
		<g>
			<path class="st2" d="M594,173.8c2.6-1.1,4.5-3.8,4.5-7c0-4.2-3.1-7.6-7-7.6c-3.9,0-7.1,3.3-7.1,7.5c0,3.2,1.9,5.9,4.5,7
				c-5.9,0.9-8.5,4.8-9.6,8.2c2.5,2.8,5.9,4.7,9.8,5.3l4.4,0c4-0.5,7.5-2.5,10-5.3C602.4,178.6,599.9,174.7,594,173.8z"/>
		</g>
		<g>
			<g>
				<rect x="622.4" y="157.6" class="st2" width="56.6" height="4.2"/>
			</g>
			<g>
				<rect x="622.4" y="181.5" class="st2" width="99.1" height="4.2"/>
			</g>
			<g>
				<rect x="622.4" y="169.3" class="st2" width="143.6" height="4.2"/>
			</g>
		</g>
	</g>
</g>
<g>
	<g>
		<path class="st0" d="M489.5,170c2.9,2.2,5.5,4.7,7.7,7.5l9.8-1.8l6.5,15.1l-8.1,5.8c0.5,3.5,0.6,7.1,0.1,10.7l8.2,5.7l-6.1,15.3
			l-9.8-1.6c-2.2,2.9-4.7,5.5-7.5,7.7l1.8,9.8l-15.1,6.5l-5.8-8.1c-3.5,0.5-7.1,0.6-10.7,0.1l-5.6,8.2l-15.3-6.1l1.6-9.8
			c-2.9-2.2-5.5-4.7-7.7-7.5l-9.8,1.8l-6.5-15.1l8.1-5.8c-0.5-3.5-0.6-7.1-0.1-10.7l-8.2-5.7l6.1-15.3l9.8,1.6
			c2.2-2.9,4.7-5.5,7.5-7.7l-1.8-9.8l15.1-6.5l5.8,8.1c3.5-0.5,7.1-0.6,10.7-0.1l5.6-8.2l15.3,6.1L489.5,170L489.5,170z
			 M472.5,186.4c-9-3.6-19.3,0.8-23,9.8c-3.6,9,0.8,19.3,9.8,23c9,3.6,19.3-0.8,23-9.8C485.9,200.3,481.5,190,472.5,186.4z"/>
	</g>
	<g>
		<g>
			<path class="st0" d="M472.5,186.4c0,0,1.5,0.4,3.9,2c2.3,1.6,5.4,4.7,6.9,9.6c0.7,2.5,1,5.3,0.4,8.3c-0.6,2.9-1.9,6-4.2,8.5
				c-1.1,1.3-2.5,2.4-4,3.4c-1.5,1-3.2,1.7-5,2.1c-3.6,1-7.6,0.7-11.3-0.7c-3.6-1.5-6.7-4.1-8.6-7.3c-1-1.6-1.7-3.3-2.1-5
				c-0.5-1.7-0.6-3.5-0.6-5.2c0.1-3.4,1.3-6.5,2.9-9.1c1.6-2.6,3.8-4.4,6-5.7c4.5-2.6,8.9-2.7,11.6-2.2
				C471.1,185.6,472.5,186.4,472.5,186.4c0,0.1-1.5-0.6-4.2-0.9c-2.7-0.3-7-0.1-11.2,2.4c-2.1,1.3-4.2,3.1-5.7,5.6
				c-1.5,2.4-2.6,5.4-2.6,8.7c-0.1,1.6,0.1,3.3,0.6,4.9c0.4,1.6,1.1,3.2,2,4.7c1.8,3,4.7,5.4,8.2,6.9c3.5,1.3,7.3,1.6,10.6,0.7
				c1.7-0.4,3.3-1.1,4.7-2c1.4-0.9,2.7-1.9,3.8-3.1c2.2-2.4,3.5-5.3,4.1-8.1c0.6-2.8,0.4-5.6-0.2-7.9c-1.3-4.8-4.2-7.9-6.4-9.5
				C473.9,187,472.4,186.5,472.5,186.4z"/>
		</g>
	</g>
	<g>
		<g>
			<path class="st0" d="M489.5,170c0,0,0-0.2,0.1-0.6c0.1-0.5,0.2-1.1,0.3-1.9c0.3-1.7,0.6-4.2,1.1-7.4l0.1,0.2
				c-3.9-1.5-9.1-3.6-15.3-6l0.3-0.1c-1.7,2.5-3.6,5.2-5.6,8.2l-0.1,0.1l-0.2,0c-3.3-0.4-6.9-0.4-10.6,0.2l-0.2,0l-0.1-0.2
				c-1.8-2.5-3.8-5.2-5.9-8l0.4,0.1c-4.8,2-9.8,4.2-15.1,6.5l0.2-0.4c0.6,3,1.2,6.4,1.8,9.8l0,0.2l-0.2,0.2c-2.6,2-5.2,4.6-7.4,7.6
				l-0.2,0.2l-0.3,0c-3-0.5-6.4-1-9.8-1.6l0.5-0.3c-1.9,4.8-4,10-6.1,15.3l-0.2-0.6c2.5,1.8,5.3,3.7,8.2,5.6l0.2,0.2l0,0.3
				c-0.4,3.3-0.4,7,0.1,10.6l0,0.3l-0.2,0.2c-2.5,1.8-5.3,3.8-8.1,5.8l0.2-0.6c2,4.8,4.2,9.9,6.5,15.1l-0.6-0.3
				c3.1-0.6,6.4-1.2,9.8-1.8l0.3-0.1l0.2,0.2c2.1,2.7,4.6,5.2,7.6,7.4l0,0l0,0c0.1,0.2-0.2-0.5,0.2,0.5v0v0l0,0l0,0.1l0,0.2l0,0.3
				l-0.1,0.6l-0.2,1.2l-0.4,2.5c-0.3,1.6-0.5,3.3-0.8,4.9l-0.3-0.6c5.2,2.1,10.2,4.1,15.3,6.1l-0.6,0.2c1.9-2.8,3.8-5.5,5.7-8.2
				l0.2-0.2l0.3,0c3.6,0.4,7.1,0.4,10.6-0.1l0.3,0l0.2,0.2c2,2.7,3.9,5.4,5.8,8.1l-0.6-0.2c5.2-2.2,10.2-4.3,15.1-6.4l-0.3,0.5
				c-0.6-3.3-1.2-6.6-1.8-9.8l0-0.3l0.2-0.2c2.9-2.2,5.4-4.8,7.4-7.6l0.2-0.2l0.3,0c3.4,0.5,6.6,1.1,9.8,1.6l-0.5,0.3
				c2.2-5.4,4.2-10.4,6.2-15.3l0.1,0.5c-2.9-2-5.6-3.9-8.2-5.7l-0.2-0.1l0-0.2c0.5-3.8,0.4-7.3-0.1-10.6l0-0.2l0.2-0.1
				c2.9-2.1,5.6-4,8.1-5.8l-0.1,0.4c-2.5-5.9-4.6-10.9-6.4-15.2l0.2,0.1c-3.9,0.7-7.1,1.3-9.8,1.7l-0.1,0l-0.1-0.1
				c-2.2-2.9-4.2-4.7-5.5-5.9c-0.7-0.6-1.2-1-1.5-1.3C489.6,170.1,489.4,170,489.5,170c0,0,0.2,0.1,0.6,0.4c0.4,0.3,0.9,0.7,1.6,1.2
				c1.4,1.1,3.4,3,5.7,5.8l-0.2-0.1c2.7-0.5,5.9-1.1,9.8-1.9l0.2,0l0.1,0.2c1.8,4.3,4,9.2,6.5,15.1l0.1,0.2l-0.2,0.1
				c-2.5,1.8-5.1,3.7-8,5.9l0.1-0.3c0.5,3.4,0.6,7,0.2,10.8l-0.2-0.3c2.6,1.8,5.3,3.6,8.2,5.6l0.3,0.2l-0.1,0.3
				c-1.9,4.8-4,9.9-6.1,15.3l-0.1,0.3l-0.3-0.1c-3.2-0.5-6.5-1-9.8-1.6l0.4-0.2c-2.1,2.8-4.7,5.5-7.6,7.8l0.2-0.4
				c0.6,3.2,1.2,6.5,1.8,9.8l0.1,0.4l-0.3,0.1c-4.9,2.1-10,4.3-15.1,6.5l-0.4,0.2l-0.2-0.3c-1.9-2.6-3.9-5.3-5.8-8.1l0.5,0.2
				c-3.5,0.5-7.2,0.6-10.9,0.1l0.5-0.2c-1.9,2.7-3.7,5.4-5.6,8.2l-0.2,0.3l-0.4-0.2c-5-2-10.1-4.1-15.3-6.1l-0.4-0.2l0.1-0.4
				c0.3-1.6,0.5-3.3,0.8-4.9l0.4-2.5l0.2-1.2l0.1-0.6l0-0.3l0-0.2l0-0.1l0,0v0v0c0.4,1,0.1,0.3,0.2,0.5l0,0l0,0
				c-3-2.2-5.6-4.9-7.7-7.6l0.5,0.2c-3.4,0.6-6.7,1.2-9.8,1.8l-0.4,0.1l-0.2-0.4c-2.2-5.2-4.4-10.3-6.5-15.1l-0.2-0.4l0.3-0.2
				c2.8-2,5.5-4,8.1-5.8l-0.2,0.5c-0.5-3.7-0.5-7.5-0.1-10.9l0.2,0.5c-2.8-2-5.6-3.9-8.2-5.7l-0.3-0.2l0.1-0.4
				c2.1-5.3,4.2-10.5,6.1-15.3l0.1-0.3l0.4,0.1c3.4,0.6,6.8,1.1,9.8,1.6l-0.4,0.2c2.3-3,4.9-5.7,7.6-7.7l-0.2,0.4
				c-0.6-3.4-1.2-6.8-1.8-9.8l-0.1-0.3l0.3-0.1c5.3-2.3,10.4-4.4,15.1-6.4l0.3-0.1l0.2,0.2c2,2.8,4,5.6,5.8,8.1l-0.3-0.1
				c3.8-0.5,7.4-0.5,10.8-0.1l-0.3,0.1c2-2.9,4-5.7,5.7-8.2l0.1-0.2l0.2,0.1c6.2,2.5,11.3,4.6,15.2,6.2l0.1,0l0,0.1
				c-0.5,3.2-1,5.6-1.3,7.3c-0.1,0.8-0.3,1.4-0.3,1.9C489.5,169.8,489.5,170,489.5,170z"/>
		</g>
	</g>
</g>
<g>
	<g>
		<path class="st5" d="M715.8,553c3.7,2.7,6.9,5.9,9.7,9.5l12.4-2.3l8.2,19.1l-10.2,7.4c0.6,4.4,0.7,9,0.2,13.6l10.3,7.1l-7.8,19.3
			l-12.4-2c-2.7,3.7-5.9,6.9-9.5,9.7l2.3,12.4l-19.1,8.2l-7.4-10.2c-4.4,0.6-9,0.7-13.6,0.1l-7.1,10.3l-19.3-7.8l2-12.4
			c-3.7-2.7-6.9-5.9-9.7-9.5l-12.4,2.3l-8.2-19.1l10.2-7.4c-0.6-4.4-0.7-9-0.2-13.6l-10.3-7.1l7.8-19.3l12.4,2
			c2.7-3.7,5.9-6.9,9.5-9.7l-2.3-12.4l19.1-8.2l7.4,10.2c4.4-0.6,9-0.7,13.6-0.2l7.1-10.3l19.3,7.8L715.8,553L715.8,553z
			 M694.3,573.7c-11.4-4.6-24.4,1-29,12.4c-4.6,11.4,1,24.4,12.4,29c11.4,4.6,24.4-1,29-12.4C711.3,591.3,705.8,578.3,694.3,573.7z"
			/>
	</g>
	<g>
		<g>
			<path class="st6" d="M715.8,553c3.7,2.7,6.9,5.9,9.7,9.5l12.4-2.3l8.2,19.1l-10.2,7.4c0.6,4.4,0.7,9,0.2,13.6l10.3,7.1l-7.8,19.3
				l-12.4-2c-2.7,3.7-5.9,6.9-9.5,9.7l2.3,12.4l-19.1,8.2l-7.4-10.2c-4.4,0.6-9,0.7-13.6,0.1l-7.1,10.3l-19.3-7.8l2-12.4
				c-3.7-2.7-6.9-5.9-9.7-9.5l-12.4,2.3l-8.2-19.1l10.2-7.4c-0.6-4.4-0.7-9-0.2-13.6l-10.3-7.1l7.8-19.3l12.4,2
				c2.7-3.7,5.9-6.9,9.5-9.7l-2.3-12.4l19.1-8.2l7.4,10.2c4.4-0.6,9-0.7,13.6-0.2l7.1-10.3l19.3,7.8L715.8,553L715.8,553z
				 M694.3,573.7c-11.4-4.6-24.4,1-29,12.4c-4.6,11.4,1,24.4,12.4,29c11.4,4.6,24.4-1,29-12.4C711.3,591.3,705.8,578.3,694.3,573.7z
				"/>
		</g>
		<g>
			<g>
				<path class="st7" d="M694.3,573.7c0,0,1.9,0.5,4.9,2.5c2.9,2,6.8,5.9,8.6,12.2c0.9,3.1,1.2,6.7,0.4,10.4
					c-0.8,3.7-2.4,7.6-5.3,10.7c-1.4,1.6-3.1,3-5,4.2c-1.9,1.2-4,2.1-6.3,2.7c-4.5,1.2-9.6,0.9-14.2-0.9c-4.6-1.9-8.4-5.2-10.9-9.2
					c-1.2-2-2.1-4.1-2.7-6.3c-0.6-2.2-0.8-4.4-0.7-6.5c0.1-4.3,1.6-8.2,3.6-11.4c2-3.2,4.8-5.6,7.6-7.2c5.6-3.3,11.2-3.4,14.6-2.8
					C692.6,572.7,694.3,573.7,694.3,573.7c0,0.1-1.9-0.7-5.3-1.2c-3.4-0.4-8.8-0.2-14.2,3.1c-2.7,1.6-5.3,3.9-7.2,7.1
					c-1.9,3.1-3.3,6.9-3.4,11c-0.1,2.1,0.2,4.2,0.7,6.2c0.5,2.1,1.4,4.1,2.6,6c2.3,3.8,6,6.9,10.4,8.7c4.4,1.7,9.2,2,13.5,0.9
					c2.2-0.5,4.2-1.4,6-2.5c1.8-1.1,3.5-2.5,4.8-4c2.8-3,4.4-6.7,5.2-10.3c0.8-3.6,0.5-7.1-0.3-10.1c-1.6-6.1-5.4-10-8.2-12.1
					C696.2,574.5,694.3,573.9,694.3,573.7z"/>
			</g>
		</g>
		<g>
			<g>
				<path class="st7" d="M715.8,553c0,0,0-0.3,0.1-0.8c0.1-0.6,0.2-1.3,0.3-2.4c0.3-2.1,0.8-5.2,1.4-9.3l0.1,0.2
					c-4.9-2-11.5-4.5-19.3-7.7l0.3-0.1c-2.2,3.1-4.6,6.6-7.1,10.4l-0.1,0.2l-0.2,0c-4.2-0.5-8.8-0.5-13.5,0.2l-0.2,0l-0.1-0.2
					c-2.3-3.2-4.8-6.6-7.4-10.2l0.4,0.1c-6,2.6-12.4,5.3-19.1,8.2l0.2-0.4c0.7,3.8,1.5,8,2.3,12.4l0,0.2l-0.2,0.2
					c-3.3,2.6-6.6,5.8-9.4,9.6l-0.2,0.2l-0.3,0c-3.8-0.6-8.1-1.3-12.4-2l0.5-0.3c-2.4,6.1-5.1,12.6-7.7,19.3l-0.2-0.6
					c3.2,2.2,6.8,4.7,10.3,7.1l0.2,0.2l0,0.3c-0.5,4.2-0.5,8.8,0.2,13.4l0,0.3l-0.2,0.2c-3.2,2.3-6.7,4.8-10.2,7.4l0.2-0.6
					c2.6,6.1,5.4,12.6,8.2,19.1l-0.6-0.3c3.9-0.7,8.1-1.5,12.4-2.3l0.3-0.1l0.2,0.2c2.6,3.4,5.9,6.6,9.6,9.4l0,0l0.2,0.2l0,0.3
					c-0.7,4.2-1.3,8.3-2,12.4l-0.3-0.6c6.5,2.6,13,5.2,19.3,7.8l-0.6,0.2c2.4-3.5,4.8-6.9,7.1-10.3l0.2-0.2l0.3,0
					c4.5,0.6,9,0.5,13.4-0.1l0.3,0l0.2,0.2c2.5,3.5,4.9,6.8,7.4,10.2l-0.6-0.2c6.5-2.8,12.9-5.5,19.1-8.2l-0.3,0.5
					c-0.8-4.2-1.5-8.3-2.2-12.4l0-0.3l0.2-0.2c3.6-2.8,6.8-6.1,9.4-9.6l0.2-0.2l0.3,0c4.3,0.7,8.4,1.4,12.4,2l-0.5,0.3
					c2.7-6.8,5.3-13.2,7.8-19.3l0.1,0.5c-3.6-2.5-7-4.9-10.3-7.2l-0.2-0.1l0-0.2c0.6-4.8,0.5-9.3-0.1-13.5l0-0.2l0.2-0.1
					c3.7-2.7,7.1-5.1,10.2-7.3l-0.1,0.4c-3.1-7.4-5.8-13.8-8.1-19.2l0.2,0.1c-5,0.9-9,1.6-12.4,2.2l-0.1,0l-0.1-0.1
					c-2.8-3.6-5.3-5.9-7-7.4c-0.8-0.7-1.5-1.3-1.9-1.6C716,553.2,715.8,553,715.8,553s0.2,0.2,0.7,0.5c0.4,0.3,1.1,0.8,2,1.6
					c1.7,1.5,4.3,3.7,7.1,7.4l-0.2-0.1c3.4-0.6,7.4-1.4,12.4-2.3l0.2,0l0.1,0.2c2.3,5.4,5,11.7,8.2,19.1l0.1,0.2l-0.2,0.1
					c-3.1,2.3-6.5,4.7-10.2,7.4l0.1-0.3c0.6,4.3,0.8,8.8,0.2,13.7l-0.2-0.3c3.3,2.3,6.7,4.6,10.4,7.1l0.3,0.2l-0.1,0.3
					c-2.4,6.1-5,12.5-7.7,19.3l-0.1,0.3l-0.3-0.1c-4-0.6-8.2-1.3-12.4-2l0.4-0.2c-2.7,3.6-5.9,6.9-9.6,9.8l0.2-0.4
					c0.7,4,1.5,8.2,2.3,12.4l0.1,0.4l-0.3,0.1c-6.2,2.7-12.6,5.4-19.1,8.2l-0.4,0.2l-0.2-0.3c-2.4-3.3-4.9-6.7-7.4-10.2l0.5,0.2
					c-4.5,0.7-9.1,0.7-13.7,0.2l0.5-0.2c-2.4,3.4-4.7,6.9-7.1,10.3l-0.2,0.3l-0.4-0.2c-6.3-2.5-12.8-5.1-19.3-7.8l-0.4-0.2l0.1-0.4
					c0.7-4.1,1.3-8.2,2-12.4l0.2,0.5l0,0c-3.8-2.8-7.1-6.1-9.8-9.6l0.5,0.2c-4.2,0.8-8.5,1.5-12.4,2.3l-0.4,0.1l-0.2-0.4
					c-2.8-6.6-5.6-13.1-8.2-19.1l-0.2-0.4l0.3-0.2c3.5-2.5,7-5.1,10.2-7.4l-0.2,0.5c-0.7-4.7-0.7-9.4-0.1-13.7l0.2,0.5
					c-3.6-2.5-7.1-4.9-10.3-7.2l-0.3-0.2l0.1-0.4c2.7-6.7,5.3-13.2,7.8-19.3l0.1-0.3l0.4,0.1c4.3,0.7,8.6,1.4,12.4,2l-0.4,0.2
					c2.9-3.8,6.2-7.2,9.6-9.8l-0.2,0.4c-0.8-4.3-1.5-8.5-2.2-12.4l-0.1-0.3l0.3-0.1c6.7-2.9,13.1-5.6,19.2-8.1l0.3-0.1l0.2,0.2
					c2.6,3.6,5.1,7,7.3,10.2l-0.3-0.1c4.8-0.7,9.4-0.6,13.6-0.1l-0.3,0.1c2.6-3.7,5-7.2,7.2-10.3l0.1-0.2l0.2,0.1
					c7.9,3.2,14.3,5.8,19.3,7.8l0.1,0l0,0.1c-0.7,4-1.2,7.1-1.6,9.2c-0.2,1-0.3,1.8-0.4,2.4C715.9,552.7,715.8,553,715.8,553z"/>
			</g>
		</g>
	</g>
</g>
<g>
	<g>
		<g>
			<g>
				<g>
					<path d="M622.4,857.8l-215.7-0.1c-25.9,0-47-21.1-47-47l0.1-540.8c0-26,21.1-47,47-47l215.7,0.1c25.9,0,47,21.1,47,47
						l-0.1,540.8C669.4,836.8,648.4,857.8,622.4,857.8z"/>
				</g>
			</g>
			<g>
				<g>
					<path class="st8" d="M622.3,242.1l-41.8,0c-5.6,0-10.2,4.8-10.2,10.6v7.6c0,5.9-4.6,10.6-10.2,10.6l-81.5,0
						c-5.6,0-10.2-4.8-10.2-10.6v-7.6c0-5.9-4.5-10.6-10.2-10.6l-14.7,0l-36.6,0c-18.2,0-32.9,14.7-32.9,32.9L374,802.8
						c0,18.2,14.7,32.9,32.9,32.9l215.3,0.1c18.2,0,32.9-14.7,32.9-32.9l0.1-527.9C655.2,256.9,640.5,242.2,622.3,242.1z"/>
				</g>
			</g>
		</g>
	</g>
	<g>
		<g>
			<g>
				<path class="st7" d="M631.8,295.4c0,0.2-5.4,0.4-12.1,0.4c-6.7,0.1-12.1,0-12.2-0.2c0-0.2,5.4-0.4,12.1-0.4
					C626.3,295.2,631.8,295.3,631.8,295.4z"/>
			</g>
		</g>
		<g>
			<g>
				<path class="st7" d="M631.8,301.7c0,0.2-5.4,0.4-12.1,0.4c-6.7,0.1-12.1,0-12.2-0.2c0-0.2,5.4-0.4,12.1-0.4
					S631.8,301.5,631.8,301.7z"/>
			</g>
		</g>
		<g>
			<g>
				<path class="st7" d="M631.9,307.9c0,0.2-5.4,0.4-12.1,0.4c-6.7,0.1-12.1,0-12.2-0.2c0-0.2,5.4-0.4,12.1-0.4
					C626.4,307.6,631.9,307.7,631.9,307.9z"/>
			</g>
		</g>
	</g>
	<g>
		<g>
			<path d="M401,315c0,0,0.2,0,0.5,0c0.4,0,0.9,0,1.4-0.1c1.4,0,3.1-0.1,5.2-0.1l-0.2,0.2c0-1.2,0-2.4-0.1-3.8c0-0.7-0.1-1.3,0-2.2
				c0.1-0.8,0.9-1.5,1.8-1.6c0.8,0,1.6-0.1,2.5,0c1,0.1,1.8,1,1.7,2c0,1.8,0,3.6,0.1,5.5l-0.3-0.3c2.1,0,4.3,0,6.5-0.1l-0.3,0.3
				c0-2.6,0-5.4-0.1-8.2c0-0.7,0-1.4,0-2.1c0-0.6-0.4-1-0.9-1.5c-1-1-1.9-1.9-2.9-2.8c-0.9-0.9-1.9-1.8-2.8-2.7
				c-0.4-0.4-0.9-0.9-1.3-1.3c-0.5-0.4-0.8-0.9-1.3-1c-0.5-0.1-1.1,0-1.5,0.3c-0.4,0.3-0.8,0.8-1.2,1.2c-0.8,0.8-1.6,1.6-2.3,2.4
				c-1.5,1.5-3,2.9-4.1,4.2c-0.5,0.7-0.3,1.6-0.3,2.4c0,0.8,0,1.6,0,2.3c0,1.4,0,2.6,0,3.7c0,0.9,0,1.7,0,2.4
				C401,314.7,401,315,401,315c0,0,0-0.3-0.1-0.8c0-0.7,0-1.4-0.1-2.3c0-1.1-0.1-2.3-0.1-3.7c0-0.7,0-1.5,0-2.4
				c0-0.8-0.2-1.8,0.3-2.7c1.2-1.5,2.7-2.8,4.1-4.4c0.8-0.8,1.5-1.6,2.3-2.4c0.4-0.4,0.8-0.8,1.3-1.3c0.5-0.4,1.3-0.6,1.9-0.4
				c0.7,0.2,1.2,0.7,1.6,1.1c0.4,0.4,0.9,0.9,1.3,1.3c0.9,0.9,1.8,1.8,2.8,2.7s1.9,1.9,2.9,2.8c0.5,0.4,1.1,1.1,1.1,1.9
				c0,0.7,0,1.4,0,2.1c0,2.8,0,5.5,0.1,8.2v0.3h-0.3c-2.3,0-4.4,0-6.5,0h-0.3v-0.3c0-1.9,0-3.7,0-5.5c0-0.8-0.6-1.5-1.3-1.5
				c-0.7,0-1.6,0-2.4,0c-0.7,0.1-1.3,0.6-1.4,1.2c-0.1,0.6,0,1.4,0,2.1c0,1.3,0,2.6,0,3.8v0.2h-0.2c-2.1,0-3.9,0-5.3-0.1
				c-0.5,0-1,0-1.4,0C401.1,315,400.9,315,401,315z"/>
		</g>
	</g>
</g>
<g>
	<path class="st0" d="M489.4,389.6c0,5.8-0.2,9.9-0.4,12.3c-0.3,2.4-1.2,4.6-2.8,6.6s-3.7,3.5-6.3,4.6c-2.7,1.1-5.8,1.6-9.3,1.6
		c-3.4,0-6.4-0.5-9.1-1.5c-2.7-1-4.8-2.5-6.5-4.6c-1.6-2-2.6-4.2-2.9-6.6c-0.3-2.4-0.5-6.5-0.5-12.5v-9.9c0-5.8,0.2-9.9,0.4-12.3
		c0.3-2.4,1.2-4.6,2.8-6.6c1.6-2,3.7-3.5,6.3-4.6c2.7-1.1,5.8-1.6,9.3-1.6c3.4,0,6.4,0.5,9.1,1.5c2.7,1,4.8,2.5,6.5,4.6
		c1.6,2,2.6,4.2,2.9,6.6c0.3,2.4,0.5,6.5,0.5,12.5V389.6z M473,370.5c0-2.7-0.2-4.4-0.5-5.2c-0.3-0.8-1-1.1-2-1.1
		c-0.9,0-1.5,0.3-2,0.9c-0.5,0.6-0.7,2.4-0.7,5.4v27c0,3.4,0.2,5.4,0.4,6.2c0.3,0.8,1,1.2,2.1,1.2c1.1,0,1.8-0.5,2.1-1.4
		c0.3-0.9,0.5-3.1,0.5-6.5L473,370.5L473,370.5z"/>
	<path d="M506.7,372.3l-0.3,3.8c1.3-1.5,2.8-2.7,4.3-3.4c1.6-0.8,3.3-1.1,5.2-1.1c2.3,0,4.3,0.5,5.9,1.6c1.7,1.1,2.7,2.3,3.1,3.7
		c0.4,1.4,0.6,3.8,0.6,7.2v17.9c0,3.9-0.3,6.6-0.8,8.2c-0.5,1.6-1.6,2.9-3.2,3.9c-1.6,1-3.6,1.5-5.8,1.5c-1.8,0-3.5-0.4-5.1-1.1
		c-1.6-0.8-3-1.9-4.3-3.3v9.7h-14.7v-48.5H506.7z M510.9,384.6c0-2.6-0.1-4.2-0.3-4.8c-0.2-0.6-0.8-0.8-1.8-0.8c-1,0-1.6,0.3-1.9,1
		c-0.3,0.6-0.4,2.2-0.4,4.6v17.6c0,2.6,0.1,4.2,0.4,4.8c0.3,0.6,0.9,1,1.9,1c1,0,1.5-0.3,1.8-0.9c0.2-0.6,0.3-2,0.3-4.3L510.9,384.6
		L510.9,384.6z"/>
	<path d="M562.8,394.7h-19.1v8.5c0,1.8,0.2,2.9,0.5,3.4c0.3,0.5,0.9,0.8,1.8,0.8c1.1,0,1.9-0.3,2.2-1c0.4-0.7,0.6-2,0.6-4v-5.2h14
		v2.9c0,2.4-0.2,4.3-0.6,5.6c-0.4,1.3-1.3,2.7-2.6,4.2c-1.4,1.5-3.1,2.6-5.3,3.3c-2.1,0.7-4.8,1.1-8,1.1c-3.1,0-5.9-0.4-8.2-1.1
		c-2.4-0.7-4.2-1.7-5.6-3c-1.3-1.3-2.2-2.7-2.8-4.2c-0.5-1.5-0.8-3.8-0.8-6.7V388c0-3.4,0.6-6.2,1.7-8.1c1.1-2,3-3.5,5.6-4.6
		c2.6-1.1,5.6-1.6,9-1.6c4.1,0,7.5,0.6,10.2,1.9c2.7,1.3,4.6,3,5.6,5.1c1.1,2.1,1.6,5.1,1.6,8.9L562.8,394.7L562.8,394.7z
		 M548,388.3v-2.9c0-2-0.1-3.4-0.4-3.9c-0.3-0.6-0.8-0.9-1.6-0.9c-1,0-1.7,0.3-1.9,0.8c-0.2,0.5-0.4,1.9-0.4,4.1v2.9L548,388.3
		L548,388.3z"/>
	<path class="st0" d="M566.4,355.9h15.8c5,0,8.8,0.4,11.3,1.1c2.6,0.7,4.6,2.2,6.2,4.5c1.6,2.2,2.4,5.9,2.4,10.9
		c0,3.4-0.6,5.7-1.7,7.1c-1.1,1.3-3.3,2.4-6.6,3.1c3.7,0.8,6.1,2.1,7.5,3.9c1.3,1.8,2,4.6,2,8.4v5.4c0,3.9-0.5,6.8-1.4,8.7
		c-0.9,1.9-2.4,3.2-4.5,3.9c-2.1,0.7-6.3,1-12.6,1h-18.3L566.4,355.9L566.4,355.9z M582.2,365.8v12.8c0.7,0,1.2,0,1.6,0
		c1.6,0,2.5-0.4,3-1.1c0.4-0.7,0.6-2.8,0.6-6.2c0-1.8-0.2-3.1-0.5-3.8c-0.4-0.7-0.8-1.2-1.4-1.4
		C584.9,365.9,583.9,365.8,582.2,365.8z M582.2,387.6v16.2c2.2-0.1,3.7-0.4,4.3-1c0.6-0.6,0.9-2.1,0.9-4.4V393c0-2.5-0.3-4-0.8-4.5
		C586,388,584.6,387.7,582.2,387.6z"/>
	<path d="M639.1,386.8V397c0,3.7-0.2,6.5-0.7,8.2c-0.4,1.7-1.4,3.4-2.8,4.9s-3.3,2.6-5.5,3.3c-2.2,0.7-4.8,1.1-7.7,1.1
		c-3.3,0-6-0.3-8.3-0.9c-2.3-0.6-4-1.5-5.3-2.8c-1.3-1.2-2.1-2.7-2.7-4.5c-0.5-1.8-0.8-4.4-0.8-7.9v-10.6c0-3.8,0.5-6.9,1.5-9
		c1-2.2,2.7-3.9,5.2-5.2c2.5-1.3,5.8-2,9.7-2c3.3,0,6.1,0.4,8.5,1.3c2.4,0.8,4.2,1.9,5.5,3.3c1.3,1.3,2.2,2.7,2.6,4.2
		C638.9,381.7,639.1,383.9,639.1,386.8z M624.4,383.7c0-2.1-0.1-3.5-0.4-4c-0.3-0.6-0.8-0.8-1.7-0.8s-1.5,0.3-1.7,0.8
		c-0.3,0.6-0.4,1.9-0.4,4v18.7c0,2,0.1,3.2,0.4,3.8c0.3,0.6,0.9,0.9,1.7,0.9c0.9,0,1.5-0.3,1.7-0.8c0.3-0.5,0.4-1.7,0.4-3.5V383.7z"
		/>
	<g>
		<path d="M489.9,432.9l-98.1-3.7c0,0,30.2-28.9,33-35.7l3,14.2l-11.2,17.9H457C466.3,429.5,477.5,432.5,489.9,432.9z"/>
		<path class="st0" d="M640.7,431.1v1.5c0,0-114.2,1.6-150.8,0.4c-12.4-0.4-23.6-3.5-32.9-7.3c-18-7.5-29.2-17.9-29.2-17.9l-3-14.2
			c0,0,5.5,9.3,39.7,26C498.8,436.2,620.7,429.4,640.7,431.1z"/>
	</g>
	<g>
		<g>
			<path d="M397.1,459.7c-1.1,0-2.1-0.3-3-0.9c-0.9-0.6-1.5-1.4-2-2.4c-0.5-1.1-0.7-2.3-0.7-3.7c0-1.5,0.2-2.9,0.7-4.4
				c0.5-1.5,1.2-2.9,2-4.3s1.8-2.6,2.9-3.6c1.1-1.1,2.2-1.9,3.4-2.5c1.2-0.6,2.3-0.9,3.5-0.9c0.4,0,0.7,0,1,0.1
				c0.3,0.1,0.6,0.1,0.8,0.3c-0.2,0-0.3,0-0.3,0c0,0-0.1,0-0.1,0c-1,0-2.1,0.3-3.2,1c-1.1,0.6-2.1,1.5-3,2.6c-1,1.1-1.8,2.3-2.6,3.7
				c-0.8,1.4-1.4,2.8-1.8,4.3c-0.4,1.5-0.7,2.9-0.7,4.3c0,1,0.1,1.9,0.4,2.8c0.3,0.9,0.7,1.6,1.3,2.1c0.6,0.5,1.4,0.8,2.3,0.8
				c1.1,0,2.2-0.3,3.2-1c1-0.6,1.9-1.5,2.7-2.6s1.5-2.3,2-3.7c0.6-1.4,1-2.8,1.3-4.2c0.3-1.5,0.5-2.9,0.5-4.2c0-0.5,0-1.1-0.1-1.7
				c-0.1-0.6-0.2-1.1-0.4-1.6c-0.2-0.4-0.5-0.6-0.8-0.6c-0.4,0-0.8,0.2-1.2,0.6s-0.8,1-1.2,1.6c-0.4,0.6-0.7,1.3-1,2
				c-0.3,0.7-0.5,1.3-0.6,1.8c-0.5-0.1-0.9-0.3-1.1-0.6c-0.2-0.3-0.3-0.5-0.3-0.8c0-0.5,0.2-1.1,0.6-1.7c0.4-0.6,0.8-1.2,1.4-1.8
				c0.6-0.6,1.2-1,1.8-1.4c0.6-0.4,1.2-0.6,1.7-0.6c0.5,0,0.9,0.2,1.3,0.5c0.3,0.4,0.6,0.8,0.8,1.4c0.2,0.6,0.3,1.2,0.4,1.8
				c0.1,0.6,0.1,1.2,0.1,1.8c0,2.1-0.2,3.9-0.7,5.6c-0.5,1.7-1.2,3.2-2,4.5s-1.8,2.4-2.8,3.2c-1,0.9-2.1,1.5-3.1,2
				C399.1,459.5,398,459.7,397.1,459.7z"/>
			<path d="M407.5,465.2c-0.2,0-0.3-0.1-0.5-0.2c-0.2-0.2-0.3-0.3-0.3-0.5c-0.1-0.2-0.1-0.3-0.1-0.3c0.3-0.9,0.6-1.7,0.8-2.5
				c0.3-0.7,0.5-1.5,0.8-2.2c0.3-0.8,0.5-1.7,0.8-2.7c0.3-1,0.5-2.3,0.8-3.8c0.3-1.5,0.6-3.4,0.8-5.7c0-0.2,0.1-0.3,0.1-0.4
				c0.1-0.1,0.2-0.1,0.4-0.1c0.5,0,0.9,0.1,1.1,0.4c0.2,0.3,0.3,0.6,0.3,0.9c0,0.3-0.1,0.7-0.2,1.4c-0.1,0.7-0.3,1.5-0.5,2.4
				c0.3-0.6,0.8-1.3,1.3-1.9c0.5-0.6,1.1-1.2,1.8-1.6c0.7-0.4,1.4-0.6,2.2-0.6c0.9,0,1.6,0.3,2.2,0.9c0.6,0.6,0.9,1.4,0.9,2.3
				c0,0.7-0.2,1.5-0.5,2.3c-0.4,0.8-0.8,1.6-1.5,2.3c-0.6,0.7-1.4,1.3-2.2,1.8c-0.9,0.5-1.8,0.7-2.9,0.7c-0.5,0-0.9-0.1-1.3-0.2
				c-0.3-0.1-0.5-0.2-0.5-0.3c0-0.1,0.1-0.1,0.2-0.1s0.3,0,0.5,0c0.8,0,1.6-0.2,2.3-0.6c0.7-0.4,1.4-0.9,2-1.5c0.6-0.6,1-1.3,1.4-2
				c0.3-0.7,0.5-1.5,0.5-2.2c0-0.6-0.1-1.1-0.4-1.5s-0.7-0.6-1.3-0.6c-0.5,0-1,0.2-1.5,0.5s-1,0.7-1.4,1.2c-0.4,0.5-0.9,1-1.2,1.5
				c-0.3,0.5-0.6,1-0.8,1.4c-0.4,1.4-0.7,2.8-1.1,4.1s-0.7,2.5-1,3.6c-0.3,1.1-0.6,1.9-0.9,2.6c-0.3,0.7-0.5,1.1-0.7,1.2
				C407.8,465.1,407.6,465.2,407.5,465.2z"/>
			<path d="M424.4,458.5c-1.2,0-2.1-0.3-2.7-1c-0.6-0.6-0.9-1.4-0.9-2.3c0-0.8,0.2-1.7,0.7-2.7c0.4-0.9,1.1-1.8,1.8-2.7
				c0.8-0.8,1.6-1.5,2.5-2c0.9-0.5,1.8-0.8,2.7-0.8c0.5,0,0.9,0.1,1.3,0.3c0.4,0.2,0.6,0.7,0.6,1.4c0,0.7-0.2,1.4-0.7,2
				c-0.4,0.6-1,1.2-1.8,1.7c-0.7,0.5-1.5,0.9-2.4,1.2c-0.9,0.3-1.7,0.5-2.6,0.6c0,0.2-0.1,0.4-0.1,0.5c0,0.2,0,0.3,0,0.5
				c0,0.3,0,0.6,0.1,0.8c0.1,0.3,0.2,0.5,0.4,0.8c0.2,0.2,0.4,0.4,0.7,0.6c0.3,0.1,0.7,0.2,1.2,0.2c0.9,0,1.7-0.2,2.6-0.7
				c0.8-0.5,1.6-1.1,2.3-1.8c0.7-0.8,1.3-1.6,1.8-2.5l0.4,0.3c-0.5,1.1-1.2,2.1-2.1,2.9c-0.8,0.8-1.7,1.5-2.7,1.9
				C426.3,458.3,425.4,458.5,424.4,458.5z M422.9,453.7c0.5-0.2,1.2-0.4,1.8-0.8c0.7-0.3,1.3-0.7,2-1.2c0.6-0.5,1.2-1,1.6-1.5
				c0.4-0.5,0.6-1.1,0.6-1.7c0-0.2,0-0.4-0.1-0.5s-0.2-0.2-0.5-0.2c-0.5,0-1,0.2-1.5,0.5c-0.5,0.4-1.1,0.8-1.6,1.4
				c-0.5,0.6-1,1.2-1.3,1.9C423.4,452.4,423.1,453.1,422.9,453.7z"/>
			<path d="M440.8,457.8c-0.7,0-1.2-0.2-1.6-0.5c-0.4-0.3-0.5-0.8-0.5-1.3c0-0.4,0.1-0.8,0.2-1.2c0.2-0.4,0.3-0.9,0.4-1.3
				s0.2-0.9,0.2-1.3c0-0.5-0.1-0.9-0.3-1.1c-0.2-0.2-0.5-0.3-0.9-0.3c-0.6,0-1.3,0.2-1.9,0.7c-0.6,0.5-1.3,1.1-1.9,1.8
				c-0.6,0.7-1.2,1.5-1.7,2.3c-0.5,0.8-1,1.5-1.4,2.1c-0.3,0-0.6-0.1-0.9-0.2c-0.3-0.1-0.5-0.3-0.7-0.5c0-0.1,0.1-0.4,0.3-0.9
				c0.2-0.5,0.5-1.1,0.7-1.8c0.3-0.7,0.5-1.5,0.8-2.2c0.2-0.8,0.3-1.4,0.3-2.1c0.1-0.1,0.3-0.3,0.6-0.4c0.3-0.1,0.5-0.2,0.8-0.2
				c0.5,0,0.8,0.2,0.8,0.7c0,0.3-0.1,0.8-0.3,1.5c-0.2,0.7-0.4,1.4-0.7,2.2c0.5-0.8,1.1-1.5,1.8-2.3c0.7-0.8,1.4-1.4,2.1-1.9
				c0.8-0.5,1.5-0.8,2.3-0.8c0.8,0,1.3,0.3,1.7,0.8c0.4,0.5,0.5,1.1,0.5,1.8c0,0.6-0.1,1.1-0.3,1.6c-0.2,0.5-0.4,1-0.6,1.4
				s-0.3,0.9-0.3,1.4c0,0.4,0.1,0.7,0.3,0.8c0.2,0.2,0.4,0.2,0.6,0.2c0.5,0,1-0.2,1.5-0.7s1-1,1.5-1.7s0.9-1.4,1.2-2.1l0.3,0.4
				c-0.4,0.9-0.9,1.7-1.4,2.5c-0.5,0.7-1.1,1.3-1.7,1.7C442.3,457.6,441.6,457.8,440.8,457.8z"/>
			<path d="M447.3,458c-0.8,0-1.4-0.2-1.7-0.7s-0.6-1-0.6-1.7c0-0.4,0.1-1,0.3-1.6c0.2-0.7,0.4-1.3,0.7-2.1c0.3-0.7,0.6-1.4,1-2.1
				c0.4-0.6,0.8-1.2,1.2-1.6c0.4-0.4,0.8-0.6,1.2-0.6c0.2,0,0.3,0,0.5,0.2c0.1,0.1,0.2,0.3,0.2,0.5c0,0.2-0.2,0.6-0.5,1.1
				c-0.3,0.5-0.7,1.1-1.1,1.8c-0.4,0.7-0.8,1.3-1.1,2.1c-0.3,0.7-0.5,1.4-0.5,2.1c0,0.7,0.1,1.1,0.4,1.4c0.2,0.2,0.6,0.3,1.1,0.3
				c0.7,0,1.4-0.3,2.2-1c0.8-0.6,1.6-1.8,2.4-3.4l0.3,0.3c-0.6,1.6-1.4,2.9-2.5,3.7C449.6,457.6,448.4,458,447.3,458z M450.9,445
				c-0.3,0-0.6-0.1-0.9-0.2c-0.2-0.2-0.4-0.4-0.4-0.7c0-0.4,0.2-0.7,0.7-1c0.5-0.3,1-0.4,1.5-0.4c0.3,0,0.5,0.1,0.7,0.2
				c0.2,0.1,0.3,0.4,0.3,0.7c0,0.4-0.2,0.7-0.6,1C451.8,444.9,451.3,445,450.9,445z"/>
			<path d="M462,457.8c-0.7,0-1.2-0.2-1.6-0.5c-0.4-0.3-0.5-0.8-0.5-1.3c0-0.4,0.1-0.8,0.2-1.2c0.2-0.4,0.3-0.9,0.4-1.3
				s0.2-0.9,0.2-1.3c0-0.5-0.1-0.9-0.3-1.1c-0.2-0.2-0.5-0.3-0.9-0.3c-0.6,0-1.3,0.2-1.9,0.7c-0.6,0.5-1.3,1.1-1.9,1.8
				c-0.6,0.7-1.2,1.5-1.7,2.3c-0.5,0.8-1,1.5-1.4,2.1c-0.3,0-0.6-0.1-0.9-0.2c-0.3-0.1-0.5-0.3-0.7-0.5c0-0.1,0.1-0.4,0.3-0.9
				c0.2-0.5,0.5-1.1,0.7-1.8c0.3-0.7,0.5-1.5,0.8-2.2c0.2-0.8,0.3-1.4,0.3-2.1c0.1-0.1,0.3-0.3,0.6-0.4c0.3-0.1,0.5-0.2,0.8-0.2
				c0.5,0,0.8,0.2,0.8,0.7c0,0.3-0.1,0.8-0.3,1.5c-0.2,0.7-0.4,1.4-0.7,2.2c0.5-0.8,1.1-1.5,1.8-2.3c0.7-0.8,1.4-1.4,2.1-1.9
				c0.8-0.5,1.5-0.8,2.3-0.8c0.8,0,1.3,0.3,1.7,0.8c0.4,0.5,0.5,1.1,0.5,1.8c0,0.6-0.1,1.1-0.3,1.6c-0.2,0.5-0.4,1-0.6,1.4
				s-0.3,0.9-0.3,1.4c0,0.4,0.1,0.7,0.3,0.8s0.4,0.2,0.6,0.2c0.5,0,1-0.2,1.5-0.7s1-1,1.5-1.7s0.9-1.4,1.2-2.1l0.3,0.4
				c-0.4,0.9-0.9,1.7-1.4,2.5c-0.5,0.7-1.1,1.3-1.7,1.7C463.5,457.6,462.8,457.8,462,457.8z"/>
			<path d="M467.5,465.2c-0.4,0-0.8-0.1-1.2-0.4c-0.4-0.3-0.5-0.7-0.5-1.3c0-0.6,0.2-1.1,0.6-1.6c0.4-0.5,0.8-0.9,1.4-1.3
				c0.6-0.4,1.2-0.8,1.9-1.1c0.7-0.3,1.3-0.7,2-1c0.3-0.7,0.5-1.4,0.8-2.1c0.2-0.8,0.5-1.6,0.7-2.5c-0.8,1-1.6,1.9-2.4,2.6
				c-0.8,0.7-1.7,1-2.5,1c-0.7,0-1.3-0.3-1.7-0.8c-0.4-0.5-0.6-1.2-0.6-2c0-1,0.3-1.9,0.8-2.8c0.5-0.9,1.2-1.7,2-2.3
				c0.8-0.7,1.7-1.2,2.6-1.6s1.8-0.6,2.6-0.6c0.6,0,1,0.1,1.2,0.3c0.2,0.2,0.4,0.4,0.4,0.6c0,0.2,0,0.3-0.2,0.4
				c-0.1,0.1-0.2,0.2-0.2,0.2c-0.1-0.2-0.2-0.3-0.4-0.3c-0.2-0.1-0.4-0.1-0.8-0.1c-0.8,0-1.5,0.2-2.3,0.6s-1.4,1-1.9,1.7
				c-0.6,0.7-1,1.4-1.3,2.1c-0.3,0.7-0.5,1.4-0.5,2c0,0.5,0.1,0.8,0.3,1c0.2,0.2,0.4,0.4,0.8,0.4c0.6,0,1.3-0.4,2.1-1.1
				c0.8-0.7,1.6-1.6,2.4-2.6c0.1-0.3,0.1-0.5,0.2-0.7c0-0.2,0.1-0.5,0.2-0.8c0.1-0.3,0.2-0.6,0.4-0.9c0.2-0.4,0.6-0.5,1.1-0.5
				c0.1,0,0.2,0,0.3,0c0.1,0,0.2,0,0.3,0.1c0,0.3-0.1,0.9-0.3,1.7c-0.2,0.8-0.5,1.7-0.8,2.8c-0.4,1.1-0.8,2.2-1.2,3.3
				c0.7-0.3,1.3-0.7,1.9-1.2c0.6-0.5,1.2-1,1.7-1.6s0.9-1.3,1.2-2l0.4,0.3c-0.3,0.8-0.8,1.6-1.4,2.3c-0.7,0.7-1.4,1.3-2.1,1.8
				c-0.8,0.5-1.4,0.9-2.1,1.2c-0.6,1.3-1.2,2.4-1.8,3.5c-0.6,1-1.3,1.9-1.9,2.5C468.9,464.9,468.2,465.2,467.5,465.2z M467.4,464.3
				c0.4,0,0.9-0.4,1.6-1.1c0.7-0.7,1.4-2,2.2-3.8c-0.8,0.4-1.5,0.8-2.2,1.2c-0.7,0.4-1.3,0.8-1.7,1.3c-0.4,0.5-0.7,1-0.7,1.5
				c0,0.3,0.1,0.5,0.2,0.7C467,464.2,467.2,464.3,467.4,464.3z"/>
			<path d="M488.4,458.6c-0.9,0-1.5-0.2-2-0.7c-0.5-0.5-0.7-1.2-0.7-2.1c0-0.6,0.1-1.2,0.3-2c0.2-0.8,0.4-1.6,0.7-2.5
				c0.3-0.9,0.6-1.8,0.9-2.6c-0.2,0-0.4-0.1-0.6-0.2c-0.2-0.1-0.4-0.2-0.5-0.2v-0.5c0.2,0,0.4,0.1,0.6,0.1c0.2,0.1,0.5,0.1,0.8,0.1
				c0.6-1.4,1.2-2.6,1.8-3.8c0.6-1.2,1.2-2.1,1.8-2.8c0.6-0.7,1.1-1,1.5-1c0.2,0,0.3,0.1,0.4,0.2c0.1,0.1,0.2,0.3,0.2,0.5
				c0,0.2-0.1,0.5-0.2,0.8c-0.2,0.4-0.4,0.8-0.7,1.2s-0.6,1-0.9,1.6c-0.3,0.6-0.7,1.2-1.1,1.8c-0.4,0.6-0.7,1.3-1.1,2
				c0.5,0.1,1,0.1,1.5,0.2s1,0.1,1.5,0.1c0.5,0,1.1,0,1.7-0.1c0.6-0.1,1.3-0.2,2.1-0.3c0.5-1.3,1.1-2.7,1.8-4c0.6-1.3,1.3-2.5,2-3.6
				c0.7-1.1,1.3-1.9,1.9-2.6c0.6-0.6,1.1-1,1.6-1c0.4,0,0.6,0.2,0.8,0.6c0.2,0.4,0.2,0.8,0.2,1.2c0,0.7-0.2,1.4-0.5,2.3
				c-0.4,0.9-0.8,1.8-1.4,2.8c-0.6,1-1.3,1.8-2.1,2.7c-0.8,0.8-1.6,1.5-2.5,2c-0.3,0.7-0.6,1.5-0.9,2.5c-0.2,0.9-0.4,1.9-0.5,2.8
				s-0.1,1.7,0,2.3c0.5-1.3,1-2.5,1.6-3.6c0.6-1.1,1.3-2,2-2.7s1.6-1,2.4-1c0.8,0,1.4,0.3,1.8,0.8s0.5,1.1,0.5,1.7
				c0,0.6-0.1,1.2-0.3,1.7c-0.2,0.6-0.4,1.1-0.6,1.6c-0.2,0.5-0.3,1-0.3,1.5c0,0.4,0.1,0.6,0.3,0.8c0.2,0.2,0.4,0.3,0.6,0.3
				c0.5,0,1-0.2,1.5-0.6c0.6-0.4,1.1-1,1.7-1.7s1-1.4,1.4-2.2l0.4,0.3c-0.4,0.9-0.9,1.8-1.5,2.5c-0.6,0.7-1.3,1.3-2,1.8
				c-0.7,0.4-1.5,0.6-2.3,0.6c-0.7,0-1.2-0.2-1.5-0.5c-0.4-0.3-0.5-0.8-0.5-1.3c0-0.4,0.1-0.8,0.2-1.3c0.2-0.5,0.3-1,0.5-1.5
				s0.2-1,0.2-1.4c0-0.5-0.1-0.8-0.3-1c-0.2-0.2-0.5-0.3-0.8-0.3c-0.5,0-1,0.2-1.3,0.6c-0.4,0.4-0.8,0.9-1.1,1.5
				c-0.3,0.6-0.6,1.2-0.9,1.9c-0.3,0.7-0.6,1.3-0.8,1.9c-0.3,0.6-0.5,1.1-0.8,1.5s-0.5,0.6-0.8,0.6c-0.2,0-0.4-0.1-0.6-0.3
				c-0.2-0.2-0.3-0.5-0.4-0.9c-0.1-0.4-0.2-0.8-0.2-1.3c0-0.5,0-1,0.1-1.6c-0.8,1.3-1.7,2.3-2.8,3.1
				C490.7,458.1,489.6,458.6,488.4,458.6z M489.2,457.5c1,0,2.1-0.4,3.1-1.3c1-0.9,1.9-2,2.6-3.5c0.1-0.6,0.3-1.2,0.4-1.8
				s0.4-1.2,0.6-1.9c-0.7,0.2-1.3,0.3-1.9,0.3c-0.6,0.1-1.2,0.1-1.8,0.1s-1.1,0-1.6-0.1c-0.5-0.1-1-0.1-1.5-0.2
				c-0.5,1-0.9,2-1.2,3.1c-0.3,1.1-0.5,2.1-0.5,3.1c0,0.8,0.1,1.4,0.4,1.7C488.2,457.3,488.6,457.5,489.2,457.5z M498.4,447.5
				c0.7-0.5,1.4-1.2,2-1.9c0.6-0.7,1.2-1.5,1.6-2.3c0.5-0.8,0.9-1.5,1.1-2.2c0.3-0.7,0.4-1.2,0.4-1.5c0-0.2,0-0.2-0.1-0.2
				c-0.1,0-0.4,0.2-0.8,0.6s-0.9,1-1.4,1.7c-0.5,0.7-1,1.6-1.5,2.6C499.2,445.3,498.8,446.3,498.4,447.5z"/>
			<path d="M511.9,458.5c-1.2,0-2.1-0.3-2.7-1c-0.6-0.6-0.9-1.4-0.9-2.3c0-0.8,0.2-1.7,0.7-2.7c0.4-0.9,1.1-1.8,1.8-2.7
				c0.8-0.8,1.6-1.5,2.5-2c0.9-0.5,1.8-0.8,2.7-0.8c0.5,0,0.9,0.1,1.3,0.3c0.4,0.2,0.6,0.7,0.6,1.4c0,0.7-0.2,1.4-0.7,2
				c-0.5,0.6-1,1.2-1.8,1.7c-0.7,0.5-1.5,0.9-2.4,1.2c-0.9,0.3-1.7,0.5-2.6,0.6c0,0.2-0.1,0.4-0.1,0.5c0,0.2,0,0.3,0,0.5
				c0,0.3,0,0.6,0.1,0.8c0.1,0.3,0.2,0.5,0.4,0.8c0.2,0.2,0.4,0.4,0.7,0.6c0.3,0.1,0.7,0.2,1.2,0.2c0.9,0,1.7-0.2,2.6-0.7
				s1.6-1.1,2.3-1.8s1.3-1.6,1.8-2.5l0.4,0.3c-0.5,1.1-1.2,2.1-2.1,2.9c-0.8,0.8-1.7,1.5-2.7,1.9
				C513.9,458.3,512.9,458.5,511.9,458.5z M510.5,453.7c0.5-0.2,1.2-0.4,1.8-0.8c0.7-0.3,1.3-0.7,2-1.2c0.6-0.5,1.2-1,1.6-1.5
				c0.4-0.6,0.6-1.1,0.6-1.7c0-0.2,0-0.4-0.1-0.5c-0.1-0.1-0.2-0.2-0.5-0.2c-0.5,0-1,0.2-1.5,0.5c-0.5,0.4-1.1,0.8-1.6,1.4
				c-0.5,0.6-1,1.2-1.3,1.9C511,452.4,510.7,453.1,510.5,453.7z"/>
			<path d="M529.3,459.3c-1,0-1.8-0.3-2.3-1c-0.5-0.6-0.8-1.5-0.8-2.6c0-0.9,0.2-2.1,0.5-3.3c0.3-1.3,0.8-2.6,1.3-4
				c0.6-1.4,1.2-2.8,1.9-4.1c0.7-1.3,1.4-2.5,2.1-3.6c0.7-1.1,1.4-1.9,2-2.6c0.6-0.6,1.1-1,1.5-1c0.3,0,0.6,0.2,0.7,0.6
				c0.2,0.4,0.2,0.8,0.2,1.2c0,0.5-0.1,1.2-0.4,1.9c-0.2,0.8-0.6,1.6-1,2.4c-0.4,0.9-1,1.7-1.5,2.5c-0.6,0.8-1.2,1.6-1.9,2.3
				c-0.7,0.7-1.4,1.2-2.1,1.6c-0.1,0.2-0.3,0.6-0.5,1.3c-0.2,0.6-0.4,1.4-0.6,2.2c-0.2,0.8-0.3,1.7-0.3,2.4c0,0.8,0.1,1.4,0.4,1.9
				c0.2,0.5,0.7,0.8,1.3,0.8c0.6,0,1.2-0.2,1.8-0.7c0.6-0.4,1.1-1,1.5-1.7c-0.7-0.4-1.3-0.9-1.7-1.6c-0.4-0.7-0.5-1.4-0.5-2.1
				c0-0.9,0.2-1.6,0.8-2.2c0.5-0.5,1.1-0.8,1.8-0.8c0.6,0,1,0.2,1.4,0.7c0.3,0.4,0.5,1.1,0.5,1.9c0,0.6-0.1,1.3-0.3,1.9
				c-0.2,0.7-0.4,1.3-0.8,1.9c0.1,0,0.2,0,0.4,0.1c0.1,0,0.3,0,0.4,0c0.7,0,1.3-0.2,1.8-0.5c0.5-0.3,0.9-0.7,1.2-1.2
				c0.3-0.5,0.6-0.9,0.8-1.4l0.4,0.4c-0.6,1.3-1.2,2.2-2,2.6c-0.8,0.4-1.5,0.6-2.3,0.6c-0.2,0-0.3,0-0.5,0c-0.2,0-0.3,0-0.5-0.1
				c-0.5,0.9-1.2,1.6-2,2.2C531.3,459,530.3,459.3,529.3,459.3z M530,448.5c0.6-0.4,1.1-0.9,1.6-1.6c0.5-0.6,1-1.3,1.5-2.1
				c0.5-0.7,0.9-1.4,1.2-2.1c0.4-0.7,0.6-1.3,0.8-1.9c0.2-0.6,0.3-1,0.3-1.3c0-0.1,0-0.2,0-0.2c0,0,0,0-0.1,0
				c-0.2,0-0.5,0.3-0.9,0.8c-0.4,0.5-1,1.3-1.5,2.1c-0.6,0.9-1.1,1.9-1.6,3C530.7,446.4,530.3,447.4,530,448.5z M533.4,455.3
				c0.2-0.4,0.4-0.9,0.5-1.4s0.2-1,0.2-1.5c0-0.7-0.1-1.2-0.3-1.6c-0.2-0.4-0.4-0.6-0.7-0.6c-0.3,0-0.6,0.2-0.8,0.6
				c-0.2,0.4-0.3,0.9-0.3,1.5c0,0.5,0.1,1,0.3,1.6C532.6,454.5,532.9,455,533.4,455.3z"/>
			<path d="M540.4,458.2c-0.9,0-1.5-0.2-1.8-0.8c-0.4-0.5-0.5-1.1-0.5-1.8c0-0.6,0.1-1.2,0.3-1.8c0.2-0.6,0.5-1.2,0.8-1.8
				c0.3-0.5,0.7-1,1.1-1.3c0.4-0.3,0.8-0.5,1.2-0.5c0.1,0,0.2,0,0.3,0c0.1,0,0.2,0.1,0.3,0.1c-0.2,0.2-0.4,0.4-0.6,0.8
				c-0.2,0.4-0.5,0.9-0.7,1.4c-0.2,0.5-0.4,1-0.6,1.5c-0.2,0.5-0.2,0.9-0.2,1.3c0,0.6,0.1,1,0.3,1.2c0.2,0.3,0.5,0.4,0.8,0.4
				c0.4,0,0.9-0.2,1.5-0.6s1.2-1,1.7-1.6c-0.6-0.4-1-1-1.3-1.7c-0.3-0.7-0.5-1.4-0.5-2.2c0-0.6,0.1-1.2,0.3-1.8c0.2-0.5,0.6-1,1-1.3
				c0.4-0.3,1-0.5,1.6-0.5c0.8,0,1.4,0.2,1.7,0.6c0.3,0.4,0.4,0.9,0.4,1.6c0,0.7-0.2,1.5-0.6,2.4c-0.4,0.9-0.9,1.8-1.4,2.6
				c0.4,0.2,0.7,0.3,1.1,0.3c0.3,0,0.7-0.1,1.1-0.2c0.4-0.1,0.8-0.3,1.2-0.6c0.4-0.3,0.7-0.7,0.9-1.2l0.4,0.3
				c-0.4,0.9-1,1.5-1.7,1.9s-1.4,0.6-2.1,0.6c-0.3,0-0.5,0-0.8-0.1c-0.2,0-0.5-0.1-0.7-0.2c-0.7,0.8-1.4,1.6-2.2,2.1
				C542,457.8,541.1,458.2,540.4,458.2z M544.8,454c0.5-0.7,0.9-1.4,1.2-2.2c0.3-0.8,0.5-1.5,0.5-2.2c0-0.5-0.1-1-0.3-1.2
				c-0.2-0.2-0.4-0.4-0.6-0.4c-0.4,0-0.8,0.3-1.2,0.8c-0.4,0.6-0.6,1.2-0.6,2.1c0,0.6,0.1,1.1,0.3,1.7
				C544.2,453.2,544.5,453.6,544.8,454z"/>
			<path d="M551.5,458.1c-0.7,0-1.2-0.3-1.6-0.9c-0.4-0.6-0.6-1.2-0.6-2c0-0.5,0.1-1.2,0.3-1.9c0.2-0.7,0.4-1.4,0.7-2.1
				c0.3-0.7,0.6-1.3,0.9-1.7c0.3-0.5,0.6-0.7,0.8-0.7c0.1,0,0.3,0.1,0.5,0.2c0.2,0.1,0.4,0.2,0.6,0.4c-0.2,0.3-0.5,0.8-0.8,1.5
				c-0.3,0.7-0.6,1.4-0.8,2.1c-0.2,0.8-0.4,1.5-0.4,2.1c0,0.2,0,0.4,0.1,0.7s0.1,0.6,0.3,0.8c0.2,0.2,0.4,0.4,0.7,0.4
				c0.4,0,0.8-0.2,1.2-0.6c0.4-0.4,0.8-0.8,1.2-1.4s0.8-1.2,1.2-1.9c0.4-0.7,0.7-1.3,1.1-1.9c0.3-0.6,0.6-1.1,0.8-1.6
				c0.1,0,0.3,0.1,0.5,0.1c0.2,0.1,0.4,0.1,0.6,0.2c0.2,0.1,0.3,0.2,0.3,0.4c0,0.1-0.1,0.3-0.3,0.8c-0.2,0.4-0.4,0.9-0.7,1.6
				c-0.3,0.6-0.5,1.2-0.7,1.9c-0.2,0.6-0.3,1.2-0.3,1.6c0,0.3,0.1,0.6,0.2,0.8c0.2,0.2,0.4,0.3,0.8,0.3c0.4,0,0.9-0.2,1.5-0.5
				c0.6-0.4,1.2-0.9,1.8-1.6c0.6-0.7,1.2-1.5,1.7-2.5l0.4,0.3c-0.4,1-1,1.9-1.7,2.7c-0.7,0.8-1.4,1.4-2.2,1.8
				c-0.8,0.4-1.5,0.6-2.2,0.6c-0.5,0-0.9-0.1-1.2-0.3c-0.3-0.2-0.5-0.4-0.7-0.8c-0.1-0.3-0.2-0.7-0.2-1c0-0.2,0-0.5,0.1-0.7
				c0-0.2,0.1-0.5,0.2-0.7c-0.4,0.6-0.8,1.2-1.2,1.7s-0.9,1-1.3,1.3C552.5,457.9,552,458.1,551.5,458.1z"/>
			<path d="M572.1,457.8c-0.7,0-1.2-0.2-1.6-0.5c-0.3-0.3-0.5-0.8-0.5-1.3c0-0.4,0.1-0.8,0.2-1.2c0.2-0.4,0.3-0.9,0.4-1.3
				s0.2-0.9,0.2-1.3c0-0.5-0.1-0.9-0.3-1.1c-0.2-0.2-0.5-0.3-0.9-0.3c-0.6,0-1.3,0.2-1.9,0.7c-0.6,0.5-1.3,1.1-1.9,1.8
				c-0.6,0.7-1.2,1.5-1.7,2.3c-0.5,0.8-1,1.5-1.4,2.1c-0.3,0-0.6-0.1-0.9-0.2c-0.3-0.1-0.5-0.3-0.7-0.5c0-0.1,0.1-0.4,0.3-0.9
				c0.2-0.5,0.5-1.1,0.7-1.8c0.3-0.7,0.5-1.5,0.8-2.2c0.2-0.8,0.3-1.4,0.3-2.1c0.1-0.1,0.3-0.3,0.6-0.4c0.3-0.1,0.5-0.2,0.8-0.2
				c0.5,0,0.8,0.2,0.8,0.7c0,0.3-0.1,0.8-0.3,1.5c-0.2,0.7-0.4,1.4-0.7,2.2c0.5-0.8,1.1-1.5,1.8-2.3c0.7-0.8,1.4-1.4,2.1-1.9
				c0.8-0.5,1.5-0.8,2.3-0.8c0.8,0,1.3,0.3,1.7,0.8c0.4,0.5,0.5,1.1,0.5,1.8c0,0.6-0.1,1.1-0.3,1.6s-0.4,1-0.6,1.4
				c-0.2,0.5-0.3,0.9-0.3,1.4c0,0.4,0.1,0.7,0.3,0.8s0.4,0.2,0.6,0.2c0.5,0,1-0.2,1.5-0.7c0.5-0.4,1-1,1.5-1.7
				c0.5-0.7,0.9-1.4,1.2-2.1l0.3,0.4c-0.4,0.9-0.9,1.7-1.4,2.5c-0.5,0.7-1.1,1.3-1.7,1.7C573.6,457.6,572.9,457.8,572.1,457.8z"/>
			<path d="M578.2,458.1c-0.3,0-0.7-0.1-1-0.2c-0.4-0.2-0.6-0.4-0.9-0.8c-0.2-0.4-0.3-0.8-0.3-1.4c0-0.6,0.2-1.3,0.5-2.1
				c0.3-0.8,0.8-1.5,1.3-2.3c0.5-0.8,1.2-1.5,1.9-2.1c0.7-0.7,1.4-1.2,2.2-1.6c0.8-0.4,1.5-0.6,2.3-0.6c0.4,0,0.7,0.1,1,0.2
				c0.2,0.1,0.3,0.4,0.3,0.7c0,0.1,0,0.1,0,0.2c0,0.1,0,0.1,0,0.2c-0.1-0.2-0.2-0.3-0.4-0.3c-0.2-0.1-0.4-0.1-0.7-0.1
				c-0.6,0-1.3,0.2-1.9,0.6c-0.6,0.4-1.2,0.8-1.7,1.4c-0.5,0.6-1,1.2-1.3,1.9c-0.4,0.7-0.7,1.3-0.9,2s-0.3,1.2-0.3,1.6
				c0,0.4,0.1,0.7,0.3,1c0.2,0.2,0.5,0.4,0.8,0.4c0.5,0,1.2-0.3,2-1c0.8-0.6,1.6-1.5,2.4-2.7c0.8-1.2,1.5-2.5,2.2-4.1
				c0.4-1.1,0.9-2.2,1.4-3.3c0.5-1.1,0.9-2.2,1.4-3.3c0.5-1,0.9-2,1.4-2.8c0.4-0.8,0.9-1.5,1.3-1.9s0.8-0.7,1.1-0.7
				c0.2,0,0.3,0.1,0.4,0.2s0.2,0.3,0.2,0.5c0,0.3-0.2,0.8-0.5,1.5c-0.3,0.7-0.8,1.6-1.3,2.6c-0.5,1-1.1,2.1-1.7,3.3
				c-0.6,1.2-1.1,2.4-1.7,3.6c-0.5,1.2-1,2.4-1.3,3.5c-0.3,1.1-0.5,2.2-0.5,3.1c0,0.5,0,0.9,0.1,1.2c0.1,0.3,0.3,0.4,0.6,0.4
				c0.4,0,0.9-0.2,1.5-0.5c0.6-0.3,1.1-0.8,1.7-1.4c0.6-0.6,1.1-1.4,1.5-2.2l0.4,0.3c-0.4,1-0.9,1.8-1.6,2.6s-1.4,1.4-2.1,1.8
				c-0.8,0.4-1.5,0.7-2.1,0.7c-0.7,0-1.3-0.2-1.5-0.7c-0.3-0.5-0.4-0.9-0.4-1.4c0-0.3,0-0.7,0.2-1.3s0.2-1.1,0.4-1.8
				c-0.6,1-1.3,1.9-2,2.7c-0.7,0.8-1.4,1.4-2.1,1.9C579.4,457.9,578.8,458.1,578.2,458.1z"/>
			<path d="M592,458.6c-0.6,0-1.2-0.2-1.6-0.6c-0.4-0.4-0.6-1-0.6-1.8c0-0.7,0.2-1.4,0.5-2.2c0.3-0.8,0.8-1.6,1.3-2.3
				c0.6-0.8,1.2-1.5,1.9-2.1c0.7-0.6,1.5-1.1,2.3-1.5s1.6-0.6,2.4-0.6c0.8,0,1.4,0.2,1.9,0.6c0.5,0.4,0.8,0.9,0.8,1.5
				c0,0.5-0.1,0.8-0.4,1s-0.6,0.3-1.1,0.3c0-0.2,0.1-0.3,0.1-0.5c0-0.2,0-0.3,0-0.5c0-0.4-0.1-0.8-0.3-1.1c-0.2-0.3-0.6-0.5-1.1-0.5
				c-0.6,0-1.1,0.2-1.7,0.6c-0.6,0.4-1.1,0.9-1.7,1.5c-0.5,0.6-1,1.3-1.4,2c-0.4,0.7-0.8,1.4-1,2.1c-0.2,0.7-0.4,1.3-0.4,1.9
				c0,0.7,0.3,1.1,0.8,1.1c0.5,0,1-0.2,1.5-0.6c0.5-0.4,1.1-0.9,1.7-1.6c0.6-0.6,1.1-1.3,1.6-2s1-1.3,1.4-1.9
				c0.1-0.1,0.1-0.2,0.2-0.2c0.1,0,0.3,0.1,0.5,0.1s0.4,0.1,0.5,0.2c0.1,0.1,0.2,0.2,0.2,0.4c0,0.2-0.1,0.4-0.3,0.7
				c-0.2,0.3-0.4,0.6-0.6,1c-0.2,0.4-0.4,0.8-0.6,1.1c-0.2,0.4-0.3,0.8-0.3,1.1c0,0.3,0.1,0.6,0.2,0.8c0.2,0.3,0.4,0.4,0.8,0.4
				c0.5,0,1.3-0.4,2.1-1.1c0.9-0.7,1.8-1.9,2.7-3.4l0.3,0.3c-0.4,1-1,1.9-1.6,2.7c-0.7,0.8-1.4,1.4-2.1,1.8
				c-0.8,0.4-1.5,0.6-2.2,0.6c-0.7,0-1.3-0.2-1.6-0.6c-0.4-0.4-0.5-0.9-0.5-1.4c0-0.1,0-0.2,0-0.4c0-0.1,0-0.3,0.1-0.4
				c-0.9,1.1-1.6,1.9-2.4,2.5C593.5,458.3,592.8,458.6,592,458.6z"/>
			<path d="M608.9,458c-0.7,0-1.2-0.2-1.6-0.5c-0.4-0.3-0.6-0.8-0.6-1.3c0-0.6,0.1-1.2,0.4-1.8c0.3-0.6,0.6-1.2,0.8-1.9
				c0.3-0.6,0.4-1.2,0.4-1.7c0-0.6-0.2-1.1-0.6-1.3c-0.4-0.3-0.7-0.6-1.1-0.8c-0.5,1.1-0.9,2.2-1.4,3.2c-0.5,1-0.9,1.8-1.2,2.3
				l-0.3-0.5c0.3-0.5,0.6-1.2,1.1-2.1c0.4-0.9,0.9-2,1.3-3.2c-0.2-0.2-0.3-0.4-0.3-0.7c0-0.6,0.2-1,0.5-1.4c0.3-0.4,0.6-0.5,0.8-0.5
				c0.2,0,0.3,0.1,0.4,0.3c0,0.2,0,0.3,0,0.4s-0.1,0.3-0.2,0.6c-0.1,0.3-0.2,0.4-0.2,0.5c0,0.3,0.2,0.5,0.5,0.7
				c0.3,0.2,0.7,0.5,1.1,0.7c0.4,0.3,0.8,0.6,1.1,1c0.3,0.4,0.5,0.9,0.5,1.5c0,0.6-0.1,1.1-0.4,1.7c-0.2,0.6-0.5,1.1-0.8,1.7
				c-0.2,0.5-0.4,1-0.4,1.4c0,0.3,0.1,0.6,0.3,0.7c0.2,0.1,0.4,0.2,0.6,0.2c0.5,0,1-0.1,1.5-0.4c0.5-0.3,1-0.6,1.5-1.1
				c0.5-0.4,0.9-0.9,1.3-1.4c0.4-0.5,0.7-0.9,0.8-1.3l0.4,0.3c-0.4,0.8-0.9,1.6-1.6,2.3c-0.7,0.8-1.4,1.4-2.2,1.9
				C610.6,457.7,609.7,458,608.9,458z"/>
			<path d="M616.3,458c-0.8,0-1.4-0.2-1.7-0.7c-0.4-0.5-0.6-1-0.6-1.7c0-0.4,0.1-1,0.3-1.6c0.2-0.7,0.4-1.3,0.7-2.1
				c0.3-0.7,0.6-1.4,1-2.1c0.4-0.6,0.8-1.2,1.2-1.6c0.4-0.4,0.8-0.6,1.2-0.6c0.2,0,0.3,0,0.5,0.2c0.1,0.1,0.2,0.3,0.2,0.5
				c0,0.2-0.2,0.6-0.5,1.1c-0.3,0.5-0.7,1.1-1.1,1.8c-0.4,0.7-0.8,1.3-1.1,2.1s-0.5,1.4-0.5,2.1c0,0.7,0.1,1.1,0.4,1.4
				c0.2,0.2,0.6,0.3,1.1,0.3c0.7,0,1.4-0.3,2.2-1c0.8-0.6,1.6-1.8,2.4-3.4l0.3,0.3c-0.6,1.6-1.4,2.9-2.5,3.7
				C618.6,457.6,617.5,458,616.3,458z M619.9,445c-0.3,0-0.6-0.1-0.9-0.2c-0.2-0.2-0.4-0.4-0.4-0.7c0-0.4,0.2-0.7,0.7-1
				c0.5-0.3,1-0.4,1.5-0.4c0.3,0,0.5,0.1,0.7,0.2c0.2,0.1,0.3,0.4,0.3,0.7c0,0.4-0.2,0.7-0.6,1C620.8,444.9,620.4,445,619.9,445z"/>
			<path d="M624.6,458.5c-1.2,0-2.1-0.3-2.7-1c-0.6-0.6-0.9-1.4-0.9-2.3c0-0.8,0.2-1.7,0.7-2.7c0.4-0.9,1.1-1.8,1.8-2.7
				c0.8-0.8,1.6-1.5,2.5-2c0.9-0.5,1.8-0.8,2.7-0.8c0.5,0,0.9,0.1,1.3,0.3c0.4,0.2,0.6,0.7,0.6,1.4c0,0.7-0.2,1.4-0.7,2
				c-0.5,0.6-1,1.2-1.8,1.7c-0.7,0.5-1.5,0.9-2.4,1.2c-0.9,0.3-1.7,0.5-2.6,0.6c0,0.2-0.1,0.4-0.1,0.5c0,0.2,0,0.3,0,0.5
				c0,0.3,0,0.6,0.1,0.8c0.1,0.3,0.2,0.5,0.4,0.8c0.2,0.2,0.4,0.4,0.7,0.6c0.3,0.1,0.7,0.2,1.2,0.2c0.9,0,1.7-0.2,2.6-0.7
				s1.6-1.1,2.3-1.8s1.3-1.6,1.8-2.5l0.4,0.3c-0.5,1.1-1.2,2.1-2.1,2.9c-0.8,0.8-1.7,1.5-2.7,1.9
				C626.6,458.3,625.6,458.5,624.6,458.5z M623.1,453.7c0.5-0.2,1.2-0.4,1.8-0.8c0.7-0.3,1.3-0.7,2-1.2c0.6-0.5,1.2-1,1.6-1.5
				s0.6-1.1,0.6-1.7c0-0.2,0-0.4-0.1-0.5c-0.1-0.1-0.2-0.2-0.5-0.2c-0.5,0-1,0.2-1.5,0.5c-0.5,0.4-1.1,0.8-1.6,1.4
				c-0.5,0.6-1,1.2-1.3,1.9C623.6,452.4,623.3,453.1,623.1,453.7z"/>
			<path d="M634.5,458.7c-0.9,0-1.7-0.2-2.2-0.6c-0.6-0.4-0.9-0.9-1.2-1.4c-0.2-0.6-0.3-1.1-0.3-1.7c0-0.6,0.1-1,0.2-1.3
				c0.2-0.3,0.4-0.5,0.6-0.7c0.2-0.2,0.4-0.3,0.7-0.3c0.2-0.1,0.4-0.2,0.4-0.2c0.6-0.6,1.2-1.3,1.7-1.9c0.5-0.7,0.9-1.4,1.3-2.1V448
				c0-0.7,0.1-1.2,0.4-1.5s0.5-0.4,0.8-0.4c0.2,0,0.3,0,0.4,0.1c0.1,0.1,0.1,0.2,0.1,0.3c0,0.1,0,0.2-0.1,0.5
				c-0.1,0.2-0.1,0.5-0.1,0.8c0,0.6,0.1,1.3,0.4,2c0.3,0.7,0.5,1.5,0.8,2.3s0.4,1.6,0.4,2.5c0,0.2,0,0.5,0,0.7
				c0,0.2-0.1,0.5-0.1,0.7c0.7-0.1,1.4-0.4,2-0.9c0.6-0.5,1.2-1.2,1.8-2.3l0.3,0.3c-0.4,1-1,1.8-1.7,2.4c-0.8,0.5-1.6,0.9-2.5,1
				c-0.3,0.8-0.8,1.4-1.5,1.8C636.2,458.5,635.4,458.7,634.5,458.7z M634.6,457.7c0.2,0,0.6-0.1,1-0.2c0.4-0.2,0.7-0.5,0.9-1.2
				c-0.8-0.2-1.6-0.5-2.2-0.9c-0.6-0.5-1.1-0.9-1.5-1.4c-0.4,0-0.7,0.4-0.7,1c0,0.7,0.2,1.3,0.6,1.9
				C633.2,457.4,633.8,457.7,634.6,457.7z M636.6,455.9c0-0.2,0.1-0.4,0.1-0.6c0-0.2,0-0.5,0-0.7c0-0.9-0.1-1.8-0.3-2.6
				c-0.2-0.9-0.4-1.7-0.6-2.5c-0.5,0.7-0.9,1.4-1.5,2.1c-0.5,0.6-1,1.2-1.5,1.6c0.3,0.6,0.8,1.2,1.4,1.7
				C634.9,455.3,635.7,455.7,636.6,455.9z"/>
		</g>
	</g>
</g>
<g>
	<g>
		<path class="st9" d="M537.9,500.1c2.5,1.9,4.8,4.1,6.7,6.6l8.6-1.6l5.7,13.2l-7.1,5.1c0.4,3.1,0.5,6.2,0.1,9.4l7.2,5l-5.4,13.4
			l-8.6-1.4c-1.9,2.5-4.1,4.8-6.6,6.7l1.6,8.6l-13.2,5.7l-5.1-7.1c-3.1,0.4-6.2,0.5-9.4,0.1l-5,7.2l-13.4-5.4l1.4-8.6
			c-2.5-1.9-4.8-4.1-6.7-6.6l-8.6,1.6l-5.7-13.2l7.1-5.1c-0.4-3.1-0.5-6.2-0.1-9.4l-7.2-5l5.4-13.4l8.6,1.4c1.9-2.5,4.1-4.8,6.6-6.7
			l-1.6-8.6l13.2-5.7l5.1,7.1c3.1-0.4,6.2-0.5,9.4-0.1l5-7.2l13.4,5.4L537.9,500.1L537.9,500.1z M523,514.4
			c-7.9-3.2-16.9,0.7-20.1,8.6c-3.2,7.9,0.7,16.9,8.6,20.1c7.9,3.2,16.9-0.7,20.1-8.6C534.8,526.6,530.9,517.6,523,514.4z"/>
	</g>
	<g>
		<g>
			<path class="st0" d="M537.9,500.1c2.5,1.9,4.8,4.1,6.7,6.6l8.6-1.6l5.7,13.2l-7.1,5.1c0.4,3.1,0.5,6.2,0.1,9.4l7.2,5l-5.4,13.4
				l-8.6-1.4c-1.9,2.5-4.1,4.8-6.6,6.7l1.6,8.6l-13.2,5.7l-5.1-7.1c-3.1,0.4-6.2,0.5-9.4,0.1l-5,7.2l-13.4-5.4l1.4-8.6
				c-2.5-1.9-4.8-4.1-6.7-6.6l-8.6,1.6l-5.7-13.2l7.1-5.1c-0.4-3.1-0.5-6.2-0.1-9.4l-7.2-5l5.4-13.4l8.6,1.4
				c1.9-2.5,4.1-4.8,6.6-6.7l-1.6-8.6l13.2-5.7l5.1,7.1c3.1-0.4,6.2-0.5,9.4-0.1l5-7.2l13.4,5.4L537.9,500.1L537.9,500.1z
				 M523,514.4c-7.9-3.2-16.9,0.7-20.1,8.6c-3.2,7.9,0.7,16.9,8.6,20.1c7.9,3.2,16.9-0.7,20.1-8.6
				C534.8,526.6,530.9,517.6,523,514.4z"/>
		</g>
		<g>
			<g>
				<path class="st0" d="M523,514.4c0,0,1.3,0.3,3.4,1.7c2,1.4,4.7,4.1,6,8.4c0.6,2.1,0.8,4.6,0.3,7.2c-0.5,2.6-1.7,5.2-3.7,7.4
					c-1,1.1-2.1,2.1-3.5,2.9c-1.3,0.8-2.8,1.5-4.4,1.9c-3.1,0.8-6.6,0.6-9.8-0.6c-3.2-1.3-5.8-3.6-7.5-6.3c-0.9-1.4-1.5-2.8-1.9-4.4
					c-0.4-1.5-0.6-3-0.5-4.5c0.1-3,1.1-5.7,2.5-7.9c1.4-2.2,3.3-3.9,5.2-5c3.9-2.3,7.7-2.4,10.1-2C521.8,513.7,523,514.4,523,514.4
					c0,0.1-1.3-0.5-3.7-0.8c-2.4-0.3-6.1-0.1-9.8,2.1c-1.8,1.1-3.7,2.7-5,4.9c-1.3,2.1-2.3,4.8-2.3,7.6c-0.1,1.4,0.1,2.9,0.5,4.3
					c0.4,1.4,1,2.9,1.8,4.2c1.6,2.6,4.2,4.8,7.2,6.1c3.1,1.2,6.4,1.4,9.4,0.6c1.5-0.4,2.9-1,4.2-1.8c1.3-0.8,2.4-1.7,3.3-2.8
					c1.9-2.1,3.1-4.7,3.6-7.1c0.5-2.5,0.3-4.9-0.2-7c-1.1-4.2-3.7-6.9-5.6-8.3C524.3,514.9,523,514.5,523,514.4z"/>
			</g>
		</g>
		<g>
			<g>
				<path class="st0" d="M537.9,500.1c0,0,0-0.2,0.1-0.5c0.1-0.4,0.1-0.9,0.2-1.6c0.2-1.5,0.6-3.6,1-6.4l0.1,0.1
					c-3.4-1.4-7.9-3.1-13.4-5.3l0.2-0.1c-1.5,2.2-3.1,4.6-4.9,7.2l-0.1,0.1l-0.1,0c-2.9-0.4-6.1-0.4-9.3,0.1l-0.1,0l-0.1-0.1
					c-1.6-2.2-3.3-4.6-5.1-7l0.3,0.1c-4.2,1.8-8.6,3.7-13.2,5.7l0.2-0.3c0.5,2.7,1,5.6,1.6,8.6l0,0.2l-0.1,0.1
					c-2.3,1.8-4.6,4-6.5,6.7l-0.1,0.1l-0.2,0c-2.7-0.4-5.6-0.9-8.6-1.4l0.3-0.2c-1.7,4.2-3.5,8.7-5.4,13.4l-0.1-0.4
					c2.2,1.5,4.7,3.2,7.2,4.9l0.2,0.1l0,0.2c-0.4,2.9-0.4,6.1,0.1,9.3l0,0.2l-0.2,0.1c-2.2,1.6-4.6,3.3-7.1,5.1l0.1-0.4
					c1.8,4.2,3.7,8.7,5.7,13.2l-0.4-0.2c2.7-0.5,5.6-1,8.6-1.6l0.2,0l0.1,0.2c1.8,2.3,4.1,4.6,6.6,6.5l0,0l0.2,0.1l0,0.2
					c-0.5,2.9-0.9,5.8-1.4,8.6l-0.2-0.4c4.5,1.8,9,3.6,13.4,5.4l-0.4,0.1c1.7-2.4,3.3-4.8,5-7.2l0.1-0.2l0.2,0
					c3.1,0.4,6.3,0.3,9.3-0.1l0.2,0l0.1,0.2c1.7,2.4,3.4,4.7,5.1,7.1l-0.4-0.1c4.5-1.9,8.9-3.8,13.3-5.6l-0.2,0.4
					c-0.5-2.9-1-5.8-1.6-8.6l0-0.2l0.2-0.1c2.5-2,4.7-4.2,6.5-6.6l0.1-0.1l0.2,0c2.9,0.5,5.8,0.9,8.6,1.4l-0.3,0.2
					c1.9-4.7,3.7-9.1,5.4-13.4l0.1,0.3c-2.5-1.7-4.9-3.4-7.1-5l-0.1-0.1l0-0.2c0.4-3.3,0.3-6.4-0.1-9.3l0-0.1l0.1-0.1
					c2.6-1.8,4.9-3.5,7.1-5.1l-0.1,0.2c-2.2-5.1-4-9.5-5.6-13.3l0.2,0.1c-3.4,0.6-6.2,1.1-8.6,1.5l-0.1,0l0-0.1
					c-1.9-2.5-3.7-4.1-4.8-5.1c-0.6-0.5-1-0.9-1.3-1.1C538,500.2,537.9,500.1,537.9,500.1s0.2,0.1,0.5,0.3c0.3,0.2,0.8,0.6,1.4,1.1
					c1.2,1,3,2.6,4.9,5.1l-0.1,0c2.3-0.4,5.1-1,8.6-1.6l0.1,0l0,0.1c1.6,3.7,3.5,8.1,5.7,13.2l0.1,0.2l-0.1,0.1
					c-2.2,1.6-4.5,3.3-7,5.1l0.1-0.2c0.4,2.9,0.5,6.1,0.1,9.5l-0.1-0.2c2.3,1.6,4.6,3.2,7.2,4.9l0.2,0.1l-0.1,0.2
					c-1.7,4.2-3.5,8.7-5.4,13.4l-0.1,0.2l-0.2,0c-2.8-0.4-5.6-0.9-8.6-1.4l0.3-0.1c-1.9,2.5-4.1,4.8-6.6,6.8l0.1-0.3
					c0.5,2.8,1,5.7,1.6,8.6l0,0.3l-0.2,0.1c-4.3,1.8-8.7,3.7-13.2,5.7l-0.2,0.1l-0.2-0.2c-1.7-2.3-3.4-4.7-5.1-7.1l0.3,0.1
					c-3.1,0.5-6.3,0.5-9.5,0.1l0.3-0.1c-1.6,2.4-3.3,4.8-4.9,7.2l-0.2,0.2l-0.3-0.1c-4.4-1.8-8.9-3.6-13.4-5.4l-0.3-0.1l0-0.3
					c0.5-2.8,0.9-5.7,1.4-8.6l0.1,0.3l0,0c-2.6-1.9-4.9-4.3-6.8-6.6l0.3,0.1c-2.9,0.5-5.9,1.1-8.6,1.6l-0.3,0l-0.1-0.3
					c-1.9-4.6-3.9-9.1-5.6-13.2l-0.1-0.3l0.2-0.2c2.4-1.8,4.8-3.5,7.1-5.1l-0.1,0.3c-0.5-3.3-0.5-6.5-0.1-9.5l0.1,0.3
					c-2.5-1.7-4.9-3.4-7.2-5l-0.2-0.2l0.1-0.2c1.9-4.6,3.7-9.2,5.4-13.4l0.1-0.2l0.2,0c3,0.5,5.9,1,8.6,1.4l-0.3,0.1
					c2-2.7,4.3-5,6.6-6.8l-0.1,0.3c-0.5-3-1.1-5.9-1.5-8.6l0-0.2l0.2-0.1c4.7-2,9.1-3.9,13.3-5.6l0.2-0.1l0.1,0.2
					c1.8,2.5,3.5,4.9,5.1,7.1l-0.2-0.1c3.3-0.5,6.5-0.4,9.4-0.1l-0.2,0.1c1.8-2.6,3.5-5,5-7.1l0.1-0.1l0.1,0.1
					c5.4,2.2,9.9,4,13.3,5.4l0.1,0l0,0.1c-0.5,2.8-0.8,4.9-1.1,6.4c-0.1,0.7-0.2,1.3-0.3,1.6C538,499.9,537.9,500.1,537.9,500.1z"/>
			</g>
		</g>
	</g>
</g>
<g>
	<g>
		<g>
			<g>
				<g>
					<path class="st0" d="M585.3,794.3l-144.1-0.7c-1.5,0-2.7-1.6-2.7-3.6l0.2-37.7c0-2,1.2-3.6,2.7-3.6l144.1,0.7
						c1.5,0,2.7,1.6,2.7,3.6l-0.2,37.7C588,792.7,586.8,794.4,585.3,794.3z"/>
				</g>
			</g>
			<g>
				<path class="st2" d="M481,774.7l0.5-0.9c0.8,0.8,2.1,1.4,3.6,1.4c2,0,2.9-0.9,2.9-2c0-3.1-6.6-1.2-6.6-5.4c0-1.7,1.2-3.1,4-3.1
					c1.2,0,2.5,0.4,3.3,1l-0.4,1c-0.9-0.6-2-0.9-3-1c-2,0-2.9,0.9-2.9,2c0,3.1,6.6,1.3,6.6,5.4c0,1.7-1.3,3.1-4,3.1
					C483.4,776.2,481.8,775.6,481,774.7z"/>
				<path class="st2" d="M491.6,764.9l1.1,0l0,11.3l-1.1,0L491.6,764.9z"/>
				<path class="st2" d="M505.3,764.9l0,11.3h-0.9l-6.9-9.2l0,9.2l-1.1,0l0-11.3l0.9,0l6.9,9.2l0-9.2H505.3z"/>
				<path class="st2" d="M516.4,770.6l1.1,0l0,4.3c-1,1-2.5,1.4-4,1.4c-3.3,0-5.7-2.5-5.7-5.8c0-3.3,2.4-5.7,5.7-5.7
					c1.6,0,3.1,0.6,4,1.6l-0.7,0.8c-0.9-0.9-2-1.3-3.3-1.3c-2.7,0-4.6,2-4.6,4.7c0,2.7,1.9,4.7,4.6,4.7c1,0,2-0.2,2.8-0.9
					L516.4,770.6z"/>
				<path class="st2" d="M524.7,771.5l0-6.5h1.1l0,6.4c0,2.7,1.2,3.9,3.3,3.9c2.1,0,3.3-1.2,3.3-3.9l0-6.4l1.1,0l0,6.5
					c0,3.2-1.7,4.9-4.4,4.9C526.3,776.4,524.7,774.7,524.7,771.5z"/>
				<path class="st2" d="M545.5,769c0,2.4-1.7,3.8-4.4,3.8l-2.9,0l0,3.6H537l0-11.3l4,0C543.8,765.1,545.5,766.6,545.5,769z
					 M544.3,769c0-1.8-1.1-2.8-3.3-2.9l-2.9,0l0,5.6l2.9,0C543.2,771.8,544.3,770.8,544.3,769z"/>
			</g>
		</g>
	</g>
</g>
<g>
	<g>
		<g>
			<g>
				<path d="M612.7,692c0,0,0.4,0,1.2-0.2c0.7-0.2,1.8-0.8,2.5-2.2c0.3-0.7,0.4-1.5,0.3-2.5c0-0.9,0-2,0-3.1c0-2.2,0-4.8,0-7.7
					c0-2.9,0-6.1,0-9.7c0-0.9,0-1.8,0-2.7c0-0.9-0.1-1.8-0.6-2.6c-0.5-0.8-1.2-1.4-2.1-1.6c-0.9-0.3-1.9-0.1-2.9-0.2
					c-8.2,0-17.6,0-28-0.1c-41.5-0.2-98.8-0.4-162.1-0.6c-1.8,0-3.4,1.4-3.6,3.1c-0.1,1.9,0,3.9,0,5.8c0,3.9,0,7.8,0,11.6
					c0,1.9,0,3.8,0,5.8c0,1-0.1,1.9,0.1,2.7c0.2,0.8,0.7,1.5,1.4,2c0.7,0.5,1.5,0.7,2.4,0.6l2.8,0c1.9,0,3.8,0,5.6,0
					c14.9,0.1,29.3,0.2,43,0.2c27.4,0.2,52.1,0.3,72.9,0.4c20.7,0.2,37.5,0.3,49.1,0.4c5.8,0.1,10.3,0.1,13.4,0.2
					c1.5,0,2.7,0,3.5,0.1C612.3,691.9,612.7,692,612.7,692s-0.4,0-1.2,0c-0.8,0-2,0-3.5,0c-3.1,0-7.6,0-13.4,0
					c-11.6,0-28.4,0-49.1-0.1c-20.8-0.1-45.5-0.1-72.9-0.2c-13.7-0.1-28.1-0.1-43-0.2c-1.9,0-3.7,0-5.6,0l-2.8,0c-1,0-2.1-0.2-3-0.8
					c-0.9-0.6-1.5-1.5-1.8-2.6c-0.3-1.1-0.1-2-0.2-3c0-1.9,0-3.8,0-5.8c0-3.9,0-7.7,0-11.6c0-2,0-3.9,0.1-5.9c0.2-2.2,2.3-4.1,4.6-4
					c63.3,0.4,120.6,0.7,162.1,0.9c10.4,0.1,19.7,0.1,28,0.2c1,0.1,2-0.1,3.1,0.2c1,0.3,1.9,1,2.4,1.9c0.6,0.9,0.7,1.9,0.6,2.8
					c0,0.9,0,1.8,0,2.7c0,3.5-0.1,6.7-0.1,9.7c0,2.9-0.1,5.5-0.1,7.7c0,1.1,0,2.1,0,3.1c0,0.9,0,1.8-0.4,2.5c-0.7,1.4-1.9,2-2.6,2.2
					C613.1,692,612.7,692,612.7,692z"/>
			</g>
		</g>
	</g>
	<g>
		<g>
			<g>
				<path class="st10" d="M438.3,674.7c0,2.4-1.8,4.3-4,4.2s-4-1.9-4-4.3c0-2.4,1.8-4.3,4-4.2C436.5,670.5,438.3,672.4,438.3,674.7z
					"/>
			</g>
		</g>
		<g>
			<g>
				<path class="st10" d="M450.7,674.8c0,2.4-1.8,4.3-4,4.2s-4-1.9-4-4.3c0-2.4,1.8-4.3,4-4.2C448.9,670.5,450.7,672.4,450.7,674.8z
					"/>
			</g>
		</g>
		<g>
			<g>
				<path class="st10" d="M463.1,674.8c0,2.4-1.8,4.3-4,4.2s-4-1.9-4-4.3c0-2.4,1.8-4.3,4-4.2C461.3,670.6,463.1,672.5,463.1,674.8z
					"/>
			</g>
		</g>
		<g>
			<g>
				<path class="st10" d="M475.5,674.9c0,2.4-1.8,4.3-4,4.2s-4-1.9-4-4.3c0-2.4,1.8-4.3,4-4.2C473.7,670.6,475.5,672.5,475.5,674.9z
					"/>
			</g>
		</g>
		<g>
			<g>
				<path class="st10" d="M487.9,675c0,2.4-1.8,4.3-4,4.2s-4-1.9-4-4.3c0-2.4,1.8-4.3,4-4.2C486.1,670.7,487.9,672.6,487.9,675z"/>
			</g>
		</g>
		<g>
			<g>
				<path class="st10" d="M500.3,675c0,2.4-1.8,4.3-4,4.2s-4-1.9-4-4.3c0-2.4,1.8-4.3,4-4.2C498.5,670.7,500.3,672.7,500.3,675z"/>
			</g>
		</g>
		<g>
			<g>
				<path class="st10" d="M512.7,675.1c0,2.4-1.8,4.3-4,4.2c-2.2,0-4-1.9-4-4.3c0-2.4,1.8-4.3,4-4.2
					C510.9,670.8,512.7,672.7,512.7,675.1z"/>
			</g>
		</g>
		<g>
			<g>
				<path class="st10" d="M525,675.1c0,2.4-1.8,4.3-4,4.2c-2.2,0-4-1.9-4-4.3c0-2.4,1.8-4.3,4-4.2C523.3,670.9,525,672.8,525,675.1z
					"/>
			</g>
		</g>
		<g>
			<g>
				<path class="st10" d="M537.4,675.2c0,2.4-1.8,4.3-4,4.2c-2.2,0-4-1.9-4-4.3c0-2.4,1.8-4.3,4-4.2
					C535.7,670.9,537.4,672.8,537.4,675.2z"/>
			</g>
		</g>
	</g>
	<g>
		<g>
			<rect x="437.3" y="564.6" transform="matrix(4.615634e-03 -1 1 4.615634e-03 -149.7526 1028.8187)" width="9.2" height="50"/>
		</g>
	</g>
	<g>
		<g>
			<g>
				<path d="M612.7,641.5c0,0,0.4,0,1.2-0.2c0.7-0.2,1.8-0.8,2.5-2.2c0.3-0.7,0.4-1.5,0.3-2.5c0-0.9,0-2,0-3.1c0-2.2,0-4.8,0-7.7
					c0-2.9,0-6.1,0-9.7c0-0.9,0-1.8,0-2.7c0-0.9-0.1-1.8-0.6-2.6c-0.5-0.8-1.2-1.4-2.1-1.6c-0.9-0.3-1.9-0.1-2.9-0.2
					c-8.2,0-17.6,0-28-0.1c-41.5-0.2-98.8-0.4-162.1-0.6c-1.8,0-3.4,1.4-3.6,3.1c-0.1,1.9,0,3.9,0,5.8c0,3.9,0,7.8,0,11.6
					c0,1.9,0,3.8,0,5.8c0,1-0.1,1.9,0.1,2.7c0.2,0.8,0.7,1.5,1.4,2c0.7,0.5,1.5,0.7,2.4,0.6l2.8,0c1.9,0,3.8,0,5.6,0
					c14.9,0.1,29.3,0.2,43,0.2c27.4,0.2,52.1,0.3,72.9,0.4c20.7,0.2,37.5,0.3,49.1,0.4c5.8,0.1,10.3,0.1,13.4,0.2
					c1.5,0,2.7,0,3.5,0.1C612.3,641.4,612.7,641.5,612.7,641.5s-0.4,0-1.2,0c-0.8,0-2,0-3.5,0c-3.1,0-7.6,0-13.4,0
					c-11.6,0-28.4,0-49.1-0.1c-20.8-0.1-45.5-0.1-72.9-0.2c-13.7-0.1-28.1-0.1-43-0.2c-1.9,0-3.7,0-5.6,0l-2.8,0c-1,0-2.1-0.2-3-0.8
					c-0.9-0.6-1.5-1.5-1.8-2.6c-0.3-1.1-0.1-2-0.2-3c0-1.9,0-3.8,0-5.8c0-3.9,0-7.7,0-11.6c0-2,0-3.9,0.1-5.9c0.2-2.2,2.3-4.1,4.6-4
					c63.3,0.4,120.6,0.7,162.1,0.9c10.4,0.1,19.7,0.1,28,0.2c1,0.1,2-0.1,3.1,0.2c1,0.3,1.9,1,2.4,1.9c0.6,0.9,0.7,1.9,0.6,2.8
					c0,0.9,0,1.8,0,2.7c0,3.5-0.1,6.7-0.1,9.7c0,2.9-0.1,5.5-0.1,7.7c0,1.1,0,2.1,0,3.1c0,0.9,0,1.8-0.4,2.5c-0.7,1.4-1.9,2-2.6,2.2
					C613.1,641.5,612.7,641.5,612.7,641.5z"/>
			</g>
		</g>
	</g>
	<g>
		<g>
			<rect x="471.8" y="579" transform="matrix(4.619041e-03 -1 1 4.619041e-03 -150.8539 1097.9048)" width="8.6" height="91.5"/>
		</g>
	</g>
</g>
</svg>
