<?xml version="1.0" encoding="utf-8"?>
<!-- Generator: Adobe Illustrator 24.1.0, SVG Export Plug-In . SVG Version: 6.00 Build 0)  -->
<svg version="1.1" id="Layer_1" xmlns="http://www.w3.org/2000/svg" xmlns:xlink="http://www.w3.org/1999/xlink" x="0px" y="0px"
	 viewBox="0 0 300 300" style="enable-background:new 0 0 300 300;" xml:space="preserve">
<style type="text/css">
	.st0{fill:#F27D1E;}
	.st1{fill:#E1E1E1;}
	.st2{fill:#FAFAFA;}
	.st3{fill-rule:evenodd;clip-rule:evenodd;}
	.st4{fill:#4D4D4D;}
	.st5{fill-rule:evenodd;clip-rule:evenodd;fill:#1A2E35;}
	.st6{fill:none;}
	.st7{fill:#1A2E35;}
	.st8{fill:#FFFFFF;}
	.st9{fill-rule:evenodd;clip-rule:evenodd;fill:#F27D1E;}
	.st10{fill:#333333;}
</style>
<g>
	<g>
		<g>
			<g>
				<path class="st0" d="M227.66,80.41l-12.09-0.06c-1.62-0.01-2.94,1.36-2.95,3.06l-0.01,2.19c-0.01,1.69-1.33,3.06-2.95,3.06
					l-23.56-0.11c-1.62-0.01-2.93-1.39-2.92-3.08l0.01-2.19c0.01-1.69-1.3-3.07-2.92-3.08l-4.25-0.02l-10.58-0.05
					c-5.25-0.02-9.53,4.22-9.55,9.47l-0.65,152.55c-0.02,5.25,4.22,9.53,9.47,9.55l62.22,0.29c5.25,0.03,9.53-4.22,9.55-9.47
					l0.65-152.55C237.15,84.7,232.91,80.43,227.66,80.41z"/>
			</g>
		</g>
		<g>
			<g>
				<g>
					<g>
						<g>
							<path class="st1" d="M219.29,231.62l-46.26-0.21c-0.48,0-0.86-0.52-0.86-1.16l0.05-12.1c0-0.64,0.39-1.16,0.87-1.16
								l46.26,0.21c0.48,0,0.87,0.52,0.86,1.16l-0.05,12.1C220.16,231.11,219.77,231.63,219.29,231.62z"/>
						</g>
					</g>
					<g>
						<path class="st2" d="M185.82,225.33l0.15-0.29c0.25,0.25,0.69,0.44,1.14,0.45c0.65,0,0.93-0.28,0.94-0.64
							c0.01-0.99-2.13-0.39-2.13-1.74c0-0.53,0.4-0.99,1.28-0.99c0.39,0,0.8,0.12,1.07,0.33l-0.13,0.31
							c-0.29-0.2-0.64-0.3-0.95-0.31c-0.63,0-0.92,0.29-0.92,0.65c-0.01,0.99,2.13,0.4,2.13,1.73c0,0.53-0.41,0.99-1.3,0.98
							C186.58,225.8,186.07,225.61,185.82,225.33z"/>
						<path class="st2" d="M189.21,222.16l0.37,0l-0.02,3.63l-0.37,0L189.21,222.16z"/>
						<path class="st2" d="M193.6,222.18l-0.02,3.63h-0.3l-2.22-2.95l-0.01,2.94l-0.37,0l0.02-3.63l0.3,0l2.22,2.95l0.01-2.94H193.6
							z"/>
						<path class="st2" d="M197.17,224.01l0.35,0l-0.01,1.38c-0.33,0.31-0.79,0.46-1.27,0.45c-1.06-0.01-1.83-0.79-1.82-1.85
							c0.01-1.06,0.78-1.84,1.84-1.84c0.52,0,0.98,0.18,1.28,0.53l-0.23,0.24c-0.29-0.3-0.64-0.43-1.04-0.43
							c-0.86-0.01-1.49,0.63-1.49,1.49c0,0.86,0.62,1.5,1.47,1.51c0.33,0,0.64-0.07,0.91-0.28L197.17,224.01z"/>
						<path class="st2" d="M199.82,224.29l0.01-2.08h0.37l-0.01,2.06c0,0.86,0.38,1.26,1.05,1.26c0.68,0,1.07-0.39,1.07-1.25
							l0.01-2.06l0.36,0l-0.01,2.08c-0.01,1.04-0.54,1.58-1.43,1.57C200.36,225.87,199.82,225.33,199.82,224.29z"/>
						<path class="st2" d="M206.5,223.48c0,0.77-0.54,1.24-1.42,1.23l-0.93-0.01l-0.01,1.15h-0.37l0.02-3.63l1.3,0.01
							C205.97,222.24,206.5,222.71,206.5,223.48z M206.13,223.48c0-0.58-0.36-0.91-1.06-0.92l-0.92-0.01l-0.01,1.81l0.92,0.01
							C205.76,224.38,206.13,224.05,206.13,223.48z"/>
					</g>
				</g>
			</g>
		</g>
	</g>
	<g>
		<g>
			
				<rect x="172.74" y="118.65" transform="matrix(4.615651e-03 -1 1 4.615651e-03 46.7356 300.2964)" class="st1" width="2.95" height="16.05"/>
		</g>
	</g>
	<g>
		<g>
			<g>
				<path class="st1" d="M229.31,143.31c0-0.01,0.13,0.01,0.37-0.09c0.22-0.08,0.56-0.35,0.6-0.84c0-0.99-0.01-2.44-0.01-4.3
					c0-0.94,0-1.97,0-3.11c0-0.28,0-0.57,0-0.87c0.01-0.3,0.01-0.58-0.17-0.82c-0.16-0.23-0.45-0.38-0.74-0.38
					c-0.32,0-0.65,0-0.98,0c-2.66-0.01-5.68-0.01-9.02-0.02c-13.37-0.05-31.82-0.12-52.2-0.19c-0.27,0-0.53,0.13-0.69,0.35
					c-0.17,0.22-0.17,0.48-0.16,0.82c0,0.63-0.01,1.26-0.01,1.89c-0.01,1.26-0.01,2.51-0.02,3.75c0,0.62-0.01,1.24-0.01,1.86
					c0.01,0.29-0.03,0.65,0.03,0.88c0.06,0.25,0.25,0.46,0.49,0.56c0.12,0.05,0.24,0.07,0.39,0.07l0.46,0l0.91,0.01
					c0.6,0,1.21,0.01,1.81,0.01c4.81,0.03,9.44,0.05,13.86,0.07c8.83,0.05,16.78,0.1,23.47,0.14c6.67,0.05,12.08,0.09,15.82,0.13
					c1.86,0.02,3.31,0.04,4.3,0.05c0.48,0.01,0.85,0.02,1.12,0.02C229.18,143.3,229.31,143.31,229.31,143.31s-0.13,0.01-0.38,0.02
					c-0.26,0-0.64,0.01-1.12,0.01c-1,0-2.44,0.01-4.3,0.01c-3.75-0.01-9.15-0.01-15.82-0.02c-6.69-0.02-14.64-0.05-23.47-0.07
					c-4.42-0.02-9.05-0.04-13.86-0.05c-0.6,0-1.2-0.01-1.81-0.01l-0.91,0l-0.46,0c-0.16,0-0.35-0.02-0.51-0.09
					c-0.33-0.14-0.59-0.43-0.67-0.78c-0.05-0.18-0.04-0.36-0.04-0.5l0-0.46c0-0.62,0.01-1.24,0.01-1.86
					c0.01-1.24,0.01-2.49,0.02-3.75c0-0.63,0.01-1.26,0.01-1.89c0.01-0.16-0.01-0.31,0.02-0.5c0.03-0.18,0.1-0.36,0.21-0.51
					c0.21-0.3,0.58-0.49,0.95-0.48c20.38,0.11,38.83,0.22,52.2,0.29c3.34,0.03,6.36,0.05,9.02,0.07c0.33,0,0.66,0.01,0.98,0.01
					c0.35,0,0.68,0.18,0.87,0.46c0.21,0.27,0.21,0.64,0.2,0.92c0,0.3-0.01,0.59-0.01,0.87c-0.01,1.14-0.02,2.17-0.03,3.11
					c-0.02,1.86-0.04,3.31-0.05,4.3c-0.05,0.52-0.43,0.79-0.66,0.87C229.45,143.34,229.31,143.31,229.31,143.31z"/>
			</g>
		</g>
	</g>
	<g>
		<g>
			
				<rect x="183.8" y="123.26" transform="matrix(4.619080e-03 -1 1 4.619080e-03 46.3845 322.4729)" class="st1" width="2.75" height="29.36"/>
		</g>
	</g>
	<g>
		<g>
			
				<rect x="172.63" y="145.53" transform="matrix(4.615634e-03 -1 1 4.615634e-03 19.7447 326.9384)" class="st1" width="2.95" height="16.05"/>
		</g>
	</g>
	<g>
		<g>
			<g>
				<path class="st1" d="M228.9,170.18c0-0.01,0.13,0,0.37-0.07c0.23-0.07,0.59-0.26,0.79-0.71c0.11-0.22,0.12-0.49,0.11-0.79
					c0-0.3,0-0.63,0-0.99c0-0.72,0-1.55-0.01-2.47c0-0.93,0-1.97,0-3.1c0-0.28,0-0.57,0-0.87c0.01-0.3-0.02-0.57-0.18-0.82
					c-0.15-0.24-0.39-0.44-0.68-0.53c-0.28-0.09-0.61-0.04-0.94-0.05c-2.65-0.01-5.66-0.01-8.98-0.02
					c-13.32-0.05-31.71-0.12-52.02-0.19c-0.56-0.01-1.08,0.45-1.14,1c-0.02,0.59-0.01,1.25-0.02,1.87c-0.01,1.25-0.01,2.5-0.02,3.74
					c0,0.62-0.01,1.24-0.01,1.85c0.01,0.31-0.03,0.63,0.04,0.87c0.07,0.26,0.24,0.49,0.46,0.64c0.23,0.15,0.48,0.21,0.78,0.2
					l0.91,0.01c0.6,0,1.2,0.01,1.8,0.01c4.79,0.03,9.41,0.05,13.81,0.07c8.8,0.05,16.73,0.1,23.39,0.14
					c6.65,0.05,12.03,0.09,15.77,0.13c1.85,0.02,3.29,0.04,4.29,0.05c0.48,0.01,0.85,0.02,1.12,0.02
					C228.77,170.17,228.9,170.18,228.9,170.18s-0.13,0.01-0.38,0.02c-0.26,0-0.63,0.01-1.12,0.01c-0.99,0-2.44,0.01-4.29,0.01
					c-3.73-0.01-9.12-0.01-15.77-0.02c-6.66-0.02-14.59-0.05-23.39-0.07c-4.4-0.02-9.02-0.04-13.81-0.05c-0.6,0-1.2-0.01-1.8-0.01
					l-0.91-0.01c-0.31,0.02-0.68-0.06-0.96-0.25c-0.28-0.19-0.49-0.49-0.58-0.82c-0.09-0.35-0.04-0.65-0.05-0.96
					c0-0.61,0.01-1.23,0.01-1.85c0.01-1.24,0.01-2.48,0.02-3.74c0.01-0.64-0.01-1.24,0.02-1.9c0.07-0.72,0.74-1.31,1.46-1.29
					c20.31,0.11,38.7,0.21,52.02,0.29c3.33,0.03,6.34,0.05,8.98,0.07c0.33,0.02,0.66-0.04,0.99,0.07c0.33,0.1,0.6,0.33,0.77,0.6
					c0.18,0.27,0.22,0.62,0.2,0.91c0,0.29-0.01,0.58-0.01,0.87c-0.01,1.13-0.02,2.17-0.03,3.1c-0.01,0.93-0.02,1.76-0.03,2.47
					c-0.01,0.36-0.01,0.69-0.01,0.99c0.01,0.3-0.01,0.59-0.13,0.82c-0.22,0.46-0.6,0.65-0.84,0.71
					C229.03,170.21,228.9,170.18,228.9,170.18z"/>
			</g>
		</g>
	</g>
	<g>
		<g>
			
				<rect x="172.51" y="173.56" transform="matrix(4.596210e-03 -1 1 4.596210e-03 -8.4013 354.727)" class="st1" width="2.95" height="16.05"/>
		</g>
	</g>
	<g>
		<g>
			<g>
				<path class="st1" d="M228.78,198.22c0-0.01,0.13,0,0.37-0.07c0.23-0.07,0.59-0.26,0.79-0.71c0.11-0.22,0.12-0.49,0.11-0.79
					c0-0.3,0-0.63,0-0.99c0-0.72,0-1.55-0.01-2.47c0-0.93,0-1.97,0-3.1c0-0.28,0-0.57,0-0.87c0.01-0.3-0.02-0.57-0.18-0.82
					c-0.15-0.24-0.39-0.44-0.68-0.53c-0.28-0.09-0.61-0.04-0.94-0.05c-2.65-0.01-5.66-0.01-8.98-0.02
					c-13.32-0.05-31.71-0.12-52.02-0.19c-0.56-0.01-1.08,0.45-1.14,1c-0.02,0.59-0.01,1.25-0.02,1.87c-0.01,1.25-0.01,2.5-0.02,3.74
					c0,0.62-0.01,1.24-0.01,1.85c0.01,0.31-0.03,0.63,0.04,0.87c0.07,0.26,0.24,0.49,0.46,0.64c0.23,0.15,0.48,0.21,0.78,0.2
					l0.91,0.01c0.6,0,1.2,0.01,1.8,0.01c4.79,0.03,9.41,0.05,13.81,0.07c8.8,0.05,16.73,0.1,23.39,0.14
					c6.65,0.05,12.03,0.09,15.77,0.13c1.85,0.02,3.29,0.04,4.29,0.05c0.48,0.01,0.85,0.02,1.12,0.02
					C228.65,198.21,228.78,198.22,228.78,198.22s-0.13,0.01-0.38,0.02c-0.26,0-0.63,0.01-1.12,0.01c-0.99,0-2.44,0.01-4.29,0.01
					c-3.73-0.01-9.12-0.01-15.77-0.02c-6.66-0.02-14.59-0.05-23.39-0.07c-4.4-0.02-9.02-0.04-13.81-0.05c-0.6,0-1.2-0.01-1.8-0.01
					l-0.91,0c-0.31,0.02-0.68-0.06-0.96-0.25c-0.28-0.19-0.49-0.49-0.58-0.82c-0.09-0.35-0.04-0.65-0.05-0.96
					c0-0.61,0.01-1.23,0.01-1.85c0.01-1.24,0.01-2.48,0.02-3.74c0.01-0.64-0.01-1.24,0.02-1.9c0.07-0.72,0.74-1.31,1.46-1.29
					c20.31,0.11,38.7,0.21,52.02,0.29c3.33,0.03,6.34,0.05,8.98,0.07c0.33,0.02,0.66-0.04,0.99,0.07c0.33,0.1,0.6,0.33,0.77,0.6
					c0.18,0.27,0.22,0.62,0.2,0.91c0,0.29-0.01,0.58-0.01,0.87c-0.01,1.13-0.02,2.17-0.03,3.1c-0.01,0.93-0.02,1.76-0.03,2.47
					c-0.01,0.36-0.01,0.69-0.01,0.99c0.01,0.3-0.01,0.59-0.13,0.82c-0.22,0.46-0.6,0.65-0.84,0.71
					C228.91,198.24,228.78,198.22,228.78,198.22z"/>
			</g>
		</g>
	</g>
	<g>
		<g>
			
				<rect x="183.68" y="150.13" transform="matrix(4.619041e-03 -1 1 4.619041e-03 19.3937 349.1096)" class="st1" width="2.75" height="29.36"/>
		</g>
	</g>
	<g>
		<g>
			<g>
				<path class="st1" d="M173.05,193.12c0,0.76-0.58,1.37-1.29,1.36s-1.28-0.62-1.28-1.37c0-0.76,0.58-1.37,1.29-1.36
					C172.48,191.75,173.06,192.36,173.05,193.12z"/>
			</g>
		</g>
		<g>
			<g>
				<path class="st1" d="M177.03,193.14c0,0.76-0.58,1.37-1.29,1.36c-0.71,0-1.28-0.62-1.28-1.37c0-0.76,0.58-1.37,1.29-1.36
					C176.46,191.77,177.03,192.38,177.03,193.14z"/>
			</g>
		</g>
		<g>
			<g>
				<path class="st1" d="M181.01,193.16c0,0.76-0.58,1.37-1.29,1.36s-1.28-0.62-1.28-1.37c0-0.76,0.58-1.37,1.29-1.36
					C180.44,191.79,181.01,192.4,181.01,193.16z"/>
			</g>
		</g>
		<g>
			<g>
				<path class="st1" d="M184.99,193.18c0,0.76-0.58,1.37-1.29,1.36c-0.71,0-1.28-0.62-1.28-1.37c0-0.76,0.58-1.37,1.29-1.36
					C184.42,191.81,184.99,192.42,184.99,193.18z"/>
			</g>
		</g>
		<g>
			<g>
				<path class="st1" d="M188.96,193.19c0,0.76-0.58,1.37-1.29,1.36s-1.28-0.62-1.28-1.37c0-0.76,0.58-1.37,1.29-1.36
					C188.39,191.82,188.97,192.44,188.96,193.19z"/>
			</g>
		</g>
		<g>
			<g>
				<path class="st1" d="M192.94,193.21c0,0.76-0.58,1.37-1.29,1.36c-0.71,0-1.28-0.62-1.28-1.37c0-0.76,0.58-1.37,1.29-1.36
					C192.37,191.84,192.94,192.46,192.94,193.21z"/>
			</g>
		</g>
		<g>
			<g>
				<path class="st1" d="M196.92,193.23c0,0.76-0.58,1.37-1.29,1.36c-0.71,0-1.28-0.62-1.28-1.37c0-0.76,0.58-1.37,1.29-1.36
					C196.35,191.86,196.92,192.48,196.92,193.23z"/>
			</g>
		</g>
		<g>
			<g>
				<path class="st1" d="M200.89,193.25c0,0.76-0.58,1.37-1.29,1.36s-1.28-0.62-1.28-1.37c0-0.76,0.58-1.37,1.29-1.36
					S200.9,192.49,200.89,193.25z"/>
			</g>
		</g>
		<g>
			<g>
				<path class="st1" d="M204.87,193.27c0,0.76-0.58,1.37-1.29,1.36c-0.71,0-1.28-0.62-1.28-1.37c0-0.76,0.58-1.37,1.29-1.36
					C204.3,191.9,204.88,192.51,204.87,193.27z"/>
			</g>
		</g>
	</g>
	<g>
		<g>
			<path class="st1" d="M199.22,103.16c0.84-0.35,1.44-1.22,1.44-2.24c0.01-1.34-1.01-2.42-2.26-2.43
				c-1.25-0.01-2.27,1.07-2.28,2.41c-0.01,1.03,0.6,1.91,1.45,2.26c-3.49,0.53-3.33,4.32-3.33,4.32l8.26,0.04
				C202.5,107.52,202.68,103.69,199.22,103.16z"/>
		</g>
	</g>
	<g>
		<g>
			
				<rect x="196.15" y="96.98" transform="matrix(4.615052e-03 -1 1 4.615052e-03 85.2962 309.0985)" class="st1" width="3.52" height="29.45"/>
		</g>
	</g>
</g>
<g>
	<g>
		<g>
			<g>
				<path class="st0" d="M131.4,106.89l-9.85-0.05c-1.32-0.01-2.4,1.11-2.4,2.49l-0.01,1.79c-0.01,1.38-1.08,2.49-2.4,2.49
					l-19.19-0.09c-1.32-0.01-2.39-1.13-2.38-2.51l0.01-1.79c0.01-1.38-1.06-2.5-2.38-2.51l-3.46-0.02l-8.62-0.04
					c-4.28-0.02-7.76,3.43-7.78,7.72l-0.53,124.28c-0.02,4.28,3.43,7.76,7.71,7.78l50.68,0.23c4.28,0.02,7.76-3.43,7.78-7.72
					l0.53-124.28C139.14,110.39,135.68,106.91,131.4,106.89z"/>
			</g>
		</g>
		<g>
			<g>
				<g>
					<g>
						<g>
							<path class="st1" d="M124.58,230.08l-37.69-0.17c-0.39,0-0.7-0.43-0.7-0.95l0.04-9.86c0-0.52,0.32-0.94,0.71-0.94l37.69,0.17
								c0.39,0,0.7,0.43,0.7,0.95l-0.04,9.86C125.29,229.67,124.97,230.09,124.58,230.08z"/>
						</g>
					</g>
					<g>
						<path class="st2" d="M97.32,224.96l0.12-0.24c0.2,0.21,0.56,0.36,0.93,0.36c0.53,0,0.76-0.23,0.76-0.52
							c0-0.81-1.74-0.32-1.73-1.41c0-0.44,0.33-0.81,1.04-0.8c0.32,0,0.65,0.1,0.87,0.27l-0.1,0.25c-0.24-0.17-0.52-0.25-0.77-0.25
							c-0.52,0-0.75,0.24-0.75,0.53c0,0.81,1.74,0.33,1.73,1.4c0,0.44-0.33,0.8-1.06,0.8C97.94,225.34,97.52,225.19,97.32,224.96z"
							/>
						<path class="st2" d="M100.08,222.38l0.3,0l-0.01,2.96l-0.3,0L100.08,222.38z"/>
						<path class="st2" d="M103.66,222.39l-0.01,2.96h-0.25l-1.8-2.41l-0.01,2.4l-0.3,0l0.01-2.96l0.25,0l1.81,2.41l0.01-2.4H103.66
							z"/>
						<path class="st2" d="M106.56,223.88l0.29,0l-0.01,1.13c-0.27,0.25-0.65,0.37-1.04,0.37c-0.86-0.01-1.49-0.64-1.48-1.51
							c0-0.86,0.64-1.5,1.5-1.49c0.43,0,0.8,0.15,1.05,0.43l-0.19,0.2c-0.24-0.25-0.52-0.35-0.85-0.35c-0.7,0-1.21,0.51-1.21,1.22
							c0,0.7,0.51,1.23,1.2,1.23c0.27,0,0.52-0.06,0.74-0.23L106.56,223.88z"/>
						<path class="st2" d="M108.73,224.11l0.01-1.69h0.3l-0.01,1.68c0,0.7,0.31,1.02,0.86,1.03c0.55,0,0.87-0.32,0.87-1.02
							l0.01-1.68l0.29,0l-0.01,1.69c0,0.85-0.44,1.28-1.16,1.28C109.16,225.4,108.72,224.96,108.73,224.11z"/>
						<path class="st2" d="M114.16,223.45c0,0.63-0.44,1.01-1.16,1l-0.76,0l-0.01,0.93h-0.3l0.01-2.96l1.06,0.01
							C113.73,222.44,114.16,222.82,114.16,223.45z M113.86,223.45c0-0.47-0.29-0.74-0.86-0.75l-0.75,0l-0.01,1.48l0.75,0
							C113.56,224.18,113.86,223.92,113.86,223.45z"/>
					</g>
				</g>
			</g>
		</g>
	</g>
	<g>
		<g>
			
				<rect x="86.66" y="138.05" transform="matrix(4.615651e-03 -1 1 4.615651e-03 -57.1283 231.7743)" class="st1" width="2.4" height="13.08"/>
		</g>
	</g>
	<g>
		<g>
			<g>
				<path class="st1" d="M132.75,158.14c0-0.01,0.11,0.01,0.3-0.07c0.18-0.07,0.46-0.29,0.49-0.68c0-0.81-0.01-1.99-0.01-3.5
					c0-0.76,0-1.61,0-2.53c0-0.23,0-0.47,0-0.71c0.01-0.25,0.01-0.48-0.14-0.67c-0.13-0.19-0.36-0.31-0.6-0.31c-0.26,0-0.53,0-0.8,0
					c-2.16-0.01-4.62-0.01-7.34-0.02c-10.89-0.04-25.93-0.09-42.53-0.16c-0.22,0-0.43,0.11-0.56,0.28
					c-0.14,0.18-0.14,0.39-0.13,0.66c0,0.52-0.01,1.03-0.01,1.54c-0.01,1.03-0.01,2.04-0.01,3.06c0,0.5-0.01,1.01-0.01,1.51
					c0.01,0.24-0.02,0.53,0.02,0.72c0.05,0.21,0.21,0.38,0.4,0.46c0.1,0.04,0.19,0.05,0.32,0.05l0.37,0l0.74,0
					c0.49,0,0.99,0.01,1.47,0.01c3.92,0.02,7.69,0.04,11.29,0.06c7.2,0.04,13.68,0.08,19.12,0.12c5.43,0.04,9.84,0.08,12.89,0.1
					c1.51,0.02,2.69,0.03,3.5,0.04c0.39,0.01,0.7,0.01,0.91,0.02C132.65,158.13,132.75,158.14,132.75,158.14s-0.11,0.01-0.31,0.01
					c-0.22,0-0.52,0.01-0.91,0.01c-0.81,0-1.99,0.01-3.5,0.01c-3.05-0.01-7.45-0.01-12.89-0.02c-5.44-0.02-11.92-0.04-19.12-0.06
					c-3.6-0.02-7.37-0.03-11.29-0.04c-0.49,0-0.98-0.01-1.47-0.01l-0.74,0l-0.37,0c-0.13,0-0.28-0.02-0.42-0.07
					c-0.27-0.11-0.48-0.35-0.55-0.63c-0.04-0.14-0.03-0.29-0.03-0.41l0-0.38c0-0.5,0.01-1,0.01-1.51c0.01-1.01,0.01-2.03,0.01-3.06
					c0-0.51,0.01-1.03,0.01-1.54c0.01-0.13-0.01-0.25,0.01-0.4c0.02-0.15,0.08-0.29,0.17-0.41c0.17-0.25,0.47-0.39,0.77-0.39
					c16.6,0.09,31.64,0.17,42.53,0.24c2.72,0.02,5.18,0.04,7.34,0.05c0.27,0,0.54,0.01,0.8,0.01c0.28,0,0.56,0.15,0.71,0.37
					c0.17,0.22,0.17,0.52,0.16,0.75c0,0.24,0,0.48-0.01,0.71c-0.01,0.93-0.02,1.77-0.02,2.53c-0.02,1.51-0.03,2.7-0.04,3.51
					c-0.04,0.43-0.35,0.64-0.54,0.7C132.86,158.16,132.75,158.14,132.75,158.14z"/>
			</g>
		</g>
	</g>
	<g>
		<g>
			
				<rect x="95.67" y="141.8" transform="matrix(4.619080e-03 -1 1 4.619080e-03 -57.4132 249.8386)" class="st1" width="2.24" height="23.92"/>
		</g>
	</g>
	<g>
		<g>
			
				<rect x="86.57" y="159.94" transform="matrix(4.615634e-03 -1 1 4.615634e-03 -79.1182 253.4793)" class="st1" width="2.4" height="13.08"/>
		</g>
	</g>
	<g>
		<g>
			<g>
				<path class="st1" d="M132.41,180.03c0-0.01,0.11,0,0.3-0.06c0.18-0.06,0.48-0.21,0.64-0.58c0.09-0.18,0.09-0.4,0.09-0.64
					c0-0.25,0-0.52,0-0.81c0-0.58,0-1.26-0.01-2.01c0-0.76,0-1.6,0-2.52c0-0.23,0-0.47,0-0.71c0.01-0.24-0.02-0.47-0.15-0.67
					c-0.12-0.2-0.32-0.36-0.55-0.43c-0.23-0.07-0.5-0.03-0.77-0.04c-2.16-0.01-4.61-0.01-7.32-0.02
					c-10.86-0.04-25.84-0.09-42.38-0.16c-0.46-0.01-0.88,0.36-0.93,0.82c-0.02,0.48-0.01,1.02-0.01,1.52
					c-0.01,1.02-0.01,2.04-0.01,3.05c0,0.5-0.01,1-0.01,1.51c0.01,0.25-0.03,0.51,0.03,0.71c0.06,0.21,0.19,0.4,0.37,0.52
					c0.19,0.13,0.39,0.17,0.63,0.16l0.74,0c0.49,0,0.98,0.01,1.47,0.01c3.9,0.02,7.67,0.04,11.25,0.06
					c7.17,0.04,13.63,0.08,19.05,0.12c5.42,0.04,9.8,0.08,12.84,0.1c1.51,0.02,2.68,0.03,3.49,0.04c0.39,0.01,0.69,0.01,0.91,0.02
					C132.31,180.02,132.41,180.03,132.41,180.03s-0.11,0.01-0.31,0.01c-0.21,0-0.52,0.01-0.91,0.01c-0.81,0-1.98,0.01-3.49,0.01
					c-3.04-0.01-7.43-0.01-12.84-0.02c-5.43-0.02-11.88-0.04-19.05-0.06c-3.59-0.02-7.35-0.03-11.25-0.04
					c-0.49,0-0.98-0.01-1.47-0.01l-0.74,0c-0.25,0.01-0.55-0.05-0.78-0.21c-0.23-0.16-0.4-0.4-0.48-0.67
					c-0.08-0.28-0.03-0.53-0.04-0.78c0-0.5,0-1,0.01-1.5c0.01-1.01,0.01-2.02,0.01-3.05c0.01-0.52-0.01-1.01,0.02-1.55
					c0.06-0.58,0.6-1.07,1.19-1.05c16.55,0.09,31.53,0.17,42.38,0.23c2.71,0.02,5.16,0.04,7.32,0.05c0.27,0.02,0.54-0.03,0.81,0.06
					c0.27,0.08,0.49,0.26,0.63,0.49c0.15,0.22,0.18,0.51,0.16,0.74c0,0.24,0,0.48-0.01,0.71c-0.01,0.92-0.02,1.76-0.02,2.52
					c-0.01,0.76-0.02,1.43-0.02,2.01c0,0.29-0.01,0.56-0.01,0.81c0.01,0.24-0.01,0.48-0.11,0.67c-0.18,0.38-0.49,0.53-0.68,0.58
					C132.52,180.05,132.41,180.03,132.41,180.03z"/>
			</g>
		</g>
	</g>
	<g>
		<g>
			
				<rect x="86.47" y="182.78" transform="matrix(4.596210e-03 -1 1 4.596210e-03 -102.0472 276.1193)" class="st1" width="2.4" height="13.08"/>
		</g>
	</g>
	<g>
		<g>
			<g>
				<path class="st1" d="M132.32,202.87c0-0.01,0.11,0,0.3-0.06c0.18-0.06,0.48-0.21,0.64-0.58c0.09-0.18,0.09-0.4,0.09-0.64
					c0-0.25,0-0.52,0-0.81c0-0.58,0-1.26,0-2.01c0-0.76,0-1.6,0-2.52c0-0.23,0-0.47,0-0.71c0.01-0.24-0.02-0.47-0.15-0.67
					c-0.12-0.2-0.32-0.36-0.55-0.43c-0.23-0.07-0.5-0.03-0.77-0.04c-2.16-0.01-4.61-0.01-7.32-0.02
					c-10.86-0.04-25.84-0.09-42.38-0.16c-0.46-0.01-0.88,0.36-0.93,0.82c-0.02,0.48-0.01,1.02-0.01,1.52
					c-0.01,1.02-0.01,2.04-0.01,3.05c0,0.5-0.01,1-0.01,1.51c0.01,0.25-0.03,0.51,0.03,0.71c0.06,0.21,0.19,0.4,0.37,0.52
					c0.19,0.13,0.39,0.17,0.63,0.16l0.74,0c0.49,0,0.98,0.01,1.47,0.01c3.9,0.02,7.67,0.04,11.25,0.06
					c7.17,0.04,13.63,0.08,19.05,0.12c5.42,0.04,9.8,0.08,12.84,0.1c1.51,0.02,2.68,0.03,3.49,0.04c0.39,0.01,0.69,0.01,0.91,0.02
					C132.21,202.86,132.32,202.87,132.32,202.87s-0.11,0.01-0.31,0.01c-0.22,0-0.52,0.01-0.91,0.01c-0.81,0-1.98,0.01-3.49,0.01
					c-3.04-0.01-7.43-0.01-12.84-0.02c-5.43-0.02-11.88-0.04-19.05-0.06c-3.59-0.02-7.35-0.03-11.25-0.04
					c-0.49,0-0.98-0.01-1.47-0.01l-0.74,0c-0.25,0.01-0.55-0.05-0.78-0.21c-0.23-0.16-0.4-0.4-0.48-0.67
					c-0.07-0.28-0.03-0.53-0.04-0.78c0-0.5,0.01-1,0.01-1.5c0.01-1.01,0.01-2.02,0.01-3.05c0.01-0.52-0.01-1.01,0.02-1.55
					c0.06-0.58,0.6-1.07,1.19-1.05c16.55,0.09,31.53,0.17,42.38,0.23c2.71,0.02,5.16,0.04,7.32,0.05c0.27,0.01,0.54-0.03,0.81,0.06
					c0.26,0.08,0.49,0.26,0.63,0.49c0.15,0.22,0.18,0.51,0.16,0.74c0,0.24-0.01,0.48-0.01,0.71c-0.01,0.92-0.02,1.77-0.02,2.52
					c-0.01,0.76-0.02,1.43-0.02,2.01c0,0.29-0.01,0.56-0.01,0.81c0.01,0.24-0.01,0.48-0.11,0.67c-0.18,0.38-0.49,0.53-0.68,0.58
					C132.42,202.89,132.32,202.87,132.32,202.87z"/>
			</g>
		</g>
	</g>
	<g>
		<g>
			
				<rect x="95.58" y="163.7" transform="matrix(4.619041e-03 -1 1 4.619041e-03 -79.4032 271.5435)" class="st1" width="2.24" height="23.92"/>
		</g>
	</g>
	<g>
		<g>
			<g>
				<path class="st1" d="M86.92,198.72c0,0.62-0.47,1.11-1.05,1.11c-0.58,0-1.04-0.5-1.04-1.12c0-0.62,0.47-1.11,1.05-1.11
					C86.45,197.6,86.92,198.1,86.92,198.72z"/>
			</g>
		</g>
		<g>
			<g>
				<path class="st1" d="M90.16,198.73c0,0.62-0.47,1.11-1.05,1.11c-0.58,0-1.04-0.5-1.04-1.12c0-0.62,0.47-1.11,1.05-1.11
					C89.69,197.61,90.16,198.12,90.16,198.73z"/>
			</g>
		</g>
		<g>
			<g>
				<path class="st1" d="M93.4,198.75c0,0.62-0.47,1.11-1.05,1.11s-1.04-0.5-1.04-1.12c0-0.62,0.47-1.11,1.05-1.11
					S93.4,198.13,93.4,198.75z"/>
			</g>
		</g>
		<g>
			<g>
				<path class="st1" d="M96.64,198.76c0,0.62-0.47,1.11-1.05,1.11c-0.58,0-1.04-0.5-1.04-1.12c0-0.62,0.47-1.11,1.05-1.11
					C96.17,197.64,96.64,198.15,96.64,198.76z"/>
			</g>
		</g>
		<g>
			<g>
				<path class="st1" d="M99.88,198.78c0,0.62-0.47,1.11-1.05,1.11c-0.58,0-1.04-0.5-1.04-1.12c0-0.62,0.47-1.11,1.05-1.11
					C99.41,197.66,99.88,198.16,99.88,198.78z"/>
			</g>
		</g>
		<g>
			<g>
				<path class="st1" d="M103.12,198.79c0,0.62-0.47,1.11-1.05,1.11c-0.58,0-1.04-0.5-1.04-1.12c0-0.62,0.47-1.11,1.05-1.11
					C102.65,197.68,103.12,198.18,103.12,198.79z"/>
			</g>
		</g>
		<g>
			<g>
				<path class="st1" d="M106.36,198.81c0,0.62-0.47,1.11-1.05,1.11s-1.04-0.5-1.04-1.12c0-0.62,0.47-1.11,1.05-1.11
					C105.89,197.69,106.36,198.19,106.36,198.81z"/>
			</g>
		</g>
		<g>
			<g>
				<path class="st1" d="M109.6,198.82c0,0.62-0.47,1.11-1.05,1.11c-0.58,0-1.04-0.5-1.04-1.12c0-0.62,0.47-1.11,1.05-1.11
					C109.13,197.71,109.6,198.21,109.6,198.82z"/>
			</g>
		</g>
		<g>
			<g>
				<path class="st1" d="M112.84,198.84c0,0.62-0.47,1.11-1.05,1.11c-0.58,0-1.04-0.5-1.04-1.12s0.47-1.11,1.05-1.11
					C112.37,197.72,112.84,198.22,112.84,198.84z"/>
			</g>
		</g>
	</g>
	<g>
		<g>
			<path class="st1" d="M108.24,125.43c0.68-0.29,1.17-0.99,1.17-1.83c0.01-1.09-0.82-1.98-1.84-1.98
				c-1.02-0.01-1.85,0.87-1.86,1.96c0,0.84,0.49,1.55,1.18,1.84c-2.85,0.43-2.72,3.52-2.72,3.52l6.73,0.03
				C110.9,128.98,111.06,125.86,108.24,125.43z"/>
		</g>
	</g>
	<g>
		<g>
			
				<rect x="105.73" y="120.39" transform="matrix(4.615052e-03 -1 1 4.615052e-03 -25.7131 238.945)" class="st1" width="2.87" height="24"/>
		</g>
	</g>
</g>
<g>
	<path class="st3" d="M103.5,54.75c1.64,1.22,3.08,2.65,4.31,4.22l5.5-1l3.63,8.51l-4.53,3.28c0.29,1.98,0.32,4,0.07,6.03l4.6,3.18
		l-3.45,8.58l-5.52-0.89c-1.22,1.64-2.65,3.08-4.22,4.31l1,5.5l-8.51,3.63l-3.28-4.53c-1.98,0.29-4,0.32-6.03,0.07l-3.18,4.6
		l-8.59-3.45l0.89-5.52c-1.64-1.22-3.08-2.65-4.31-4.22l-5.5,1l-3.63-8.51l4.53-3.28c-0.29-1.98-0.32-4-0.07-6.03l-4.6-3.18
		l3.45-8.58l5.52,0.89c1.22-1.64,2.65-3.08,4.22-4.31l-1-5.5l8.51-3.63l3.28,4.53c1.98-0.29,4-0.32,6.03-0.07l3.18-4.6l8.58,3.45
		L103.5,54.75L103.5,54.75z M93.94,63.95c-5.09-2.04-10.87,0.42-12.91,5.51c-2.04,5.09,0.42,10.87,5.51,12.91
		c5.09,2.04,10.87-0.42,12.91-5.51C101.49,71.77,99.03,66,93.94,63.95z"/>
</g>
<g>
	<g>
		<path class="st4" d="M235.4,54.52h-68.83c-1.36,0-2.45-1.1-2.45-2.45V37.71c0-1.36,1.1-2.45,2.45-2.45h68.83
			c1.36,0,2.45,1.1,2.45,2.45v14.35C237.86,53.42,236.76,54.52,235.4,54.52z"/>
	</g>
	<g>
		<g>
			<path class="st2" d="M175.86,45.47c0.84-0.35,1.44-1.22,1.44-2.24c0.01-1.34-1.01-2.42-2.26-2.43c-1.25-0.01-2.27,1.07-2.28,2.41
				c-0.01,1.03,0.6,1.91,1.45,2.26c-1.91,0.29-2.72,1.55-3.07,2.64c0.79,0.9,1.9,1.52,3.15,1.7l1.4,0.01
				c1.27-0.17,2.39-0.79,3.2-1.71C178.54,47.01,177.74,45.75,175.86,45.47z"/>
		</g>
		<g>
			<g>
				<rect x="184.97" y="40.26" class="st2" width="18.15" height="1.36"/>
			</g>
			<g>
				<rect x="184.97" y="47.96" class="st2" width="31.81" height="1.36"/>
			</g>
			<g>
				<rect x="184.97" y="44.02" class="st2" width="46.09" height="1.36"/>
			</g>
		</g>
	</g>
</g>
<g>
	<g>
		<path class="st0" d="M142.3,44.25c0.93,0.7,1.76,1.51,2.46,2.41l3.14-0.57l2.07,4.86l-2.59,1.87c0.16,1.13,0.18,2.28,0.04,3.44
			l2.62,1.81l-1.97,4.9l-3.15-0.5c-0.7,0.94-1.51,1.76-2.41,2.46l0.57,3.14l-4.85,2.07l-1.87-2.59c-1.13,0.16-2.28,0.18-3.44,0.04
			l-1.81,2.62l-4.9-1.97l0.5-3.15c-0.94-0.7-1.76-1.51-2.46-2.41l-3.14,0.57l-2.07-4.86l2.59-1.87c-0.16-1.13-0.18-2.28-0.04-3.44
			l-2.62-1.81l1.97-4.9l3.15,0.5c0.7-0.94,1.51-1.76,2.41-2.46l-0.57-3.14l4.85-2.07l1.87,2.59c1.13-0.16,2.28-0.18,3.44-0.04
			l1.81-2.62l4.9,1.97L142.3,44.25L142.3,44.25z M136.85,49.5c-2.9-1.17-6.2,0.24-7.37,3.15c-1.17,2.9,0.24,6.2,3.15,7.37
			c2.9,1.17,6.2-0.24,7.37-3.15C141.16,53.97,139.75,50.67,136.85,49.5z"/>
	</g>
	<g>
		<g>
			<path class="st0" d="M136.85,49.5c0,0,0.5,0.12,1.25,0.63c0.74,0.5,1.74,1.5,2.2,3.09c0.22,0.79,0.31,1.71,0.12,2.66
				c-0.19,0.94-0.62,1.93-1.36,2.74c-0.36,0.41-0.79,0.78-1.28,1.08c-0.48,0.31-1.03,0.54-1.6,0.68c-1.15,0.31-2.44,0.23-3.62-0.23
				c-1.17-0.48-2.16-1.32-2.77-2.34c-0.32-0.5-0.55-1.05-0.68-1.6c-0.15-0.55-0.21-1.12-0.18-1.66c0.03-1.1,0.4-2.1,0.92-2.92
				c0.52-0.82,1.22-1.43,1.93-1.84c1.44-0.83,2.85-0.86,3.73-0.71C136.41,49.24,136.85,49.5,136.85,49.5
				c-0.01,0.04-0.47-0.18-1.36-0.29c-0.87-0.11-2.23-0.04-3.59,0.78c-0.67,0.41-1.33,1-1.82,1.79c-0.48,0.78-0.83,1.75-0.85,2.78
				c-0.02,0.52,0.04,1.05,0.18,1.57c0.13,0.53,0.35,1.04,0.65,1.51c0.58,0.96,1.52,1.75,2.62,2.2c1.11,0.43,2.33,0.51,3.42,0.22
				c0.55-0.13,1.06-0.35,1.52-0.64c0.46-0.28,0.88-0.62,1.22-1.01c0.71-0.76,1.12-1.7,1.31-2.6c0.19-0.9,0.12-1.79-0.07-2.55
				c-0.41-1.54-1.35-2.53-2.05-3.05C137.31,49.7,136.83,49.54,136.85,49.5z"/>
		</g>
	</g>
	<g>
		<g>
			<path class="st0" d="M142.3,44.25c-0.01,0,0-0.06,0.02-0.2c0.02-0.15,0.05-0.34,0.08-0.6c0.08-0.55,0.2-1.34,0.35-2.36l0.03,0.06
				c-1.26-0.5-2.91-1.15-4.91-1.94l0.1-0.03c-0.55,0.8-1.15,1.68-1.8,2.63l-0.03,0.05l-0.06-0.01c-1.07-0.13-2.22-0.13-3.41,0.05
				l-0.06,0.01l-0.04-0.05c-0.58-0.8-1.22-1.67-1.88-2.58l0.14,0.04c-1.53,0.66-3.15,1.35-4.85,2.08l0.08-0.14
				c0.18,0.97,0.38,2.04,0.58,3.14l0.02,0.08l-0.06,0.05c-0.84,0.65-1.67,1.48-2.38,2.44l-0.05,0.07l-0.08-0.01
				c-0.98-0.16-2.05-0.33-3.15-0.5l0.16-0.09c-0.62,1.54-1.28,3.2-1.96,4.9l-0.05-0.18c0.82,0.56,1.71,1.18,2.62,1.81l0.08,0.05
				l-0.01,0.09c-0.13,1.06-0.13,2.23,0.04,3.4l0.01,0.09l-0.08,0.06c-0.81,0.59-1.69,1.23-2.58,1.87l0.05-0.19
				c0.66,1.54,1.36,3.19,2.07,4.85l-0.18-0.09c0.99-0.18,2.06-0.38,3.14-0.57l0.1-0.02l0.06,0.08c0.66,0.85,1.49,1.68,2.42,2.38l0,0
				l0,0c0.03,0.07-0.06-0.16,0.06,0.16v0v0.01l0,0.01l-0.01,0.03l-0.01,0.05l-0.02,0.1l-0.03,0.2l-0.06,0.39l-0.13,0.79
				c-0.08,0.53-0.17,1.05-0.25,1.57l-0.1-0.18c1.66,0.67,3.29,1.32,4.9,1.97l-0.19,0.06c0.61-0.88,1.21-1.76,1.81-2.62l0.05-0.08
				l0.09,0.01c1.14,0.14,2.29,0.13,3.4-0.04l0.09-0.01l0.06,0.08c0.63,0.87,1.25,1.74,1.87,2.59l-0.19-0.05
				c1.66-0.7,3.28-1.39,4.86-2.07l-0.09,0.16c-0.19-1.07-0.38-2.11-0.57-3.14l-0.02-0.09l0.07-0.05c0.92-0.72,1.72-1.54,2.39-2.43
				l0.05-0.07l0.08,0.01c1.08,0.17,2.13,0.35,3.15,0.51l-0.15,0.08c0.7-1.72,1.35-3.35,1.98-4.9l0.04,0.15
				c-0.92-0.64-1.79-1.24-2.62-1.82l-0.06-0.04l0.01-0.07c0.15-1.21,0.12-2.35-0.03-3.41l-0.01-0.06l0.05-0.04
				c0.94-0.68,1.79-1.29,2.59-1.86l-0.03,0.12c-0.79-1.88-1.47-3.49-2.05-4.87l0.08,0.04c-1.26,0.22-2.28,0.4-3.14,0.55l-0.03,0.01
				l-0.02-0.03c-0.71-0.92-1.34-1.51-1.77-1.89c-0.21-0.18-0.37-0.32-0.49-0.42C142.35,44.3,142.3,44.25,142.3,44.25
				c0.01,0,0.06,0.04,0.18,0.12c0.11,0.08,0.29,0.21,0.51,0.39c0.44,0.37,1.09,0.95,1.82,1.86l-0.05-0.02
				c0.86-0.16,1.88-0.36,3.13-0.59l0.06-0.01l0.02,0.05c0.59,1.37,1.28,2.97,2.09,4.85l0.03,0.07l-0.06,0.05
				c-0.8,0.58-1.64,1.2-2.58,1.88l0.04-0.1c0.16,1.08,0.19,2.24,0.05,3.47l-0.05-0.11c0.84,0.57,1.7,1.17,2.63,1.81l0.08,0.06
				l-0.04,0.09c-0.62,1.55-1.27,3.18-1.96,4.9l-0.04,0.1l-0.11-0.02c-1.02-0.16-2.07-0.33-3.15-0.5l0.14-0.05
				c-0.68,0.91-1.49,1.76-2.43,2.49l0.05-0.14c0.19,1.03,0.38,2.07,0.58,3.14l0.02,0.12l-0.11,0.05c-1.58,0.67-3.2,1.37-4.85,2.08
				l-0.11,0.05l-0.07-0.1c-0.62-0.85-1.24-1.71-1.87-2.58l0.15,0.06c-1.14,0.17-2.31,0.18-3.48,0.04l0.15-0.07
				c-0.6,0.87-1.2,1.74-1.81,2.62l-0.07,0.11l-0.12-0.05c-1.61-0.65-3.25-1.3-4.9-1.97l-0.12-0.05l0.02-0.13
				c0.08-0.52,0.17-1.05,0.25-1.57l0.13-0.79l0.06-0.39l0.03-0.2l0.02-0.1l0.01-0.05l0.01-0.03l0-0.01v-0.01v0
				c0.13,0.31,0.04,0.09,0.06,0.16l0,0l0,0c-0.96-0.72-1.81-1.56-2.49-2.44l0.16,0.06c-1.08,0.2-2.15,0.39-3.14,0.57l-0.13,0.02
				l-0.05-0.12c-0.71-1.67-1.41-3.32-2.07-4.86l-0.05-0.12l0.1-0.07c0.89-0.65,1.78-1.28,2.59-1.87l-0.06,0.15
				c-0.17-1.2-0.17-2.4-0.04-3.48l0.07,0.15c-0.91-0.63-1.8-1.25-2.62-1.82l-0.1-0.07l0.05-0.11c0.68-1.7,1.35-3.36,1.97-4.9
				l0.04-0.11l0.12,0.02c1.1,0.18,2.17,0.35,3.15,0.51l-0.13,0.05c0.73-0.98,1.58-1.82,2.44-2.48l-0.05,0.13
				c-0.2-1.1-0.39-2.17-0.57-3.14l-0.02-0.1l0.09-0.04c1.7-0.72,3.33-1.41,4.86-2.06l0.08-0.04l0.05,0.07
				c0.65,0.91,1.28,1.78,1.86,2.59l-0.1-0.04c1.21-0.17,2.39-0.16,3.47-0.03l-0.09,0.04c0.66-0.94,1.27-1.83,1.83-2.62l0.04-0.05
				l0.06,0.03c1.99,0.81,3.64,1.48,4.89,2l0.04,0.02l-0.01,0.04c-0.17,1.01-0.31,1.79-0.4,2.33c-0.05,0.26-0.08,0.45-0.11,0.6
				C142.32,44.18,142.31,44.25,142.3,44.25z"/>
		</g>
	</g>
</g>
<g>
	<g>
		<path class="st5" d="M214.96,167.19c1.18,0.88,2.22,1.91,3.11,3.05l3.97-0.73l2.62,6.14l-3.27,2.37c0.21,1.43,0.23,2.89,0.05,4.36
			l3.32,2.29l-2.49,6.2l-3.98-0.64c-0.88,1.18-1.91,2.22-3.05,3.11l0.73,3.97l-6.14,2.62l-2.37-3.27c-1.43,0.21-2.89,0.23-4.36,0.05
			l-2.29,3.32l-6.2-2.49l0.64-3.98c-1.18-0.88-2.22-1.91-3.11-3.05l-3.97,0.73l-2.62-6.14l3.27-2.37c-0.21-1.43-0.23-2.89-0.05-4.35
			l-3.32-2.29l2.49-6.2l3.98,0.64c0.88-1.18,1.91-2.22,3.05-3.11l-0.73-3.97l6.14-2.62l2.37,3.27c1.43-0.21,2.89-0.23,4.36-0.05
			l2.29-3.32l6.2,2.49L214.96,167.19L214.96,167.19z M208.05,173.83c-3.67-1.47-7.84,0.31-9.32,3.98c-1.47,3.67,0.31,7.84,3.98,9.32
			c3.67,1.47,7.84-0.31,9.32-3.98C213.51,179.48,211.73,175.31,208.05,173.83z"/>
	</g>
	<g>
		<g>
			<path class="st6" d="M214.96,167.19c1.18,0.88,2.22,1.91,3.11,3.05l3.97-0.73l2.62,6.14l-3.27,2.37
				c0.21,1.43,0.23,2.89,0.05,4.36l3.32,2.29l-2.49,6.2l-3.98-0.64c-0.88,1.18-1.91,2.22-3.05,3.11l0.73,3.97l-6.14,2.62l-2.37-3.27
				c-1.43,0.21-2.89,0.23-4.36,0.05l-2.29,3.32l-6.2-2.49l0.64-3.98c-1.18-0.88-2.22-1.91-3.11-3.05l-3.97,0.73l-2.62-6.14
				l3.27-2.37c-0.21-1.43-0.23-2.89-0.05-4.35l-3.32-2.29l2.49-6.2l3.98,0.64c0.88-1.18,1.91-2.22,3.05-3.11l-0.73-3.97l6.14-2.62
				l2.37,3.27c1.43-0.21,2.89-0.23,4.36-0.05l2.29-3.32l6.2,2.49L214.96,167.19L214.96,167.19z M208.05,173.83
				c-3.67-1.47-7.84,0.31-9.32,3.98c-1.47,3.67,0.31,7.84,3.98,9.32c3.67,1.47,7.84-0.31,9.32-3.98
				C213.51,179.48,211.73,175.31,208.05,173.83z"/>
		</g>
		<g>
			<g>
				<path class="st7" d="M208.05,173.83c0,0,0.63,0.16,1.58,0.81c0.93,0.64,2.19,1.9,2.76,3.91c0.28,0.99,0.39,2.15,0.14,3.35
					c-0.25,1.19-0.78,2.43-1.71,3.45c-0.45,0.52-1,0.98-1.61,1.35c-0.61,0.38-1.29,0.68-2.02,0.86c-1.45,0.39-3.07,0.29-4.55-0.29
					c-1.47-0.6-2.71-1.66-3.48-2.94c-0.4-0.63-0.69-1.32-0.86-2.02c-0.18-0.69-0.26-1.4-0.23-2.09c0.03-1.38,0.51-2.65,1.15-3.67
					c0.65-1.03,1.54-1.8,2.42-2.32c1.8-1.05,3.59-1.09,4.7-0.91C207.49,173.51,208.05,173.83,208.05,173.83
					c-0.01,0.04-0.59-0.24-1.71-0.38c-1.1-0.14-2.83-0.06-4.57,0.98c-0.85,0.52-1.69,1.27-2.31,2.27c-0.61,1-1.06,2.22-1.08,3.54
					c-0.03,0.66,0.05,1.34,0.23,2c0.17,0.67,0.45,1.33,0.83,1.93c0.74,1.23,1.93,2.23,3.33,2.81c1.41,0.55,2.96,0.65,4.35,0.28
					c0.69-0.17,1.35-0.45,1.93-0.82c0.59-0.36,1.12-0.79,1.55-1.29c0.9-0.97,1.42-2.16,1.67-3.3c0.25-1.15,0.15-2.27-0.1-3.24
					c-0.53-1.95-1.72-3.21-2.62-3.87C208.65,174.07,208.03,173.87,208.05,173.83z"/>
			</g>
		</g>
		<g>
			<g>
				<path class="st7" d="M214.96,167.19c0,0,0.01-0.08,0.03-0.25c0.03-0.18,0.06-0.43,0.11-0.76c0.1-0.68,0.25-1.68,0.45-2.98
					l0.03,0.06c-1.59-0.63-3.68-1.46-6.21-2.46l0.1-0.03c-0.69,1.01-1.46,2.13-2.28,3.33l-0.03,0.05l-0.06-0.01
					c-1.35-0.16-2.81-0.16-4.33,0.06l-0.06,0.01l-0.04-0.05c-0.74-1.02-1.54-2.12-2.37-3.27l0.14,0.04
					c-1.93,0.83-3.98,1.71-6.14,2.63l0.08-0.14c0.23,1.23,0.48,2.58,0.73,3.97l0.02,0.08l-0.06,0.05c-1.06,0.83-2.12,1.87-3.02,3.09
					l-0.05,0.07l-0.08-0.01c-1.24-0.2-2.6-0.42-3.98-0.64l0.16-0.09c-0.78,1.95-1.62,4.05-2.48,6.2l-0.05-0.18
					c1.03,0.71,2.17,1.5,3.32,2.29l0.08,0.05l-0.01,0.09c-0.16,1.34-0.17,2.83,0.05,4.31l0.01,0.09l-0.08,0.06
					c-1.03,0.74-2.14,1.55-3.27,2.37l0.05-0.19c0.83,1.95,1.72,4.03,2.62,6.14l-0.18-0.09c1.25-0.23,2.61-0.48,3.97-0.73l0.1-0.02
					l0.06,0.08c0.84,1.08,1.89,2.13,3.08,3.01l0,0l0.08,0.06l-0.02,0.1c-0.22,1.34-0.43,2.67-0.64,3.98l-0.1-0.18
					c2.09,0.84,4.16,1.67,6.2,2.49l-0.19,0.06c0.77-1.12,1.54-2.22,2.29-3.32l0.05-0.08l0.09,0.01c1.45,0.18,2.9,0.16,4.31-0.04
					l0.09-0.01l0.06,0.08c0.8,1.11,1.59,2.2,2.36,3.27l-0.19-0.05c2.1-0.89,4.14-1.77,6.14-2.62l-0.09,0.16
					c-0.24-1.35-0.48-2.67-0.72-3.97l-0.02-0.09l0.07-0.05c1.16-0.9,2.18-1.95,3.02-3.08l0.05-0.07l0.08,0.01
					c1.37,0.22,2.69,0.44,3.98,0.65l-0.15,0.08c0.88-2.18,1.71-4.23,2.5-6.19l0.04,0.15c-1.17-0.81-2.26-1.57-3.31-2.3l-0.06-0.04
					l0.01-0.07c0.19-1.53,0.15-2.98-0.04-4.32l-0.01-0.06l0.05-0.04c1.19-0.86,2.26-1.63,3.28-2.36l-0.03,0.12
					c-1.01-2.38-1.87-4.41-2.6-6.15l0.08,0.04c-1.59,0.28-2.89,0.51-3.97,0.7l-0.03,0.01l-0.02-0.03c-0.9-1.16-1.7-1.91-2.24-2.38
					c-0.27-0.24-0.48-0.41-0.62-0.52C215.02,167.24,214.96,167.19,214.96,167.19s0.08,0.05,0.22,0.15c0.14,0.11,0.36,0.27,0.64,0.5
					c0.55,0.47,1.37,1.2,2.29,2.36l-0.05-0.02c1.08-0.2,2.38-0.45,3.97-0.75l0.06-0.01l0.02,0.05c0.75,1.73,1.62,3.76,2.64,6.13
					l0.03,0.07l-0.06,0.05c-1.01,0.73-2.08,1.51-3.26,2.37l0.04-0.1c0.2,1.37,0.25,2.83,0.06,4.38l-0.05-0.11
					c1.06,0.73,2.16,1.48,3.32,2.29l0.08,0.06l-0.04,0.09c-0.78,1.96-1.61,4.02-2.48,6.2l-0.04,0.1l-0.11-0.02
					c-1.29-0.21-2.62-0.42-3.98-0.63l0.14-0.05c-0.86,1.15-1.89,2.22-3.07,3.14l0.05-0.14c0.24,1.3,0.48,2.62,0.73,3.97l0.02,0.12
					l-0.11,0.05c-2,0.85-4.04,1.73-6.14,2.62l-0.11,0.05l-0.07-0.1c-0.78-1.07-1.57-2.16-2.37-3.27l0.15,0.06
					c-1.44,0.21-2.92,0.23-4.4,0.05l0.15-0.07c-0.76,1.1-1.52,2.2-2.29,3.32l-0.07,0.11l-0.12-0.05c-2.04-0.82-4.11-1.65-6.2-2.49
					l-0.12-0.05l0.02-0.13c0.21-1.32,0.43-2.65,0.64-3.98l0.06,0.16l0,0c-1.21-0.9-2.28-1.97-3.14-3.08l0.16,0.06
					c-1.36,0.25-2.72,0.49-3.97,0.73l-0.13,0.02l-0.05-0.12c-0.9-2.11-1.79-4.2-2.62-6.14l-0.05-0.12l0.1-0.07
					c1.13-0.82,2.25-1.62,3.27-2.36l-0.06,0.15c-0.22-1.51-0.22-3.03-0.05-4.39l0.07,0.15c-1.15-0.79-2.28-1.58-3.32-2.3l-0.1-0.07
					l0.05-0.11c0.87-2.15,1.71-4.25,2.5-6.2l0.04-0.11l0.12,0.02c1.39,0.23,2.75,0.45,3.98,0.64l-0.13,0.05
					c0.92-1.23,2-2.3,3.08-3.13l-0.05,0.13c-0.25-1.39-0.5-2.74-0.72-3.97l-0.02-0.1l0.09-0.04c2.16-0.92,4.21-1.79,6.15-2.61
					l0.08-0.04l0.05,0.07c0.83,1.15,1.62,2.26,2.36,3.28l-0.1-0.04c1.54-0.22,3.02-0.21,4.38-0.04l-0.09,0.04
					c0.83-1.19,1.61-2.31,2.3-3.31l0.04-0.05l0.06,0.03c2.52,1.03,4.6,1.87,6.19,2.52l0.04,0.02l-0.01,0.04
					c-0.22,1.29-0.39,2.27-0.5,2.95c-0.06,0.33-0.1,0.58-0.14,0.76C214.98,167.1,214.96,167.19,214.96,167.19z"/>
			</g>
		</g>
	</g>
</g>
<g>
	<g>
		<g>
			<g>
				<g>
					<path d="M184.97,265l-69.23-0.04c-8.33-0.01-15.07-6.76-15.07-15.08L100.7,76.3c0-8.33,6.76-15.08,15.09-15.08l69.23,0.04
						c8.33,0.01,15.07,6.76,15.07,15.08l-0.03,173.57C200.06,258.25,193.3,265.01,184.97,265z"/>
				</g>
			</g>
			<g>
				<g>
					<path class="st8" d="M184.95,67.41l-13.42-0.01c-1.8,0-3.26,1.53-3.26,3.41v2.44c0,1.88-1.46,3.41-3.26,3.41l-26.17-0.02
						c-1.8,0-3.26-1.53-3.26-3.41v-2.44c0-1.88-1.46-3.41-3.26-3.41l-4.72,0l-11.75-0.01c-5.83,0-10.57,4.72-10.57,10.56
						l-0.03,169.42c0,5.83,4.72,10.56,10.56,10.57l69.1,0.04c5.83,0,10.57-4.72,10.57-10.56l0.03-169.42
						C195.51,72.14,190.78,67.41,184.95,67.41z"/>
				</g>
			</g>
		</g>
	</g>
	<g>
		<g>
			<g>
				<path class="st7" d="M187.98,84.51c0,0.05-1.75,0.11-3.9,0.13c-2.15,0.02-3.9-0.01-3.9-0.06c0-0.05,1.75-0.11,3.9-0.13
					C186.23,84.43,187.98,84.46,187.98,84.51z"/>
			</g>
		</g>
		<g>
			<g>
				<path class="st7" d="M188,86.51c0,0.05-1.75,0.11-3.9,0.13c-2.15,0.02-3.9-0.01-3.9-0.06c0-0.05,1.75-0.11,3.9-0.13
					S188,86.45,188,86.51z"/>
			</g>
		</g>
		<g>
			<g>
				<path class="st7" d="M188.01,88.51c0,0.05-1.75,0.11-3.9,0.13c-2.15,0.02-3.9-0.01-3.9-0.06c0-0.05,1.75-0.11,3.9-0.13
					C186.27,88.42,188.01,88.45,188.01,88.51z"/>
			</g>
		</g>
	</g>
	<g>
		<g>
			<path d="M113.9,90.78c0,0,0.06-0.01,0.16-0.01c0.13-0.01,0.28-0.01,0.45-0.02c0.44-0.01,0.99-0.03,1.66-0.04l-0.05,0.06
				c-0.01-0.37-0.01-0.77-0.02-1.21c0-0.23-0.02-0.43,0-0.7c0.05-0.26,0.28-0.49,0.57-0.52c0.27-0.01,0.5-0.02,0.8-0.01
				c0.31,0.04,0.57,0.33,0.56,0.66c0.01,0.56,0.01,1.15,0.02,1.76l-0.09-0.09c0.67-0.01,1.38-0.02,2.1-0.02l-0.09,0.1
				c-0.01-0.85-0.02-1.72-0.02-2.62c0-0.22,0-0.45-0.01-0.67c0-0.2-0.12-0.33-0.29-0.49c-0.31-0.31-0.62-0.61-0.92-0.9
				c-0.3-0.3-0.59-0.59-0.88-0.87c-0.14-0.14-0.29-0.28-0.43-0.42c-0.15-0.14-0.26-0.29-0.43-0.32c-0.16-0.04-0.34-0.01-0.47,0.09
				c-0.12,0.11-0.26,0.26-0.39,0.38c-0.26,0.26-0.51,0.52-0.75,0.76c-0.47,0.49-0.97,0.94-1.33,1.36c-0.15,0.23-0.09,0.52-0.11,0.78
				c0,0.26,0,0.5,0,0.74c-0.01,0.45-0.01,0.85-0.01,1.19c-0.01,0.3-0.01,0.55-0.01,0.76C113.91,90.68,113.9,90.78,113.9,90.78
				c-0.01,0.01-0.01-0.08-0.02-0.25c-0.01-0.21-0.02-0.46-0.02-0.75c-0.01-0.35-0.02-0.75-0.03-1.2c-0.01-0.24-0.01-0.49-0.02-0.76
				c0.01-0.26-0.06-0.57,0.11-0.86c0.39-0.48,0.85-0.9,1.33-1.41c0.24-0.25,0.49-0.5,0.75-0.77c0.14-0.13,0.24-0.26,0.41-0.4
				c0.17-0.13,0.41-0.18,0.62-0.12c0.23,0.05,0.38,0.24,0.51,0.36c0.14,0.14,0.29,0.28,0.43,0.42c0.29,0.28,0.59,0.57,0.89,0.87
				s0.61,0.6,0.92,0.9c0.15,0.13,0.36,0.35,0.35,0.62c0,0.22,0.01,0.45,0.01,0.67c0.01,0.9,0.01,1.77,0.02,2.62v0.09h-0.09
				c-0.72,0.01-1.43,0.01-2.1,0.01h-0.09v-0.09c0-0.61-0.01-1.2-0.01-1.76c0.01-0.25-0.18-0.47-0.41-0.5
				c-0.24-0.01-0.53-0.01-0.76,0c-0.22,0.02-0.4,0.19-0.44,0.4c-0.02,0.21-0.01,0.46-0.01,0.67c0,0.43,0,0.84,0,1.21v0.06h-0.05
				c-0.68-0.01-1.25-0.01-1.69-0.02c-0.17,0-0.31-0.01-0.44-0.01C113.94,90.79,113.89,90.79,113.9,90.78z"/>
		</g>
	</g>
</g>
<g>
	<path class="st0" d="M142.28,114.72c0,1.87-0.05,3.19-0.14,3.96c-0.09,0.78-0.39,1.49-0.9,2.13c-0.5,0.64-1.18,1.14-2.04,1.48
		c-0.86,0.34-1.85,0.52-2.99,0.52c-1.08,0-2.05-0.16-2.91-0.49c-0.86-0.32-1.55-0.81-2.07-1.46c-0.52-0.65-0.84-1.36-0.94-2.12
		c-0.1-0.76-0.15-2.1-0.15-4.01v-3.18c0-1.87,0.05-3.19,0.14-3.96c0.09-0.78,0.39-1.49,0.9-2.13c0.5-0.64,1.18-1.14,2.04-1.48
		c0.86-0.34,1.85-0.52,2.99-0.52c1.08,0,2.05,0.16,2.91,0.49c0.86,0.33,1.55,0.81,2.07,1.46c0.52,0.65,0.84,1.36,0.94,2.12
		c0.1,0.76,0.15,2.1,0.15,4.01V114.72z M137.03,108.62c0-0.86-0.05-1.42-0.16-1.66c-0.11-0.24-0.32-0.36-0.64-0.36
		c-0.27,0-0.48,0.1-0.63,0.29c-0.15,0.19-0.22,0.77-0.22,1.73v8.67c0,1.08,0.05,1.74,0.14,2c0.09,0.25,0.32,0.38,0.67,0.38
		c0.36,0,0.58-0.15,0.68-0.44s0.15-0.98,0.15-2.08L137.03,108.62L137.03,108.62z"/>
	<path d="M147.83,109.17l-0.08,1.2c0.42-0.49,0.88-0.85,1.39-1.09s1.06-0.36,1.66-0.36c0.73,0,1.37,0.17,1.9,0.52
		c0.53,0.35,0.87,0.74,1,1.2c0.13,0.45,0.2,1.22,0.2,2.3v5.74c0,1.24-0.08,2.12-0.25,2.65c-0.17,0.52-0.51,0.94-1.03,1.25
		c-0.52,0.31-1.15,0.47-1.88,0.47c-0.58,0-1.13-0.12-1.63-0.36c-0.5-0.24-0.96-0.6-1.37-1.07v3.12h-4.73v-15.57H147.83z
		 M149.18,113.14c0-0.84-0.04-1.35-0.11-1.53c-0.07-0.18-0.27-0.27-0.58-0.27c-0.31,0-0.51,0.1-0.6,0.31
		c-0.09,0.21-0.14,0.7-0.14,1.49v5.65c0,0.82,0.05,1.34,0.14,1.54s0.3,0.31,0.61,0.31c0.31,0,0.49-0.09,0.57-0.28
		c0.07-0.19,0.11-0.65,0.11-1.37L149.18,113.14L149.18,113.14z"/>
	<path d="M165.84,116.38h-6.12v2.73c0,0.57,0.05,0.94,0.15,1.1c0.1,0.17,0.3,0.25,0.58,0.25c0.36,0,0.6-0.11,0.72-0.33
		c0.12-0.22,0.18-0.64,0.18-1.27v-1.67h4.48v0.93c0,0.78-0.06,1.38-0.18,1.8c-0.12,0.42-0.4,0.87-0.85,1.34
		c-0.45,0.47-1.01,0.83-1.69,1.07c-0.68,0.24-1.54,0.36-2.57,0.36c-1,0-1.88-0.12-2.64-0.35c-0.76-0.24-1.36-0.56-1.78-0.97
		c-0.43-0.41-0.72-0.86-0.88-1.35c-0.16-0.49-0.25-1.21-0.25-2.15v-3.69c0-1.1,0.18-1.98,0.55-2.61c0.37-0.64,0.97-1.13,1.8-1.47
		s1.79-0.51,2.88-0.51c1.33,0,2.42,0.21,3.28,0.62c0.86,0.41,1.47,0.95,1.81,1.63c0.35,0.68,0.52,1.63,0.52,2.85L165.84,116.38
		L165.84,116.38z M161.11,114.33v-0.92c0-0.65-0.04-1.08-0.13-1.27c-0.08-0.19-0.26-0.28-0.53-0.28c-0.33,0-0.53,0.08-0.61,0.24
		c-0.08,0.16-0.12,0.6-0.12,1.31v0.92L161.11,114.33L161.11,114.33z"/>
	<path class="st0" d="M166.99,103.93h5.07c1.6,0,2.82,0.12,3.64,0.35c0.83,0.24,1.49,0.72,2,1.44c0.51,0.72,0.76,1.88,0.76,3.48
		c0,1.08-0.18,1.84-0.54,2.27c-0.36,0.43-1.06,0.76-2.12,0.98c1.18,0.25,1.97,0.67,2.39,1.25c0.42,0.58,0.63,1.48,0.63,2.69v1.72
		c0,1.25-0.15,2.18-0.45,2.78c-0.3,0.6-0.78,1.02-1.44,1.24c-0.66,0.22-2.01,0.33-4.06,0.33h-5.88L166.99,103.93L166.99,103.93z
		 M172.08,107.1v4.12c0.22-0.01,0.38-0.01,0.51-0.01c0.5,0,0.82-0.12,0.95-0.35c0.14-0.23,0.21-0.9,0.21-2
		c0-0.58-0.06-0.99-0.17-1.22c-0.11-0.23-0.26-0.38-0.44-0.44C172.95,107.14,172.6,107.1,172.08,107.1z M172.08,114.1v5.19
		c0.72-0.02,1.17-0.13,1.37-0.32c0.2-0.19,0.29-0.66,0.29-1.41v-1.73c0-0.79-0.09-1.27-0.27-1.44
		C173.3,114.22,172.83,114.13,172.08,114.1z"/>
	<path d="M190.34,113.84v3.26c0,1.2-0.07,2.07-0.21,2.63c-0.14,0.56-0.44,1.08-0.9,1.56c-0.46,0.48-1.05,0.84-1.77,1.07
		c-0.72,0.23-1.55,0.35-2.49,0.35c-1.05,0-1.93-0.1-2.66-0.29c-0.73-0.2-1.29-0.49-1.69-0.89c-0.4-0.4-0.69-0.88-0.86-1.44
		c-0.17-0.56-0.26-1.41-0.26-2.54v-3.41c0-1.24,0.16-2.2,0.47-2.9c0.31-0.69,0.87-1.25,1.68-1.67c0.81-0.42,1.85-0.63,3.11-0.63
		c1.06,0,1.97,0.14,2.73,0.4c0.76,0.27,1.35,0.62,1.76,1.06c0.41,0.43,0.7,0.88,0.85,1.34
		C190.26,112.19,190.34,112.89,190.34,113.84z M185.61,112.84c0-0.68-0.04-1.11-0.13-1.29s-0.27-0.27-0.55-0.27
		s-0.47,0.09-0.56,0.27c-0.09,0.18-0.14,0.6-0.14,1.29v6c0,0.63,0.05,1.04,0.14,1.23c0.09,0.19,0.28,0.29,0.55,0.29
		c0.28,0,0.47-0.09,0.56-0.26s0.13-0.55,0.13-1.12V112.84z"/>
	<g>
		<path d="M142.45,128.64l-31.5-1.2c0,0,9.69-9.27,10.6-11.45l0.96,4.57l-3.59,5.74h12.95
			C134.88,127.53,138.46,128.51,142.45,128.64z"/>
		<path class="st0" d="M190.84,128.04v0.47c0,0-36.64,0.5-48.39,0.13c-3.99-0.13-7.58-1.11-10.57-2.34
			c-5.79-2.39-9.36-5.74-9.36-5.74l-0.96-4.57c0,0,1.76,3,12.75,8.35C145.3,129.69,184.42,127.51,190.84,128.04z"/>
	</g>
	<g>
		<g>
			<path d="M112.65,137.24c-0.37,0-0.69-0.09-0.96-0.28c-0.28-0.18-0.49-0.45-0.65-0.78c-0.16-0.34-0.24-0.74-0.24-1.19
				c0-0.47,0.08-0.94,0.24-1.41c0.16-0.48,0.37-0.94,0.64-1.37s0.57-0.83,0.92-1.17c0.34-0.34,0.7-0.61,1.08-0.81
				c0.38-0.2,0.75-0.3,1.12-0.3c0.12,0,0.23,0.01,0.33,0.03s0.18,0.05,0.25,0.08c-0.05,0-0.08,0-0.09,0s-0.02,0-0.02,0
				c-0.33,0-0.67,0.11-1.01,0.31s-0.66,0.49-0.97,0.84c-0.31,0.35-0.58,0.75-0.83,1.19s-0.44,0.89-0.58,1.37
				c-0.14,0.47-0.21,0.93-0.21,1.37c0,0.32,0.04,0.62,0.13,0.9c0.09,0.28,0.23,0.5,0.42,0.67c0.19,0.17,0.44,0.25,0.74,0.25
				c0.36,0,0.7-0.11,1.01-0.31s0.6-0.49,0.85-0.85s0.47-0.75,0.66-1.19c0.18-0.44,0.33-0.89,0.42-1.36c0.1-0.47,0.15-0.92,0.15-1.35
				c0-0.17-0.01-0.35-0.04-0.54c-0.03-0.19-0.07-0.36-0.14-0.5c-0.06-0.14-0.15-0.21-0.26-0.21c-0.12,0-0.24,0.07-0.38,0.21
				c-0.14,0.14-0.26,0.31-0.39,0.51s-0.24,0.42-0.33,0.64c-0.1,0.22-0.16,0.42-0.2,0.58c-0.16-0.04-0.28-0.09-0.35-0.18
				c-0.07-0.08-0.11-0.17-0.11-0.27c0-0.16,0.06-0.34,0.18-0.54c0.12-0.2,0.27-0.39,0.45-0.57c0.18-0.18,0.37-0.34,0.57-0.45
				s0.38-0.18,0.54-0.18c0.17,0,0.3,0.06,0.41,0.17c0.11,0.12,0.19,0.26,0.25,0.44c0.06,0.18,0.1,0.37,0.13,0.57
				c0.02,0.2,0.03,0.39,0.03,0.57c0,0.66-0.08,1.26-0.24,1.8c-0.16,0.54-0.37,1.02-0.64,1.43c-0.27,0.41-0.56,0.76-0.89,1.04
				c-0.33,0.28-0.66,0.49-1.01,0.64C113.29,137.16,112.96,137.24,112.65,137.24z"/>
			<path d="M115.99,138.99c-0.05,0-0.1-0.03-0.15-0.08c-0.05-0.05-0.08-0.11-0.11-0.16c-0.03-0.06-0.04-0.09-0.04-0.11
				c0.09-0.3,0.18-0.56,0.26-0.79s0.17-0.47,0.26-0.72c0.08-0.25,0.17-0.53,0.26-0.86c0.08-0.33,0.17-0.74,0.26-1.23
				c0.09-0.49,0.18-1.1,0.27-1.83c0.01-0.05,0.02-0.09,0.04-0.12c0.02-0.02,0.07-0.04,0.14-0.04c0.17,0,0.28,0.04,0.36,0.13
				c0.07,0.09,0.11,0.18,0.11,0.29c0,0.08-0.02,0.24-0.06,0.45c-0.04,0.22-0.09,0.47-0.16,0.77c0.11-0.2,0.25-0.4,0.41-0.61
				c0.16-0.21,0.35-0.38,0.56-0.52s0.44-0.21,0.69-0.21c0.28,0,0.52,0.09,0.7,0.29c0.18,0.19,0.27,0.44,0.27,0.75
				c0,0.24-0.06,0.48-0.17,0.75c-0.11,0.26-0.27,0.51-0.47,0.74c-0.2,0.23-0.44,0.42-0.72,0.57c-0.28,0.15-0.58,0.22-0.92,0.22
				c-0.17,0-0.3-0.02-0.4-0.05c-0.1-0.04-0.15-0.07-0.15-0.11c0-0.02,0.02-0.04,0.07-0.04c0.05,0,0.11-0.01,0.17-0.01
				c0.26,0,0.5-0.06,0.74-0.18c0.23-0.12,0.44-0.27,0.63-0.47c0.19-0.19,0.33-0.41,0.44-0.64s0.16-0.47,0.16-0.7
				c0-0.19-0.04-0.36-0.13-0.49s-0.23-0.21-0.42-0.21c-0.17,0-0.33,0.05-0.5,0.15c-0.16,0.1-0.32,0.23-0.46,0.38
				c-0.14,0.15-0.27,0.32-0.38,0.48c-0.11,0.17-0.2,0.32-0.26,0.45c-0.12,0.45-0.23,0.89-0.35,1.31c-0.12,0.42-0.23,0.8-0.33,1.14
				c-0.11,0.34-0.2,0.62-0.29,0.84s-0.16,0.35-0.22,0.4C116.08,138.97,116.04,138.99,115.99,138.99z"/>
			<path d="M121.41,136.85c-0.39,0-0.69-0.1-0.88-0.31c-0.19-0.2-0.29-0.45-0.29-0.75c0-0.27,0.07-0.56,0.22-0.86
				c0.14-0.3,0.34-0.59,0.58-0.85c0.24-0.27,0.5-0.48,0.79-0.65c0.29-0.17,0.57-0.25,0.86-0.25c0.15,0,0.28,0.04,0.41,0.11
				s0.19,0.22,0.19,0.44c0,0.23-0.07,0.45-0.22,0.65c-0.14,0.2-0.33,0.38-0.57,0.54c-0.24,0.16-0.49,0.29-0.77,0.38
				c-0.28,0.1-0.56,0.16-0.83,0.19c-0.01,0.06-0.02,0.12-0.03,0.17c-0.01,0.05-0.01,0.11-0.01,0.15c0,0.09,0.01,0.18,0.03,0.27
				c0.02,0.09,0.06,0.17,0.12,0.25c0.06,0.08,0.14,0.13,0.24,0.18c0.1,0.04,0.22,0.06,0.37,0.06c0.28,0,0.55-0.07,0.82-0.22
				c0.27-0.15,0.52-0.34,0.75-0.58c0.23-0.24,0.43-0.51,0.59-0.8l0.12,0.08c-0.17,0.36-0.39,0.68-0.66,0.94
				c-0.27,0.27-0.56,0.47-0.87,0.62C122.05,136.77,121.73,136.85,121.41,136.85z M120.94,135.32c0.17-0.05,0.37-0.13,0.59-0.24
				c0.22-0.11,0.43-0.23,0.63-0.38c0.2-0.15,0.37-0.31,0.5-0.48c0.13-0.17,0.2-0.36,0.2-0.55c0-0.07-0.01-0.12-0.04-0.15
				s-0.08-0.05-0.16-0.05c-0.15,0-0.32,0.06-0.49,0.17c-0.17,0.11-0.34,0.26-0.5,0.44c-0.16,0.18-0.31,0.38-0.43,0.6
				C121.1,134.89,121,135.1,120.94,135.32z"/>
			<path d="M126.69,136.63c-0.23,0-0.39-0.05-0.5-0.16c-0.11-0.11-0.17-0.25-0.17-0.42c0-0.13,0.02-0.26,0.07-0.4
				c0.05-0.14,0.09-0.28,0.14-0.43s0.07-0.29,0.07-0.43c0-0.17-0.04-0.29-0.11-0.35c-0.07-0.06-0.17-0.09-0.27-0.09
				c-0.2,0-0.4,0.08-0.61,0.23c-0.21,0.15-0.4,0.35-0.6,0.59c-0.19,0.24-0.37,0.48-0.54,0.74c-0.17,0.25-0.32,0.48-0.44,0.68
				c-0.1,0-0.2-0.02-0.29-0.05c-0.09-0.03-0.17-0.08-0.22-0.15c0-0.03,0.03-0.12,0.1-0.28c0.07-0.16,0.15-0.35,0.24-0.58
				s0.17-0.47,0.24-0.71c0.07-0.24,0.11-0.46,0.11-0.66c0.04-0.04,0.1-0.08,0.18-0.13c0.08-0.04,0.17-0.06,0.26-0.06
				c0.17,0,0.26,0.08,0.26,0.24c0,0.1-0.03,0.26-0.09,0.48c-0.06,0.23-0.13,0.46-0.22,0.71c0.17-0.25,0.37-0.49,0.58-0.74
				s0.44-0.45,0.69-0.61c0.24-0.16,0.49-0.25,0.73-0.25c0.25,0,0.43,0.08,0.54,0.25c0.11,0.17,0.17,0.36,0.17,0.56
				c0,0.19-0.03,0.36-0.1,0.52c-0.06,0.16-0.13,0.32-0.2,0.46s-0.1,0.3-0.1,0.45c0,0.13,0.03,0.22,0.08,0.27
				c0.05,0.05,0.12,0.08,0.21,0.08c0.16,0,0.32-0.07,0.48-0.21c0.16-0.14,0.32-0.32,0.47-0.54s0.28-0.44,0.4-0.66l0.11,0.12
				c-0.14,0.3-0.29,0.56-0.45,0.79s-0.35,0.41-0.55,0.54C127.15,136.56,126.93,136.63,126.69,136.63z"/>
			<path d="M128.76,136.68c-0.25,0-0.44-0.07-0.56-0.22c-0.12-0.15-0.18-0.33-0.18-0.54c0-0.14,0.03-0.32,0.08-0.53
				c0.05-0.21,0.13-0.43,0.22-0.67c0.09-0.23,0.19-0.45,0.31-0.66c0.12-0.21,0.25-0.37,0.38-0.5c0.14-0.13,0.27-0.19,0.39-0.19
				c0.06,0,0.11,0.02,0.15,0.05c0.04,0.03,0.06,0.08,0.06,0.15c0,0.07-0.05,0.19-0.15,0.35c-0.1,0.16-0.22,0.35-0.35,0.56
				c-0.14,0.21-0.25,0.43-0.35,0.67c-0.1,0.23-0.15,0.46-0.15,0.67c0,0.22,0.04,0.36,0.12,0.44c0.08,0.07,0.19,0.11,0.36,0.11
				c0.22,0,0.45-0.1,0.7-0.31c0.25-0.21,0.51-0.57,0.78-1.08l0.09,0.09c-0.19,0.52-0.45,0.92-0.8,1.2
				C129.51,136.54,129.14,136.68,128.76,136.68z M129.92,132.52c-0.1,0-0.19-0.02-0.27-0.07c-0.08-0.05-0.12-0.12-0.12-0.23
				c0-0.13,0.08-0.24,0.24-0.33c0.16-0.09,0.31-0.14,0.47-0.14c0.1,0,0.17,0.02,0.23,0.06c0.06,0.04,0.09,0.12,0.09,0.22
				c0,0.12-0.07,0.23-0.2,0.33C130.22,132.47,130.07,132.52,129.92,132.52z"/>
			<path d="M133.5,136.63c-0.23,0-0.39-0.05-0.5-0.16c-0.11-0.11-0.17-0.25-0.17-0.42c0-0.13,0.02-0.26,0.07-0.4
				c0.05-0.14,0.09-0.28,0.14-0.43s0.07-0.29,0.07-0.43c0-0.17-0.04-0.29-0.11-0.35c-0.07-0.06-0.17-0.09-0.27-0.09
				c-0.2,0-0.4,0.08-0.61,0.23c-0.21,0.15-0.4,0.35-0.6,0.59c-0.19,0.24-0.37,0.48-0.54,0.74c-0.17,0.25-0.32,0.48-0.44,0.68
				c-0.1,0-0.2-0.02-0.29-0.05c-0.09-0.03-0.17-0.08-0.22-0.15c0-0.03,0.03-0.12,0.1-0.28c0.07-0.16,0.15-0.35,0.24-0.58
				c0.09-0.23,0.17-0.47,0.24-0.71c0.07-0.24,0.11-0.46,0.11-0.66c0.04-0.04,0.1-0.08,0.18-0.13c0.08-0.04,0.17-0.06,0.26-0.06
				c0.17,0,0.26,0.08,0.26,0.24c0,0.1-0.03,0.26-0.09,0.48s-0.13,0.46-0.22,0.71c0.17-0.25,0.37-0.49,0.58-0.74s0.44-0.45,0.69-0.61
				c0.24-0.16,0.49-0.25,0.73-0.25c0.25,0,0.43,0.08,0.54,0.25c0.11,0.17,0.17,0.36,0.17,0.56c0,0.19-0.03,0.36-0.1,0.52
				c-0.06,0.16-0.13,0.32-0.2,0.46c-0.07,0.15-0.1,0.3-0.1,0.45c0,0.13,0.03,0.22,0.08,0.27c0.05,0.05,0.12,0.08,0.21,0.08
				c0.16,0,0.32-0.07,0.48-0.21c0.16-0.14,0.32-0.32,0.47-0.54c0.15-0.22,0.28-0.44,0.4-0.66l0.11,0.12
				c-0.14,0.3-0.29,0.56-0.45,0.79s-0.35,0.41-0.55,0.54C133.97,136.56,133.75,136.63,133.5,136.63z"/>
			<path d="M135.24,138.99c-0.14,0-0.27-0.04-0.38-0.12c-0.12-0.08-0.17-0.22-0.17-0.4c0-0.18,0.06-0.35,0.18-0.5
				c0.12-0.15,0.27-0.3,0.46-0.43c0.19-0.13,0.39-0.25,0.61-0.36c0.22-0.11,0.43-0.21,0.63-0.31c0.09-0.21,0.17-0.44,0.26-0.68
				c0.08-0.25,0.16-0.52,0.24-0.81c-0.24,0.33-0.5,0.61-0.77,0.83c-0.27,0.22-0.54,0.33-0.8,0.33c-0.23,0-0.41-0.08-0.54-0.25
				c-0.13-0.16-0.19-0.37-0.19-0.64c0-0.32,0.08-0.62,0.25-0.9c0.16-0.28,0.38-0.54,0.64-0.75s0.54-0.39,0.84-0.51
				c0.29-0.12,0.57-0.19,0.83-0.19c0.19,0,0.32,0.03,0.4,0.09c0.08,0.06,0.12,0.13,0.12,0.21c0,0.05-0.02,0.1-0.05,0.13
				c-0.03,0.03-0.05,0.05-0.07,0.05c-0.03-0.05-0.08-0.08-0.14-0.11c-0.06-0.02-0.14-0.03-0.24-0.03c-0.25,0-0.49,0.07-0.73,0.21
				c-0.24,0.14-0.44,0.32-0.62,0.54s-0.32,0.44-0.43,0.68c-0.11,0.23-0.16,0.45-0.16,0.64c0,0.15,0.03,0.26,0.09,0.33
				c0.06,0.08,0.14,0.11,0.25,0.11c0.19,0,0.41-0.12,0.67-0.35c0.26-0.23,0.51-0.52,0.76-0.85c0.02-0.08,0.04-0.16,0.05-0.23
				c0.02-0.07,0.04-0.15,0.06-0.25c0.02-0.08,0.07-0.18,0.14-0.29c0.07-0.11,0.19-0.17,0.35-0.17c0.03,0,0.06,0,0.1,0.01
				s0.07,0.01,0.11,0.02c0,0.1-0.03,0.27-0.09,0.53c-0.06,0.26-0.15,0.56-0.26,0.9c-0.11,0.34-0.24,0.69-0.39,1.06
				c0.21-0.1,0.42-0.22,0.62-0.37c0.2-0.15,0.39-0.33,0.55-0.52c0.17-0.2,0.3-0.41,0.39-0.64l0.13,0.09
				c-0.1,0.27-0.25,0.52-0.46,0.74c-0.21,0.22-0.44,0.42-0.68,0.58c-0.24,0.16-0.46,0.29-0.66,0.38c-0.18,0.4-0.37,0.78-0.57,1.11
				c-0.2,0.34-0.4,0.6-0.62,0.8C135.72,138.89,135.49,138.99,135.24,138.99z M135.22,138.7c0.13,0,0.3-0.12,0.53-0.36
				c0.22-0.24,0.46-0.65,0.72-1.23c-0.26,0.12-0.5,0.25-0.72,0.38c-0.22,0.13-0.4,0.27-0.54,0.41s-0.21,0.31-0.21,0.48
				c0,0.1,0.02,0.17,0.07,0.23C135.1,138.67,135.15,138.7,135.22,138.7z"/>
			<path d="M141.95,136.86c-0.28,0-0.49-0.08-0.64-0.23c-0.15-0.15-0.22-0.37-0.22-0.67c0-0.18,0.03-0.4,0.08-0.65
				c0.05-0.25,0.13-0.53,0.22-0.81s0.19-0.57,0.3-0.84c-0.06-0.01-0.13-0.03-0.18-0.06c-0.06-0.03-0.11-0.05-0.16-0.07v-0.16
				c0.05,0.01,0.11,0.02,0.18,0.05c0.07,0.02,0.15,0.04,0.24,0.05c0.18-0.44,0.37-0.84,0.57-1.21c0.2-0.37,0.4-0.67,0.58-0.89
				c0.19-0.22,0.34-0.34,0.47-0.34c0.05,0,0.1,0.02,0.14,0.05c0.04,0.03,0.06,0.08,0.06,0.15c0,0.06-0.03,0.15-0.08,0.26
				c-0.05,0.11-0.12,0.24-0.21,0.39c-0.09,0.15-0.19,0.32-0.3,0.5c-0.11,0.18-0.23,0.37-0.35,0.58c-0.12,0.21-0.24,0.42-0.35,0.64
				c0.16,0.02,0.32,0.05,0.47,0.06c0.15,0.02,0.31,0.03,0.47,0.03c0.17,0,0.36-0.01,0.56-0.04c0.2-0.02,0.43-0.06,0.68-0.11
				c0.17-0.43,0.35-0.86,0.56-1.28c0.21-0.42,0.42-0.81,0.64-1.16c0.22-0.35,0.42-0.63,0.62-0.84c0.19-0.21,0.36-0.31,0.5-0.31
				c0.12,0,0.2,0.06,0.25,0.19c0.05,0.13,0.07,0.26,0.07,0.38c0,0.21-0.06,0.46-0.17,0.75s-0.26,0.58-0.46,0.89
				c-0.19,0.31-0.42,0.59-0.67,0.85c-0.25,0.26-0.52,0.48-0.8,0.64c-0.1,0.23-0.19,0.5-0.27,0.8c-0.08,0.3-0.14,0.6-0.17,0.89
				c-0.03,0.29-0.04,0.54-0.01,0.73c0.15-0.42,0.33-0.8,0.52-1.16c0.19-0.36,0.41-0.64,0.65-0.86s0.5-0.33,0.78-0.33
				c0.26,0,0.45,0.09,0.56,0.26c0.11,0.17,0.17,0.36,0.17,0.56c0,0.19-0.03,0.37-0.1,0.54c-0.07,0.18-0.14,0.35-0.21,0.51
				c-0.07,0.16-0.11,0.32-0.11,0.47c0,0.12,0.03,0.21,0.08,0.26c0.05,0.06,0.12,0.08,0.21,0.08c0.15,0,0.31-0.07,0.5-0.2
				c0.18-0.13,0.36-0.31,0.54-0.53s0.33-0.46,0.46-0.72l0.13,0.11c-0.14,0.3-0.3,0.56-0.49,0.8c-0.19,0.24-0.4,0.43-0.64,0.57
				c-0.23,0.14-0.47,0.21-0.72,0.21c-0.22,0-0.38-0.05-0.5-0.16c-0.11-0.11-0.17-0.25-0.17-0.41c0-0.13,0.03-0.27,0.08-0.43
				s0.1-0.32,0.15-0.48c0.05-0.16,0.07-0.32,0.07-0.46c0-0.16-0.04-0.27-0.11-0.34c-0.07-0.07-0.16-0.1-0.26-0.1
				c-0.16,0-0.31,0.06-0.43,0.18c-0.13,0.12-0.25,0.28-0.35,0.47c-0.11,0.19-0.21,0.39-0.3,0.6c-0.09,0.21-0.18,0.41-0.26,0.6
				c-0.08,0.19-0.17,0.35-0.25,0.47c-0.08,0.12-0.17,0.18-0.26,0.18c-0.07,0-0.14-0.03-0.19-0.1c-0.06-0.07-0.11-0.16-0.14-0.28
				c-0.04-0.12-0.06-0.26-0.06-0.42c-0.01-0.16,0-0.33,0.03-0.51c-0.24,0.4-0.54,0.74-0.9,1
				C142.72,136.73,142.34,136.86,141.95,136.86z M142.23,136.53c0.33,0,0.66-0.14,0.98-0.42c0.32-0.28,0.6-0.66,0.85-1.14
				c0.04-0.2,0.09-0.39,0.14-0.57c0.05-0.18,0.11-0.38,0.2-0.61c-0.22,0.05-0.43,0.08-0.62,0.1c-0.19,0.02-0.38,0.03-0.56,0.03
				s-0.35-0.01-0.51-0.03c-0.16-0.02-0.32-0.04-0.48-0.07c-0.15,0.32-0.27,0.65-0.38,0.99c-0.1,0.34-0.15,0.67-0.15,0.99
				c0,0.26,0.04,0.45,0.13,0.56C141.9,136.47,142.04,136.53,142.23,136.53z M145.17,133.32c0.23-0.17,0.44-0.37,0.63-0.61
				s0.37-0.48,0.53-0.74s0.27-0.48,0.36-0.7c0.09-0.22,0.13-0.38,0.13-0.49c0-0.05-0.01-0.07-0.04-0.07c-0.05,0-0.13,0.07-0.26,0.2
				c-0.13,0.13-0.27,0.32-0.44,0.55c-0.16,0.24-0.33,0.51-0.49,0.83C145.43,132.6,145.29,132.95,145.17,133.32z"/>
			<path d="M149.51,136.85c-0.39,0-0.68-0.1-0.88-0.31c-0.19-0.2-0.29-0.45-0.29-0.75c0-0.27,0.07-0.56,0.22-0.86
				c0.14-0.3,0.34-0.59,0.58-0.85c0.24-0.27,0.5-0.48,0.79-0.65c0.29-0.17,0.57-0.25,0.86-0.25c0.15,0,0.28,0.04,0.41,0.11
				s0.19,0.22,0.19,0.44c0,0.23-0.07,0.45-0.22,0.65s-0.33,0.38-0.57,0.54c-0.24,0.16-0.49,0.29-0.77,0.38
				c-0.28,0.1-0.56,0.16-0.83,0.19c-0.01,0.06-0.02,0.12-0.03,0.17c-0.01,0.05-0.01,0.11-0.01,0.15c0,0.09,0.01,0.18,0.03,0.27
				c0.02,0.09,0.06,0.17,0.12,0.25c0.06,0.08,0.14,0.13,0.24,0.18s0.22,0.06,0.37,0.06c0.28,0,0.55-0.07,0.82-0.22
				s0.52-0.34,0.75-0.58s0.43-0.51,0.59-0.8l0.12,0.08c-0.17,0.36-0.39,0.68-0.66,0.94c-0.27,0.27-0.56,0.47-0.87,0.62
				C150.15,136.77,149.83,136.85,149.51,136.85z M149.04,135.32c0.17-0.05,0.37-0.13,0.59-0.24c0.22-0.11,0.43-0.23,0.63-0.38
				c0.2-0.15,0.37-0.31,0.5-0.48c0.13-0.18,0.2-0.36,0.2-0.55c0-0.07-0.01-0.12-0.04-0.15s-0.08-0.05-0.16-0.05
				c-0.15,0-0.32,0.06-0.49,0.17c-0.17,0.11-0.34,0.26-0.5,0.44c-0.16,0.18-0.31,0.38-0.43,0.6
				C149.2,134.89,149.11,135.1,149.04,135.32z"/>
			<path d="M155.08,137.11c-0.33,0-0.58-0.1-0.75-0.31s-0.25-0.48-0.25-0.84c0-0.3,0.05-0.66,0.16-1.07
				c0.11-0.41,0.25-0.84,0.43-1.29c0.18-0.45,0.38-0.89,0.6-1.32c0.22-0.43,0.45-0.82,0.67-1.17c0.23-0.35,0.44-0.63,0.64-0.84
				c0.2-0.21,0.36-0.31,0.49-0.31c0.11,0,0.19,0.06,0.24,0.19c0.05,0.13,0.07,0.25,0.07,0.38c0,0.17-0.04,0.37-0.12,0.62
				c-0.08,0.24-0.19,0.5-0.33,0.78c-0.14,0.27-0.31,0.55-0.49,0.81c-0.19,0.27-0.39,0.51-0.6,0.73c-0.22,0.22-0.44,0.39-0.66,0.52
				c-0.04,0.07-0.09,0.21-0.17,0.41c-0.07,0.21-0.14,0.45-0.2,0.72c-0.06,0.27-0.09,0.53-0.09,0.78c0,0.25,0.04,0.45,0.12,0.61
				c0.08,0.16,0.22,0.24,0.41,0.24c0.19,0,0.38-0.07,0.58-0.21c0.2-0.14,0.36-0.33,0.48-0.55c-0.24-0.12-0.42-0.28-0.53-0.5
				c-0.12-0.22-0.17-0.44-0.17-0.67c0-0.29,0.08-0.52,0.24-0.7c0.16-0.17,0.35-0.26,0.57-0.26c0.19,0,0.33,0.07,0.44,0.21
				c0.11,0.14,0.16,0.35,0.16,0.62c0,0.2-0.03,0.4-0.09,0.62c-0.06,0.21-0.14,0.42-0.25,0.62c0.04,0.01,0.08,0.01,0.12,0.02
				c0.04,0.01,0.08,0.01,0.13,0.01c0.23,0,0.42-0.05,0.58-0.16c0.15-0.11,0.28-0.24,0.39-0.39s0.19-0.3,0.26-0.44l0.12,0.12
				c-0.18,0.42-0.39,0.69-0.64,0.83c-0.25,0.14-0.49,0.21-0.74,0.21c-0.05,0-0.1,0-0.15-0.01c-0.05-0.01-0.1-0.01-0.15-0.02
				c-0.17,0.28-0.39,0.52-0.64,0.71C155.72,137.01,155.42,137.11,155.08,137.11z M155.3,133.64c0.18-0.13,0.35-0.3,0.53-0.51
				c0.17-0.21,0.33-0.43,0.48-0.66c0.15-0.23,0.28-0.46,0.39-0.68c0.12-0.22,0.21-0.43,0.27-0.61c0.06-0.18,0.1-0.32,0.1-0.41
				c0-0.03,0-0.05-0.01-0.06s-0.02-0.01-0.03-0.01c-0.05,0-0.15,0.09-0.29,0.26c-0.14,0.17-0.31,0.4-0.48,0.69
				c-0.18,0.29-0.35,0.6-0.53,0.95C155.56,132.95,155.41,133.3,155.3,133.64z M156.42,135.82c0.07-0.14,0.13-0.29,0.16-0.44
				c0.04-0.15,0.06-0.31,0.06-0.48c0-0.21-0.03-0.38-0.09-0.5c-0.06-0.12-0.14-0.18-0.23-0.18c-0.1,0-0.18,0.06-0.26,0.19
				c-0.07,0.12-0.11,0.28-0.11,0.47c0,0.16,0.04,0.34,0.11,0.52C156.14,135.57,156.26,135.72,156.42,135.82z"/>
			<path d="M158.65,136.74c-0.28,0-0.47-0.08-0.59-0.24c-0.12-0.16-0.17-0.36-0.17-0.58c0-0.19,0.03-0.38,0.1-0.58
				c0.06-0.2,0.15-0.39,0.26-0.56c0.11-0.17,0.23-0.32,0.36-0.43c0.13-0.11,0.26-0.16,0.4-0.16c0.03,0,0.07,0.01,0.1,0.01
				c0.04,0.01,0.07,0.02,0.1,0.03c-0.06,0.05-0.13,0.14-0.21,0.27c-0.08,0.13-0.16,0.28-0.23,0.44c-0.07,0.17-0.13,0.33-0.18,0.49
				s-0.07,0.3-0.07,0.42c0,0.18,0.03,0.31,0.1,0.39c0.06,0.08,0.15,0.12,0.25,0.12c0.14,0,0.29-0.07,0.48-0.21
				c0.19-0.14,0.37-0.31,0.55-0.52c-0.18-0.14-0.32-0.32-0.42-0.55c-0.1-0.23-0.15-0.46-0.15-0.69c0-0.2,0.04-0.39,0.11-0.56
				c0.07-0.17,0.18-0.32,0.32-0.42c0.14-0.11,0.31-0.16,0.51-0.16c0.26,0,0.44,0.07,0.53,0.2s0.14,0.3,0.14,0.5
				c0,0.24-0.06,0.5-0.18,0.78c-0.12,0.29-0.28,0.56-0.46,0.83c0.12,0.06,0.24,0.09,0.37,0.09c0.1,0,0.22-0.02,0.35-0.06
				c0.13-0.04,0.26-0.11,0.38-0.21s0.23-0.23,0.3-0.39l0.12,0.09c-0.13,0.28-0.31,0.48-0.54,0.6c-0.23,0.12-0.46,0.18-0.67,0.18
				c-0.08,0-0.16-0.01-0.24-0.02c-0.08-0.02-0.15-0.04-0.22-0.07c-0.22,0.27-0.46,0.5-0.72,0.68S158.89,136.74,158.65,136.74z
				 M160.06,135.4c0.16-0.22,0.29-0.46,0.4-0.7c0.11-0.25,0.16-0.48,0.16-0.69c0-0.17-0.03-0.31-0.08-0.38
				c-0.05-0.08-0.12-0.12-0.21-0.12c-0.13,0-0.26,0.09-0.39,0.26c-0.14,0.18-0.2,0.4-0.2,0.66c0,0.18,0.03,0.35,0.08,0.53
				C159.87,135.13,159.95,135.28,160.06,135.4z"/>
			<path d="M162.22,136.72c-0.22,0-0.39-0.09-0.53-0.28c-0.13-0.18-0.2-0.4-0.2-0.64c0-0.17,0.03-0.38,0.09-0.61
				c0.06-0.23,0.14-0.46,0.23-0.68c0.09-0.22,0.18-0.41,0.28-0.55c0.1-0.15,0.18-0.22,0.25-0.22c0.03,0,0.09,0.02,0.16,0.05
				c0.08,0.03,0.14,0.08,0.19,0.13c-0.07,0.1-0.16,0.26-0.26,0.47c-0.1,0.21-0.19,0.44-0.27,0.68c-0.08,0.24-0.12,0.47-0.12,0.67
				c0,0.05,0.01,0.12,0.02,0.22c0.01,0.1,0.05,0.19,0.1,0.27c0.05,0.08,0.13,0.12,0.23,0.12c0.12,0,0.25-0.06,0.38-0.18
				c0.13-0.12,0.26-0.27,0.39-0.46c0.13-0.19,0.26-0.39,0.38-0.61c0.12-0.22,0.24-0.43,0.34-0.63c0.11-0.2,0.19-0.37,0.26-0.5
				c0.04,0.01,0.09,0.02,0.17,0.04s0.14,0.04,0.2,0.07c0.06,0.03,0.09,0.07,0.09,0.13c0,0.02-0.03,0.11-0.1,0.24
				c-0.06,0.14-0.14,0.3-0.23,0.5c-0.09,0.2-0.16,0.39-0.23,0.59c-0.06,0.2-0.1,0.37-0.1,0.53c0,0.11,0.02,0.2,0.07,0.26
				c0.05,0.07,0.13,0.1,0.25,0.1c0.14,0,0.3-0.06,0.49-0.17c0.19-0.12,0.39-0.28,0.59-0.5c0.2-0.22,0.38-0.48,0.53-0.79l0.13,0.08
				c-0.14,0.33-0.31,0.62-0.53,0.87c-0.22,0.25-0.45,0.45-0.69,0.58c-0.24,0.14-0.48,0.21-0.71,0.21c-0.17,0-0.3-0.03-0.4-0.09
				c-0.1-0.06-0.17-0.14-0.21-0.25c-0.04-0.1-0.06-0.22-0.06-0.34c0-0.07,0.01-0.15,0.02-0.22c0.01-0.07,0.03-0.15,0.05-0.23
				c-0.12,0.2-0.24,0.38-0.38,0.56s-0.28,0.31-0.42,0.41C162.54,136.67,162.38,136.72,162.22,136.72z"/>
			<path d="M168.83,136.63c-0.23,0-0.39-0.05-0.5-0.16c-0.11-0.11-0.17-0.25-0.17-0.42c0-0.13,0.02-0.26,0.07-0.4
				c0.05-0.14,0.09-0.28,0.14-0.43c0.04-0.15,0.07-0.29,0.07-0.43c0-0.17-0.04-0.29-0.11-0.35c-0.07-0.06-0.16-0.09-0.27-0.09
				c-0.2,0-0.4,0.08-0.61,0.23c-0.21,0.15-0.4,0.35-0.6,0.59c-0.19,0.24-0.37,0.48-0.54,0.74c-0.17,0.25-0.32,0.48-0.44,0.68
				c-0.1,0-0.2-0.02-0.29-0.05c-0.09-0.03-0.16-0.08-0.22-0.15c0-0.03,0.03-0.12,0.1-0.28c0.07-0.16,0.15-0.35,0.24-0.58
				s0.17-0.47,0.24-0.71c0.07-0.24,0.11-0.46,0.11-0.66c0.04-0.04,0.1-0.08,0.18-0.13c0.08-0.04,0.17-0.06,0.26-0.06
				c0.17,0,0.26,0.08,0.26,0.24c0,0.1-0.03,0.26-0.09,0.48c-0.06,0.23-0.13,0.46-0.22,0.71c0.17-0.25,0.37-0.49,0.58-0.74
				s0.44-0.45,0.69-0.61c0.24-0.16,0.49-0.25,0.73-0.25c0.25,0,0.43,0.08,0.54,0.25c0.11,0.17,0.17,0.36,0.17,0.56
				c0,0.19-0.03,0.36-0.1,0.52c-0.06,0.16-0.13,0.32-0.2,0.46s-0.1,0.3-0.1,0.45c0,0.13,0.03,0.22,0.08,0.27
				c0.05,0.05,0.12,0.08,0.21,0.08c0.16,0,0.32-0.07,0.48-0.21c0.16-0.14,0.32-0.32,0.47-0.54s0.28-0.44,0.4-0.66l0.11,0.12
				c-0.14,0.3-0.29,0.56-0.45,0.79s-0.35,0.41-0.55,0.54C169.3,136.56,169.07,136.63,168.83,136.63z"/>
			<path d="M170.78,136.72c-0.11,0-0.22-0.03-0.33-0.08c-0.11-0.05-0.21-0.14-0.28-0.25c-0.07-0.12-0.11-0.26-0.11-0.44
				c0-0.2,0.05-0.42,0.15-0.67c0.1-0.25,0.24-0.49,0.42-0.74s0.37-0.47,0.6-0.68c0.23-0.21,0.46-0.37,0.7-0.5
				c0.24-0.12,0.48-0.19,0.72-0.19c0.14,0,0.24,0.02,0.31,0.07c0.07,0.05,0.11,0.12,0.11,0.21c0,0.02,0,0.05-0.01,0.06
				s-0.01,0.04-0.02,0.06c-0.03-0.05-0.08-0.08-0.14-0.11c-0.06-0.02-0.14-0.03-0.23-0.03c-0.21,0-0.4,0.06-0.6,0.18
				c-0.19,0.12-0.38,0.27-0.54,0.46c-0.16,0.19-0.31,0.39-0.43,0.61c-0.12,0.22-0.22,0.43-0.28,0.63c-0.07,0.2-0.1,0.37-0.1,0.51
				c0,0.13,0.03,0.24,0.1,0.32c0.06,0.08,0.15,0.12,0.25,0.12c0.17,0,0.38-0.1,0.63-0.31s0.5-0.5,0.76-0.87
				c0.26-0.37,0.49-0.81,0.69-1.31c0.14-0.35,0.29-0.71,0.44-1.07c0.15-0.36,0.3-0.71,0.46-1.05c0.15-0.34,0.3-0.64,0.45-0.9
				c0.14-0.26,0.28-0.47,0.42-0.63c0.13-0.15,0.25-0.23,0.35-0.23c0.05,0,0.1,0.02,0.14,0.06c0.04,0.04,0.06,0.09,0.06,0.15
				c0,0.1-0.05,0.26-0.16,0.49c-0.11,0.23-0.24,0.51-0.42,0.84c-0.17,0.32-0.35,0.68-0.54,1.06c-0.19,0.38-0.36,0.77-0.54,1.16
				c-0.17,0.39-0.31,0.77-0.42,1.14c-0.11,0.37-0.16,0.7-0.16,1c0,0.17,0.01,0.3,0.03,0.38c0.02,0.08,0.08,0.13,0.19,0.13
				c0.14,0,0.29-0.05,0.47-0.16c0.18-0.11,0.36-0.26,0.54-0.46c0.18-0.2,0.34-0.44,0.47-0.72l0.12,0.08
				c-0.12,0.31-0.29,0.58-0.5,0.83c-0.21,0.25-0.44,0.44-0.68,0.58c-0.24,0.14-0.47,0.21-0.69,0.21c-0.24,0-0.4-0.07-0.5-0.22
				c-0.09-0.15-0.14-0.3-0.14-0.46c0-0.1,0.02-0.24,0.05-0.41c0.03-0.17,0.08-0.36,0.14-0.56c-0.21,0.32-0.42,0.61-0.66,0.87
				c-0.23,0.26-0.46,0.46-0.68,0.6C171.18,136.64,170.98,136.72,170.78,136.72z"/>
			<path d="M175.23,136.87c-0.2,0-0.37-0.06-0.5-0.19c-0.14-0.12-0.21-0.31-0.21-0.57c0-0.22,0.05-0.45,0.15-0.7
				c0.1-0.25,0.24-0.5,0.42-0.74c0.18-0.25,0.38-0.47,0.61-0.67c0.23-0.2,0.47-0.36,0.72-0.48c0.25-0.12,0.5-0.18,0.76-0.18
				c0.25,0,0.46,0.06,0.63,0.19c0.17,0.12,0.25,0.29,0.25,0.49c0,0.15-0.04,0.25-0.13,0.31s-0.2,0.08-0.34,0.08
				c0.01-0.05,0.02-0.1,0.03-0.16c0.01-0.06,0.02-0.11,0.02-0.16c0-0.14-0.04-0.26-0.11-0.36c-0.07-0.1-0.19-0.15-0.37-0.15
				c-0.18,0-0.36,0.06-0.55,0.18c-0.19,0.12-0.37,0.27-0.54,0.47c-0.17,0.2-0.33,0.41-0.46,0.64c-0.14,0.23-0.24,0.46-0.32,0.68
				c-0.08,0.22-0.12,0.42-0.12,0.6c0,0.24,0.09,0.35,0.26,0.35c0.15,0,0.31-0.06,0.48-0.19c0.17-0.13,0.35-0.3,0.54-0.5
				c0.18-0.2,0.36-0.41,0.53-0.63c0.17-0.22,0.32-0.42,0.44-0.6c0.03-0.04,0.04-0.05,0.05-0.05c0.04,0.01,0.09,0.02,0.15,0.04
				c0.06,0.02,0.11,0.04,0.16,0.07c0.05,0.03,0.07,0.07,0.07,0.12c0,0.05-0.03,0.13-0.09,0.22c-0.06,0.09-0.12,0.2-0.19,0.32
				c-0.07,0.12-0.14,0.24-0.19,0.37c-0.06,0.12-0.09,0.24-0.09,0.35c0,0.09,0.03,0.18,0.08,0.27c0.05,0.09,0.14,0.13,0.25,0.13
				c0.17,0,0.4-0.12,0.68-0.36c0.28-0.24,0.57-0.6,0.86-1.08l0.1,0.09c-0.14,0.33-0.31,0.62-0.52,0.86
				c-0.21,0.25-0.44,0.44-0.68,0.58c-0.24,0.14-0.48,0.21-0.71,0.21c-0.24,0-0.41-0.07-0.53-0.2c-0.11-0.13-0.17-0.28-0.17-0.44
				c0-0.04,0-0.08,0.01-0.12s0.01-0.09,0.02-0.14c-0.28,0.35-0.53,0.62-0.76,0.79C175.7,136.78,175.47,136.87,175.23,136.87z"/>
			<path d="M180.63,136.68c-0.22,0-0.39-0.05-0.52-0.16c-0.13-0.11-0.19-0.25-0.19-0.43c0-0.18,0.04-0.37,0.14-0.57
				c0.09-0.2,0.18-0.4,0.26-0.59c0.09-0.2,0.13-0.37,0.13-0.53c0-0.19-0.06-0.34-0.18-0.43c-0.12-0.09-0.24-0.18-0.36-0.26
				c-0.15,0.36-0.3,0.69-0.46,1.02c-0.16,0.32-0.29,0.56-0.39,0.73l-0.09-0.15c0.09-0.16,0.21-0.39,0.35-0.69
				c0.14-0.3,0.29-0.65,0.43-1.04c-0.06-0.06-0.1-0.13-0.1-0.22c0-0.18,0.05-0.33,0.16-0.45c0.11-0.12,0.19-0.17,0.24-0.17
				c0.07,0,0.11,0.03,0.12,0.09c0.01,0.06,0.02,0.1,0.02,0.13s-0.02,0.09-0.05,0.18c-0.04,0.09-0.05,0.14-0.05,0.16
				c0,0.08,0.05,0.16,0.15,0.23c0.1,0.07,0.21,0.15,0.34,0.24c0.13,0.09,0.24,0.19,0.34,0.32c0.1,0.12,0.15,0.28,0.15,0.48
				c0,0.18-0.04,0.37-0.12,0.55c-0.08,0.19-0.16,0.37-0.24,0.54c-0.08,0.17-0.12,0.32-0.12,0.44c0,0.11,0.03,0.18,0.09,0.22
				c0.06,0.04,0.13,0.05,0.2,0.05c0.15,0,0.31-0.05,0.48-0.14c0.16-0.09,0.32-0.21,0.48-0.35c0.15-0.14,0.29-0.29,0.42-0.44
				c0.12-0.15,0.21-0.3,0.27-0.43l0.13,0.09c-0.12,0.25-0.29,0.5-0.5,0.75c-0.21,0.25-0.45,0.45-0.71,0.6
				C181.18,136.61,180.91,136.68,180.63,136.68z"/>
			<path d="M183.01,136.68c-0.25,0-0.44-0.07-0.56-0.22s-0.18-0.33-0.18-0.54c0-0.14,0.03-0.32,0.08-0.53
				c0.05-0.21,0.13-0.43,0.22-0.67c0.09-0.23,0.19-0.45,0.31-0.66c0.12-0.21,0.25-0.37,0.38-0.5c0.14-0.13,0.27-0.19,0.39-0.19
				c0.06,0,0.11,0.02,0.15,0.05c0.04,0.03,0.06,0.08,0.06,0.15c0,0.07-0.05,0.19-0.15,0.35c-0.1,0.16-0.22,0.35-0.35,0.56
				c-0.14,0.21-0.25,0.43-0.35,0.67c-0.1,0.23-0.15,0.46-0.15,0.67c0,0.22,0.04,0.36,0.12,0.44c0.08,0.07,0.19,0.11,0.36,0.11
				c0.22,0,0.45-0.1,0.7-0.31c0.25-0.21,0.51-0.57,0.78-1.08l0.09,0.09c-0.19,0.52-0.45,0.92-0.8,1.2
				C183.76,136.54,183.39,136.68,183.01,136.68z M184.17,132.52c-0.1,0-0.19-0.02-0.27-0.07s-0.12-0.12-0.12-0.23
				c0-0.13,0.08-0.24,0.24-0.33c0.16-0.09,0.31-0.14,0.47-0.14c0.1,0,0.17,0.02,0.23,0.06c0.06,0.04,0.09,0.12,0.09,0.22
				c0,0.12-0.07,0.23-0.2,0.33C184.47,132.47,184.32,132.52,184.17,132.52z"/>
			<path d="M185.68,136.85c-0.39,0-0.68-0.1-0.88-0.31c-0.19-0.2-0.29-0.45-0.29-0.75c0-0.27,0.07-0.56,0.22-0.86
				c0.14-0.3,0.34-0.59,0.58-0.85c0.24-0.27,0.5-0.48,0.79-0.65c0.29-0.17,0.57-0.25,0.86-0.25c0.15,0,0.28,0.04,0.41,0.11
				s0.19,0.22,0.19,0.44c0,0.23-0.07,0.45-0.22,0.65c-0.15,0.2-0.33,0.38-0.57,0.54c-0.24,0.16-0.49,0.29-0.77,0.38
				c-0.28,0.1-0.56,0.16-0.83,0.19c-0.01,0.06-0.02,0.12-0.03,0.17c-0.01,0.05-0.01,0.11-0.01,0.15c0,0.09,0.01,0.18,0.03,0.27
				c0.02,0.09,0.06,0.17,0.12,0.25c0.06,0.08,0.14,0.13,0.24,0.18c0.1,0.04,0.22,0.06,0.37,0.06c0.28,0,0.55-0.07,0.82-0.22
				c0.27-0.15,0.52-0.34,0.75-0.58c0.23-0.24,0.43-0.51,0.59-0.8l0.12,0.08c-0.17,0.36-0.39,0.68-0.66,0.94
				c-0.27,0.27-0.56,0.47-0.87,0.62C186.32,136.77,186,136.85,185.68,136.85z M185.21,135.32c0.17-0.05,0.37-0.13,0.59-0.24
				c0.22-0.11,0.43-0.23,0.63-0.38c0.2-0.15,0.37-0.31,0.5-0.48c0.13-0.18,0.2-0.36,0.2-0.55c0-0.07-0.01-0.12-0.04-0.15
				c-0.03-0.04-0.08-0.05-0.16-0.05c-0.15,0-0.32,0.06-0.49,0.17c-0.17,0.11-0.34,0.26-0.5,0.44c-0.16,0.18-0.31,0.38-0.43,0.6
				C185.37,134.89,185.27,135.1,185.21,135.32z"/>
			<path d="M188.86,136.91c-0.3,0-0.54-0.06-0.72-0.19c-0.18-0.12-0.3-0.28-0.38-0.46c-0.07-0.18-0.11-0.36-0.11-0.55
				s0.03-0.32,0.08-0.42c0.05-0.1,0.12-0.17,0.19-0.22c0.07-0.05,0.14-0.08,0.21-0.11c0.07-0.02,0.12-0.05,0.14-0.07
				c0.19-0.2,0.37-0.41,0.53-0.63s0.3-0.45,0.42-0.69v-0.11c0-0.22,0.04-0.38,0.12-0.48c0.08-0.09,0.16-0.14,0.26-0.14
				c0.05,0,0.09,0.01,0.12,0.04s0.04,0.05,0.04,0.08s-0.01,0.08-0.03,0.15c-0.02,0.07-0.03,0.15-0.03,0.25
				c0,0.2,0.04,0.42,0.13,0.65s0.17,0.48,0.25,0.74c0.08,0.26,0.13,0.53,0.13,0.8c0,0.08-0.01,0.16-0.02,0.23
				c-0.01,0.08-0.02,0.15-0.04,0.21c0.23-0.04,0.44-0.13,0.64-0.29c0.2-0.15,0.39-0.4,0.58-0.74l0.09,0.09
				c-0.12,0.33-0.31,0.58-0.55,0.76c-0.24,0.17-0.51,0.28-0.8,0.32c-0.1,0.26-0.26,0.45-0.49,0.57
				C189.39,136.85,189.14,136.91,188.86,136.91z M188.88,136.59c0.08,0,0.18-0.02,0.31-0.07s0.23-0.17,0.3-0.37
				c-0.27-0.05-0.51-0.15-0.72-0.3c-0.21-0.15-0.36-0.3-0.47-0.45c-0.14,0.01-0.21,0.11-0.21,0.32c0,0.22,0.07,0.42,0.21,0.6
				C188.44,136.5,188.63,136.59,188.88,136.59z M189.54,136c0.01-0.06,0.02-0.12,0.03-0.19c0.01-0.07,0.01-0.15,0.01-0.24
				c0-0.28-0.04-0.57-0.11-0.85c-0.07-0.28-0.14-0.55-0.19-0.79c-0.15,0.23-0.3,0.45-0.47,0.66c-0.16,0.21-0.32,0.38-0.47,0.52
				c0.1,0.19,0.25,0.37,0.45,0.54C188.99,135.83,189.24,135.94,189.54,136z"/>
		</g>
	</g>
</g>
<g>
	<g>
		<path class="st9" d="M157.86,150.19c0.82,0.61,1.54,1.32,2.15,2.11l2.75-0.5l1.81,4.25l-2.26,1.64c0.14,0.99,0.16,2,0.03,3.01
			l2.3,1.59l-1.73,4.29l-2.76-0.44c-0.61,0.82-1.32,1.54-2.11,2.15l0.5,2.75l-4.25,1.81l-1.64-2.26c-0.99,0.14-2,0.16-3.01,0.03
			l-1.59,2.3l-4.29-1.73l0.44-2.76c-0.82-0.61-1.54-1.32-2.15-2.11l-2.75,0.5l-1.81-4.25l2.27-1.64c-0.14-0.99-0.16-2-0.03-3.01
			l-2.3-1.59l1.73-4.29l2.76,0.44c0.61-0.82,1.32-1.54,2.11-2.15l-0.5-2.75l4.25-1.81l1.64,2.27c0.99-0.14,2-0.16,3.01-0.03
			l1.59-2.3l4.29,1.73L157.86,150.19L157.86,150.19z M153.08,154.79c-2.54-1.02-5.43,0.21-6.45,2.75s0.21,5.43,2.75,6.45
			c2.54,1.02,5.43-0.21,6.45-2.75C156.85,158.71,155.62,155.82,153.08,154.79z"/>
	</g>
	<g>
		<g>
			<path class="st0" d="M157.86,150.19c0.82,0.61,1.54,1.32,2.15,2.11l2.75-0.5l1.81,4.25l-2.26,1.64c0.14,0.99,0.16,2,0.03,3.01
				l2.3,1.59l-1.73,4.29l-2.76-0.44c-0.61,0.82-1.32,1.54-2.11,2.15l0.5,2.75l-4.25,1.81l-1.64-2.26c-0.99,0.14-2,0.16-3.01,0.03
				l-1.59,2.3l-4.29-1.73l0.44-2.76c-0.82-0.61-1.54-1.32-2.15-2.11l-2.75,0.5l-1.81-4.25l2.27-1.64c-0.14-0.99-0.16-2-0.03-3.01
				l-2.3-1.59l1.73-4.29l2.76,0.44c0.61-0.82,1.32-1.54,2.11-2.15l-0.5-2.75l4.25-1.81l1.64,2.27c0.99-0.14,2-0.16,3.01-0.03
				l1.59-2.3l4.29,1.73L157.86,150.19L157.86,150.19z M153.08,154.79c-2.54-1.02-5.43,0.21-6.45,2.75s0.21,5.43,2.75,6.45
				c2.54,1.02,5.43-0.21,6.45-2.75C156.85,158.71,155.62,155.82,153.08,154.79z"/>
		</g>
		<g>
			<g>
				<path class="st0" d="M153.08,154.79c0,0,0.43,0.11,1.09,0.56c0.64,0.44,1.51,1.31,1.91,2.71c0.19,0.69,0.27,1.49,0.1,2.32
					c-0.17,0.82-0.54,1.68-1.18,2.39c-0.31,0.36-0.69,0.68-1.12,0.94c-0.42,0.27-0.89,0.47-1.4,0.6c-1,0.27-2.12,0.2-3.15-0.2
					c-1.02-0.42-1.88-1.15-2.41-2.04c-0.28-0.44-0.48-0.91-0.6-1.4c-0.13-0.48-0.18-0.97-0.16-1.45c0.02-0.96,0.35-1.83,0.8-2.54
					c0.45-0.72,1.06-1.24,1.68-1.61c1.25-0.73,2.48-0.76,3.25-0.63C152.69,154.57,153.08,154.79,153.08,154.79
					c-0.01,0.03-0.41-0.16-1.19-0.26c-0.76-0.1-1.96-0.04-3.16,0.68c-0.59,0.36-1.17,0.88-1.6,1.57c-0.42,0.69-0.73,1.54-0.75,2.45
					c-0.02,0.46,0.04,0.93,0.16,1.39c0.12,0.46,0.31,0.92,0.58,1.34c0.52,0.85,1.34,1.54,2.31,1.94c0.98,0.38,2.05,0.45,3.01,0.19
					c0.48-0.12,0.94-0.31,1.34-0.57c0.41-0.25,0.77-0.55,1.07-0.89c0.62-0.67,0.98-1.5,1.16-2.29c0.17-0.8,0.11-1.57-0.07-2.24
					c-0.37-1.35-1.19-2.22-1.81-2.68C153.49,154.96,153.06,154.82,153.08,154.79z"/>
			</g>
		</g>
		<g>
			<g>
				<path class="st0" d="M157.86,150.19c0,0,0-0.06,0.02-0.17c0.02-0.13,0.04-0.3,0.07-0.53c0.07-0.47,0.18-1.17,0.31-2.07
					l0.02,0.04c-1.1-0.44-2.55-1.01-4.3-1.7l0.07-0.02c-0.48,0.7-1.01,1.47-1.58,2.3l-0.02,0.03l-0.04-0.01
					c-0.94-0.11-1.95-0.11-3,0.04l-0.04,0.01l-0.03-0.04c-0.51-0.7-1.07-1.47-1.64-2.26l0.1,0.03c-1.34,0.57-2.76,1.18-4.25,1.82
					l0.05-0.1c0.16,0.85,0.33,1.79,0.51,2.75l0.01,0.06l-0.04,0.04c-0.73,0.57-1.47,1.3-2.09,2.14l-0.04,0.05l-0.06-0.01
					c-0.86-0.14-1.8-0.29-2.76-0.44l0.11-0.06c-0.54,1.35-1.12,2.8-1.72,4.29l-0.04-0.13c0.72,0.49,1.5,1.04,2.3,1.59l0.05,0.04
					l-0.01,0.06c-0.12,0.93-0.12,1.96,0.04,2.99l0.01,0.06l-0.05,0.04c-0.71,0.51-1.48,1.07-2.26,1.64l0.04-0.13
					c0.57,1.35,1.19,2.79,1.82,4.25l-0.12-0.07c0.87-0.16,1.8-0.33,2.75-0.5l0.07-0.01l0.04,0.05c0.58,0.75,1.31,1.47,2.13,2.09l0,0
					l0.05,0.04l-0.01,0.07c-0.15,0.93-0.3,1.85-0.44,2.76l-0.07-0.12c1.45,0.58,2.88,1.16,4.29,1.73l-0.13,0.04
					c0.54-0.77,1.06-1.54,1.59-2.3l0.04-0.05l0.07,0.01c1,0.12,2.01,0.11,2.99-0.03l0.07-0.01l0.04,0.05
					c0.55,0.77,1.1,1.52,1.64,2.27l-0.13-0.04c1.45-0.62,2.87-1.22,4.26-1.81l-0.06,0.11c-0.17-0.93-0.34-1.85-0.5-2.75l-0.01-0.06
					l0.05-0.04c0.8-0.63,1.51-1.35,2.09-2.13l0.04-0.05l0.06,0.01c0.95,0.15,1.86,0.3,2.76,0.45l-0.1,0.06
					c0.61-1.51,1.18-2.93,1.73-4.29l0.03,0.1c-0.81-0.56-1.56-1.09-2.29-1.59l-0.04-0.03l0.01-0.05c0.13-1.06,0.11-2.06-0.03-2.99
					l-0.01-0.04l0.04-0.03c0.83-0.59,1.57-1.13,2.27-1.63l-0.02,0.08c-0.7-1.65-1.29-3.06-1.8-4.26l0.06,0.03
					c-1.1,0.19-2,0.36-2.75,0.49l-0.02,0l-0.01-0.02c-0.62-0.8-1.18-1.32-1.55-1.65c-0.19-0.16-0.33-0.28-0.43-0.36
					C157.9,150.23,157.86,150.19,157.86,150.19s0.06,0.03,0.15,0.11c0.1,0.07,0.25,0.19,0.44,0.35c0.38,0.32,0.95,0.83,1.59,1.64
					l-0.04-0.01c0.75-0.14,1.65-0.31,2.75-0.52l0.04-0.01l0.02,0.04c0.52,1.2,1.12,2.6,1.83,4.25l0.02,0.05l-0.04,0.03
					c-0.7,0.51-1.44,1.05-2.26,1.64l0.03-0.07c0.14,0.95,0.17,1.96,0.04,3.03l-0.03-0.08c0.73,0.5,1.49,1.03,2.3,1.58l0.06,0.04
					l-0.03,0.06c-0.54,1.36-1.11,2.78-1.72,4.29l-0.03,0.07l-0.07-0.01c-0.89-0.14-1.81-0.29-2.76-0.44l0.09-0.04
					c-0.59,0.8-1.31,1.54-2.12,2.17l0.04-0.1c0.16,0.9,0.33,1.82,0.5,2.75l0.02,0.08l-0.08,0.03c-1.38,0.59-2.8,1.2-4.25,1.82
					l-0.08,0.03l-0.05-0.07c-0.54-0.74-1.08-1.5-1.64-2.26l0.11,0.04c-0.99,0.15-2.02,0.16-3.04,0.03l0.11-0.05
					c-0.52,0.76-1.05,1.53-1.59,2.3l-0.05,0.07l-0.08-0.03c-1.41-0.57-2.84-1.14-4.29-1.72l-0.08-0.03l0.02-0.09
					c0.15-0.91,0.29-1.83,0.44-2.76l0.04,0.11l0,0c-0.84-0.63-1.58-1.37-2.17-2.13l0.11,0.04c-0.94,0.17-1.88,0.34-2.75,0.5
					l-0.09,0.02l-0.04-0.08c-0.62-1.46-1.24-2.91-1.81-4.25l-0.03-0.08l0.07-0.05c0.78-0.56,1.56-1.13,2.27-1.64l-0.04,0.1
					c-0.15-1.05-0.15-2.1-0.03-3.04l0.05,0.1c-0.79-0.55-1.58-1.09-2.3-1.59l-0.07-0.05l0.03-0.08c0.6-1.49,1.18-2.94,1.73-4.29
					l0.03-0.07l0.08,0.01c0.96,0.16,1.9,0.31,2.76,0.45l-0.09,0.04c0.64-0.85,1.38-1.59,2.13-2.17l-0.03,0.09
					c-0.17-0.96-0.34-1.9-0.5-2.75l-0.01-0.07l0.06-0.03c1.49-0.63,2.91-1.24,4.26-1.81l0.06-0.03l0.04,0.05
					c0.57,0.8,1.13,1.56,1.63,2.27l-0.07-0.03c1.06-0.15,2.09-0.14,3.03-0.03l-0.06,0.03c0.57-0.83,1.11-1.6,1.59-2.29l0.03-0.04
					l0.04,0.02c1.75,0.71,3.19,1.3,4.28,1.74l0.03,0.01l-0.01,0.03c-0.15,0.89-0.27,1.57-0.35,2.05c-0.04,0.23-0.07,0.4-0.09,0.53
					C157.87,150.13,157.86,150.19,157.86,150.19z"/>
			</g>
		</g>
	</g>
</g>
<g>
	<g>
		<g>
			<g>
				<g>
					<path class="st0" d="M173.07,244.64l-46.26-0.21c-0.48,0-0.86-0.52-0.86-1.16l0.05-12.1c0-0.64,0.39-1.16,0.87-1.16l46.26,0.21
						c0.48,0,0.87,0.52,0.86,1.16l-0.05,12.1C173.94,244.12,173.55,244.64,173.07,244.64z"/>
				</g>
			</g>
			<g>
				<path class="st2" d="M139.6,238.35l0.15-0.29c0.25,0.25,0.69,0.44,1.14,0.45c0.65,0,0.93-0.28,0.94-0.64
					c0.01-0.99-2.13-0.39-2.13-1.74c0-0.53,0.4-0.99,1.28-0.99c0.39,0,0.8,0.12,1.07,0.33l-0.13,0.31c-0.29-0.2-0.64-0.3-0.95-0.31
					c-0.63,0-0.92,0.29-0.92,0.65c-0.01,0.99,2.13,0.4,2.13,1.73c0,0.53-0.41,0.99-1.3,0.98
					C140.36,238.82,139.85,238.63,139.6,238.35z"/>
				<path class="st2" d="M142.99,235.18l0.37,0l-0.02,3.63l-0.37,0L142.99,235.18z"/>
				<path class="st2" d="M147.38,235.2l-0.02,3.63h-0.3l-2.22-2.95l-0.01,2.94l-0.37,0l0.02-3.63l0.3,0l2.22,2.95l0.01-2.94H147.38z
					"/>
				<path class="st2" d="M150.95,237.03l0.35,0l-0.01,1.38c-0.33,0.31-0.79,0.46-1.27,0.45c-1.06-0.01-1.83-0.79-1.82-1.85
					c0.01-1.06,0.78-1.84,1.84-1.84c0.52,0,0.98,0.18,1.28,0.53l-0.23,0.24c-0.29-0.3-0.64-0.43-1.04-0.43
					c-0.86-0.01-1.49,0.63-1.49,1.49c0,0.86,0.62,1.5,1.47,1.51c0.33,0,0.64-0.07,0.91-0.28L150.95,237.03z"/>
				<path class="st2" d="M153.6,237.3l0.01-2.08h0.37l-0.01,2.06c0,0.86,0.38,1.26,1.05,1.26c0.68,0,1.07-0.39,1.07-1.25l0.01-2.06
					l0.36,0l-0.01,2.08c-0.01,1.04-0.54,1.58-1.43,1.57C154.14,238.89,153.6,238.35,153.6,237.3z"/>
				<path class="st2" d="M160.27,236.5c0,0.77-0.54,1.24-1.42,1.23l-0.93-0.01l-0.01,1.15h-0.37l0.02-3.63l1.3,0.01
					C159.74,235.26,160.28,235.72,160.27,236.5z M159.91,236.5c0-0.58-0.36-0.91-1.06-0.92l-0.92-0.01l-0.01,1.81l0.92,0.01
					C159.54,237.4,159.91,237.07,159.91,236.5z"/>
			</g>
		</g>
	</g>
</g>
<g>
	<g>
		<g>
			<g>
				<path d="M181.84,211.78c0-0.01,0.13,0,0.37-0.07c0.23-0.07,0.59-0.26,0.79-0.71c0.11-0.22,0.12-0.49,0.11-0.79
					c0-0.3,0-0.63,0-0.99c0-0.72,0-1.55-0.01-2.47c0-0.93,0-1.97,0-3.1c0-0.28,0-0.57,0-0.87c0.01-0.3-0.02-0.57-0.18-0.82
					c-0.15-0.24-0.39-0.44-0.68-0.53c-0.28-0.09-0.61-0.04-0.94-0.05c-2.65-0.01-5.66-0.01-8.98-0.02
					c-13.32-0.05-31.71-0.12-52.02-0.19c-0.56-0.01-1.08,0.45-1.14,1c-0.02,0.59-0.01,1.25-0.02,1.87c-0.01,1.25-0.01,2.5-0.02,3.74
					c0,0.62-0.01,1.24-0.01,1.85c0.01,0.31-0.03,0.63,0.04,0.87c0.07,0.26,0.24,0.49,0.46,0.64c0.23,0.15,0.48,0.21,0.78,0.2
					l0.91,0.01c0.6,0,1.2,0.01,1.8,0.01c4.79,0.03,9.41,0.05,13.81,0.07c8.8,0.05,16.73,0.1,23.39,0.14
					c6.65,0.05,12.03,0.09,15.77,0.13c1.85,0.02,3.29,0.04,4.29,0.05c0.48,0.01,0.85,0.02,1.12,0.02
					C181.72,211.77,181.84,211.78,181.84,211.78s-0.13,0.01-0.38,0.02c-0.26,0-0.63,0.01-1.12,0.01c-0.99,0-2.44,0.01-4.29,0.01
					c-3.73-0.01-9.12-0.01-15.77-0.02c-6.66-0.02-14.59-0.05-23.39-0.07c-4.4-0.02-9.02-0.04-13.81-0.05c-0.6,0-1.2-0.01-1.8-0.01
					l-0.91,0c-0.31,0.02-0.68-0.06-0.96-0.25c-0.28-0.19-0.49-0.49-0.58-0.82c-0.09-0.35-0.04-0.65-0.05-0.96
					c0-0.61,0.01-1.23,0.01-1.85c0.01-1.24,0.01-2.48,0.02-3.74c0.01-0.64-0.01-1.24,0.02-1.9c0.07-0.72,0.74-1.31,1.46-1.29
					c20.31,0.11,38.7,0.21,52.02,0.29c3.33,0.03,6.34,0.05,8.98,0.07c0.33,0.02,0.66-0.04,0.99,0.07c0.33,0.1,0.6,0.33,0.77,0.6
					c0.18,0.27,0.22,0.62,0.2,0.91c0,0.29-0.01,0.58-0.01,0.87c-0.01,1.13-0.02,2.17-0.03,3.1c-0.01,0.93-0.02,1.76-0.03,2.47
					c-0.01,0.36-0.01,0.69-0.01,0.99c0.01,0.3-0.01,0.59-0.13,0.82c-0.22,0.46-0.6,0.65-0.84,0.71
					C181.98,211.8,181.84,211.78,181.84,211.78z"/>
			</g>
		</g>
	</g>
	<g>
		<g>
			<g>
				<path class="st10" d="M125.88,206.25c0,0.76-0.58,1.37-1.29,1.36c-0.71,0-1.28-0.62-1.28-1.37c0-0.76,0.58-1.37,1.29-1.36
					C125.31,204.88,125.88,205.49,125.88,206.25z"/>
			</g>
		</g>
		<g>
			<g>
				<path class="st10" d="M129.86,206.27c0,0.76-0.58,1.37-1.29,1.36c-0.71,0-1.28-0.62-1.28-1.37c0-0.76,0.58-1.37,1.29-1.36
					C129.29,204.9,129.86,205.51,129.86,206.27z"/>
			</g>
		</g>
		<g>
			<g>
				<path class="st10" d="M133.83,206.29c0,0.76-0.58,1.37-1.29,1.36s-1.28-0.62-1.28-1.37c0-0.76,0.58-1.37,1.29-1.36
					C133.27,204.91,133.84,205.53,133.83,206.29z"/>
			</g>
		</g>
		<g>
			<g>
				<path class="st10" d="M137.81,206.3c0,0.76-0.58,1.37-1.29,1.36s-1.28-0.62-1.28-1.37c0-0.76,0.58-1.37,1.29-1.36
					C137.24,204.93,137.82,205.55,137.81,206.3z"/>
			</g>
		</g>
		<g>
			<g>
				<path class="st10" d="M141.79,206.32c0,0.76-0.58,1.37-1.29,1.36c-0.71,0-1.28-0.62-1.28-1.37c0-0.76,0.58-1.37,1.29-1.36
					C141.22,204.95,141.79,205.57,141.79,206.32z"/>
			</g>
		</g>
		<g>
			<g>
				<path class="st10" d="M145.77,206.34c0,0.76-0.58,1.37-1.29,1.36c-0.71,0-1.28-0.62-1.28-1.37c0-0.76,0.58-1.37,1.29-1.36
					C145.2,204.97,145.77,205.59,145.77,206.34z"/>
			</g>
		</g>
		<g>
			<g>
				<path class="st10" d="M149.75,206.36c0,0.76-0.58,1.37-1.29,1.36c-0.71,0-1.28-0.62-1.28-1.37c0-0.76,0.58-1.37,1.29-1.36
					C149.18,204.99,149.75,205.6,149.75,206.36z"/>
			</g>
		</g>
		<g>
			<g>
				<path class="st10" d="M153.72,206.38c0,0.76-0.58,1.37-1.29,1.36s-1.28-0.62-1.28-1.37c0-0.76,0.58-1.37,1.29-1.36
					C153.15,205.01,153.73,205.62,153.72,206.38z"/>
			</g>
		</g>
		<g>
			<g>
				<path class="st10" d="M157.7,206.4c0,0.76-0.58,1.37-1.29,1.36c-0.71,0-1.28-0.62-1.28-1.37c0-0.76,0.58-1.37,1.29-1.36
					C157.13,205.02,157.7,205.64,157.7,206.4z"/>
			</g>
		</g>
	</g>
	<g>
		<g>
			
				<rect x="125.57" y="170.91" transform="matrix(4.615634e-03 -1 1 4.615634e-03 -52.4769 305.1516)" width="2.95" height="16.05"/>
		</g>
	</g>
	<g>
		<g>
			<g>
				<path d="M181.85,195.57c0-0.01,0.13,0,0.37-0.07c0.23-0.07,0.59-0.26,0.79-0.71c0.11-0.22,0.12-0.49,0.11-0.79
					c0-0.3,0-0.63,0-0.99c0-0.72,0-1.55-0.01-2.47c0-0.93,0-1.97,0-3.1c0-0.28,0-0.57,0-0.87c0.01-0.3-0.02-0.57-0.18-0.82
					c-0.15-0.24-0.39-0.44-0.68-0.53c-0.28-0.09-0.61-0.04-0.94-0.05c-2.65-0.01-5.66-0.01-8.98-0.02
					c-13.32-0.05-31.71-0.12-52.02-0.19c-0.56-0.01-1.08,0.45-1.14,1c-0.02,0.59-0.01,1.25-0.02,1.87c-0.01,1.25-0.01,2.5-0.02,3.74
					c0,0.62-0.01,1.24-0.01,1.85c0.01,0.31-0.03,0.63,0.04,0.87c0.07,0.26,0.24,0.49,0.46,0.64c0.23,0.15,0.48,0.21,0.78,0.2
					l0.91,0.01c0.6,0,1.2,0.01,1.8,0.01c4.79,0.03,9.41,0.05,13.81,0.07c8.8,0.05,16.73,0.1,23.39,0.14
					c6.65,0.05,12.03,0.09,15.77,0.13c1.85,0.02,3.29,0.04,4.29,0.05c0.48,0.01,0.85,0.02,1.12,0.02
					C181.72,195.56,181.85,195.57,181.85,195.57s-0.13,0.01-0.38,0.02c-0.26,0-0.63,0.01-1.12,0.01c-0.99,0-2.44,0.01-4.29,0.01
					c-3.73-0.01-9.12-0.01-15.77-0.02c-6.66-0.02-14.59-0.05-23.39-0.07c-4.4-0.02-9.02-0.04-13.81-0.05c-0.6,0-1.2-0.01-1.8-0.01
					l-0.91-0.01c-0.31,0.02-0.68-0.06-0.96-0.25c-0.28-0.19-0.49-0.49-0.58-0.82c-0.09-0.35-0.04-0.65-0.05-0.96
					c0-0.61,0.01-1.23,0.01-1.85c0.01-1.24,0.01-2.48,0.02-3.74c0.01-0.64-0.01-1.24,0.02-1.9c0.07-0.72,0.74-1.31,1.46-1.29
					c20.31,0.11,38.7,0.21,52.02,0.29c3.33,0.03,6.34,0.05,8.98,0.07c0.33,0.02,0.66-0.04,0.99,0.07c0.33,0.1,0.6,0.33,0.77,0.6
					c0.18,0.27,0.22,0.62,0.2,0.91c0,0.29-0.01,0.58-0.01,0.87c-0.01,1.13-0.02,2.17-0.03,3.1c-0.01,0.93-0.02,1.76-0.03,2.47
					c-0.01,0.36-0.01,0.69-0.01,0.99c0.01,0.3-0.01,0.59-0.13,0.82c-0.22,0.46-0.6,0.65-0.84,0.71
					C181.98,195.59,181.85,195.57,181.85,195.57z"/>
			</g>
		</g>
	</g>
	<g>
		<g>
			
				<rect x="136.63" y="175.52" transform="matrix(4.619041e-03 -1 1 4.619041e-03 -52.8304 327.3253)" width="2.75" height="29.36"/>
		</g>
	</g>
</g>
</svg>
