<?xml version="1.0" encoding="utf-8"?>
<!-- Generator: Adobe Illustrator 24.1.0, SVG Export Plug-In . SVG Version: 6.00 Build 0)  -->
<svg version="1.1" id="Layer_1" xmlns="http://www.w3.org/2000/svg" xmlns:xlink="http://www.w3.org/1999/xlink" x="0px" y="0px"
	 viewBox="0 0 200 100" style="enable-background:new 0 0 200 100;" xml:space="preserve">
<style type="text/css">
	.st0{fill:#999999;}
</style>
<g>
	<path class="st0" d="M78.81,33.85c0,4.6-0.12,7.85-0.35,9.77c-0.24,1.91-0.97,3.66-2.21,5.24c-1.24,1.58-2.91,2.8-5.02,3.65
		c-2.11,0.85-4.57,1.27-7.37,1.27c-2.66,0-5.05-0.4-7.17-1.2c-2.12-0.8-3.83-2-5.11-3.6c-1.29-1.6-2.06-3.34-2.3-5.23
		c-0.25-1.88-0.37-5.18-0.37-9.89v-7.83c0-4.6,0.12-7.85,0.35-9.77c0.23-1.91,0.97-3.66,2.21-5.24s2.91-2.8,5.02-3.65
		c2.11-0.85,4.57-1.27,7.37-1.27c2.66,0,5.05,0.4,7.17,1.2s3.82,2,5.11,3.6c1.29,1.6,2.06,3.35,2.3,5.23s0.37,5.18,0.37,9.89V33.85z
		 M65.88,18.8c0-2.13-0.13-3.49-0.38-4.09c-0.26-0.59-0.78-0.89-1.58-0.89c-0.68,0-1.19,0.24-1.55,0.72
		c-0.36,0.48-0.54,1.9-0.54,4.25v21.37c0,2.66,0.12,4.3,0.35,4.92c0.23,0.62,0.78,0.93,1.64,0.93c0.88,0,1.44-0.36,1.69-1.08
		c0.25-0.72,0.37-2.42,0.37-5.12V18.8z"/>
	<path class="st0" d="M92.5,20.17l-0.2,2.97c1.04-1.2,2.18-2.1,3.43-2.69c1.25-0.59,2.62-0.89,4.1-0.89c1.81,0,3.37,0.43,4.69,1.28
		c1.32,0.85,2.14,1.84,2.47,2.95c0.33,1.11,0.49,3,0.49,5.67v14.15c0,3.06-0.21,5.23-0.62,6.52c-0.41,1.29-1.26,2.32-2.54,3.09
		c-1.28,0.77-2.82,1.15-4.63,1.15c-1.44,0-2.78-0.3-4.01-0.89c-1.23-0.59-2.36-1.47-3.37-2.64v7.7H80.64V20.17H92.5z M95.81,29.95
		c0-2.08-0.09-3.33-0.26-3.77c-0.17-0.44-0.65-0.66-1.44-0.66c-0.77,0-1.26,0.25-1.48,0.76c-0.22,0.51-0.33,1.73-0.33,3.67v13.93
		c0,2.02,0.11,3.29,0.35,3.8s0.73,0.76,1.5,0.76c0.75,0,1.22-0.23,1.4-0.7c0.18-0.46,0.27-1.59,0.27-3.38V29.95z"/>
	<path class="st0" d="M136.9,37.95h-15.08v6.74c0,1.41,0.12,2.32,0.37,2.72c0.25,0.41,0.73,0.61,1.44,0.61
		c0.88,0,1.47-0.27,1.77-0.81c0.3-0.54,0.45-1.59,0.45-3.13v-4.11h11.04v2.3c0,1.92-0.15,3.4-0.45,4.44
		c-0.3,1.03-0.99,2.13-2.09,3.31c-1.1,1.17-2.49,2.05-4.17,2.64c-1.68,0.58-3.79,0.88-6.33,0.88c-2.46,0-4.63-0.29-6.52-0.87
		c-1.89-0.58-3.35-1.37-4.4-2.38c-1.05-1.01-1.77-2.12-2.18-3.33c-0.4-1.21-0.61-2.98-0.61-5.29v-9.08c0-2.72,0.45-4.87,1.36-6.44
		c0.9-1.57,2.38-2.78,4.44-3.61s4.42-1.26,7.1-1.26c3.27,0,5.97,0.5,8.09,1.51c2.12,1.01,3.61,2.35,4.47,4.01
		c0.85,1.67,1.28,4.01,1.28,7.03V37.95z M125.22,32.88V30.6c0-1.61-0.11-2.65-0.32-3.12c-0.21-0.47-0.64-0.7-1.3-0.7
		c-0.81,0-1.31,0.2-1.5,0.6c-0.19,0.4-0.29,1.47-0.29,3.23v2.28H125.22z"/>
	<path class="st0" d="M139.72,7.24h12.5c3.95,0,6.94,0.29,8.98,0.87c2.03,0.58,3.68,1.76,4.93,3.54c1.25,1.78,1.88,4.64,1.88,8.59
		c0,2.67-0.44,4.53-1.33,5.59c-0.88,1.05-2.62,1.86-5.23,2.43c2.9,0.62,4.86,1.65,5.89,3.09c1.03,1.44,1.55,3.65,1.55,6.62v4.24
		c0,3.09-0.37,5.38-1.12,6.86c-0.74,1.49-1.93,2.5-3.56,3.05c-1.63,0.55-4.96,0.82-10,0.82h-14.5V7.24z M152.26,15.05v10.16
		c0.54-0.02,0.95-0.03,1.25-0.03c1.23,0,2.01-0.29,2.35-0.86c0.34-0.57,0.51-2.22,0.51-4.93c0-1.43-0.14-2.43-0.41-3.01
		c-0.28-0.57-0.64-0.94-1.09-1.09C154.41,15.16,153.55,15.07,152.26,15.05z M152.26,32.33v12.79c1.77-0.06,2.89-0.32,3.38-0.79
		c0.49-0.47,0.73-1.63,0.73-3.47v-4.26c0-1.96-0.22-3.14-0.65-3.56C155.27,32.62,154.12,32.39,152.26,32.33z"/>
	<path class="st0" d="M197.27,31.67v8.03c0,2.95-0.17,5.11-0.52,6.48s-1.09,2.66-2.22,3.85c-1.13,1.19-2.59,2.08-4.37,2.64
		c-1.78,0.57-3.82,0.85-6.13,0.85c-2.58,0-4.76-0.24-6.55-0.73c-1.79-0.49-3.18-1.22-4.17-2.2c-0.99-0.98-1.7-2.17-2.12-3.56
		c-0.42-1.39-0.64-3.48-0.64-6.26v-8.4c0-3.05,0.39-5.43,1.16-7.14c0.77-1.71,2.15-3.09,4.15-4.13c2-1.04,4.55-1.56,7.67-1.56
		c2.62,0,4.86,0.33,6.73,1c1.87,0.67,3.32,1.54,4.34,2.61c1.02,1.07,1.72,2.17,2.09,3.31C197.08,27.62,197.27,29.35,197.27,31.67z
		 M185.62,29.2c0-1.68-0.11-2.74-0.32-3.17s-0.66-0.65-1.36-0.65c-0.69,0-1.15,0.22-1.38,0.65c-0.23,0.44-0.35,1.49-0.35,3.17v14.79
		c0,1.55,0.11,2.56,0.35,3.03c0.23,0.47,0.68,0.71,1.36,0.71c0.69,0,1.15-0.21,1.37-0.64c0.22-0.43,0.33-1.35,0.33-2.77V29.2z"/>
	<g>
		<path class="st0" d="M79.23,68.16L1.59,65.2c0,0,23.9-22.84,26.13-28.22l2.38,11.27L21.25,62.4h31.92
			C60.56,65.43,69.4,67.83,79.23,68.16z"/>
		<path class="st0" d="M198.51,66.68v1.15c0,0-90.32,1.25-119.27,0.33c-9.83-0.33-18.68-2.73-26.06-5.76
			C38.89,56.49,30.1,48.24,30.1,48.24l-2.38-11.27c0,0,4.33,7.39,31.42,20.58C86.24,70.75,182.68,65.36,198.51,66.68z"/>
	</g>
	<g>
		<g>
			<path class="st0" d="M5.78,89.35c-0.9,0-1.69-0.23-2.38-0.68s-1.22-1.1-1.6-1.93c-0.39-0.84-0.58-1.81-0.58-2.93
				c0-1.15,0.19-2.31,0.58-3.49c0.39-1.18,0.91-2.3,1.58-3.38c0.67-1.07,1.42-2.03,2.26-2.88s1.73-1.51,2.66-2
				c0.93-0.49,1.85-0.74,2.75-0.74c0.3,0,0.57,0.02,0.81,0.07s0.44,0.11,0.62,0.2c-0.13,0-0.2,0-0.23,0c-0.02,0-0.04,0-0.06,0
				c-0.82,0-1.65,0.26-2.49,0.77c-0.84,0.51-1.64,1.21-2.4,2.08c-0.76,0.87-1.44,1.85-2.04,2.93c-0.6,1.08-1.08,2.2-1.42,3.37
				c-0.35,1.16-0.52,2.29-0.52,3.38c0,0.79,0.11,1.53,0.32,2.21c0.21,0.69,0.56,1.23,1.03,1.64s1.08,0.62,1.83,0.62
				c0.89,0,1.72-0.26,2.49-0.77c0.78-0.51,1.48-1.21,2.1-2.09s1.16-1.86,1.62-2.94s0.8-2.2,1.04-3.36c0.25-1.16,0.37-2.26,0.37-3.32
				c0-0.42-0.03-0.87-0.1-1.34c-0.06-0.48-0.17-0.89-0.33-1.23c-0.16-0.34-0.37-0.51-0.64-0.51c-0.29,0-0.59,0.17-0.93,0.5
				c-0.33,0.33-0.65,0.76-0.96,1.26c-0.31,0.51-0.58,1.03-0.82,1.58c-0.24,0.54-0.4,1.03-0.5,1.44c-0.4-0.09-0.69-0.23-0.87-0.44
				c-0.18-0.2-0.27-0.42-0.27-0.66c0-0.4,0.15-0.85,0.44-1.33c0.29-0.48,0.67-0.95,1.12-1.41s0.92-0.83,1.41-1.12
				c0.49-0.29,0.93-0.44,1.33-0.44c0.41,0,0.75,0.14,1.01,0.42s0.47,0.65,0.62,1.08c0.15,0.44,0.25,0.91,0.31,1.41
				c0.06,0.5,0.08,0.97,0.08,1.4c0,1.63-0.19,3.11-0.58,4.44c-0.39,1.33-0.91,2.51-1.57,3.52c-0.66,1.01-1.39,1.87-2.2,2.56
				s-1.64,1.22-2.48,1.57C7.34,89.17,6.54,89.35,5.78,89.35z"/>
			<path class="st0" d="M14.02,93.67c-0.13,0-0.25-0.06-0.37-0.19s-0.21-0.26-0.27-0.4c-0.06-0.14-0.09-0.23-0.09-0.26
				c0.22-0.73,0.44-1.38,0.65-1.96c0.21-0.57,0.43-1.16,0.64-1.77c0.21-0.6,0.42-1.31,0.63-2.13c0.21-0.81,0.42-1.82,0.64-3.03
				c0.22-1.21,0.44-2.71,0.67-4.5c0.02-0.13,0.05-0.23,0.09-0.29c0.05-0.06,0.17-0.09,0.36-0.09c0.41,0,0.7,0.11,0.88,0.32
				c0.17,0.22,0.26,0.45,0.26,0.71c0,0.21-0.05,0.58-0.14,1.12c-0.1,0.54-0.23,1.17-0.4,1.9c0.27-0.49,0.61-0.99,1.01-1.5
				s0.87-0.93,1.39-1.28c0.52-0.34,1.09-0.51,1.71-0.51c0.7,0,1.27,0.24,1.72,0.71s0.68,1.08,0.68,1.85c0,0.58-0.14,1.2-0.42,1.85
				c-0.28,0.65-0.67,1.26-1.16,1.83c-0.5,0.57-1.09,1.04-1.77,1.4c-0.68,0.36-1.43,0.54-2.26,0.54c-0.41,0-0.74-0.04-1-0.13
				c-0.25-0.09-0.38-0.18-0.38-0.27c0-0.06,0.06-0.09,0.18-0.1s0.26-0.01,0.42-0.01c0.63,0,1.24-0.15,1.82-0.44
				c0.58-0.29,1.1-0.67,1.56-1.15c0.46-0.48,0.82-1.01,1.08-1.59c0.26-0.58,0.39-1.16,0.39-1.72c0-0.48-0.11-0.88-0.32-1.22
				c-0.21-0.34-0.56-0.5-1.03-0.5c-0.41,0-0.82,0.12-1.22,0.37s-0.78,0.56-1.14,0.94c-0.36,0.38-0.67,0.78-0.95,1.19
				c-0.28,0.41-0.49,0.78-0.63,1.11c-0.29,1.12-0.57,2.2-0.85,3.23c-0.29,1.04-0.56,1.98-0.82,2.82s-0.5,1.53-0.71,2.07
				c-0.21,0.54-0.39,0.87-0.53,0.99C14.23,93.63,14.13,93.67,14.02,93.67z"/>
			<path class="st0" d="M27.37,88.39c-0.97,0-1.69-0.25-2.17-0.75c-0.48-0.5-0.72-1.12-0.72-1.85c0-0.67,0.18-1.38,0.53-2.13
				c0.36-0.75,0.83-1.45,1.43-2.1c0.59-0.66,1.25-1.19,1.96-1.6c0.71-0.41,1.42-0.62,2.11-0.62c0.36,0,0.7,0.09,1.01,0.27
				c0.31,0.18,0.46,0.54,0.46,1.1c0,0.57-0.18,1.1-0.53,1.6c-0.36,0.5-0.82,0.94-1.4,1.33c-0.58,0.39-1.21,0.71-1.9,0.95
				c-0.69,0.25-1.37,0.4-2.05,0.46c-0.03,0.15-0.06,0.29-0.07,0.43c-0.02,0.13-0.02,0.26-0.02,0.38c0,0.22,0.03,0.45,0.08,0.67
				c0.06,0.22,0.15,0.43,0.3,0.62s0.34,0.33,0.58,0.44c0.25,0.1,0.55,0.16,0.91,0.16c0.68,0,1.35-0.18,2.02-0.55
				s1.28-0.85,1.85-1.44c0.57-0.6,1.05-1.25,1.45-1.97l0.28,0.2c-0.43,0.89-0.97,1.67-1.63,2.33c-0.66,0.66-1.37,1.17-2.14,1.53
				C28.94,88.2,28.16,88.39,27.37,88.39z M26.2,84.63c0.43-0.13,0.91-0.33,1.45-0.59c0.54-0.26,1.06-0.57,1.56-0.93
				c0.5-0.36,0.91-0.75,1.23-1.19c0.32-0.43,0.49-0.89,0.49-1.37c0-0.16-0.03-0.29-0.1-0.38c-0.06-0.09-0.2-0.13-0.4-0.13
				c-0.38,0-0.78,0.14-1.21,0.41c-0.43,0.28-0.84,0.64-1.23,1.08c-0.4,0.45-0.75,0.94-1.07,1.48C26.6,83.55,26.36,84.09,26.2,84.63z
				"/>
			<path class="st0" d="M40.38,87.85c-0.55,0-0.97-0.13-1.25-0.4c-0.28-0.27-0.42-0.61-0.42-1.03c0-0.31,0.06-0.64,0.18-0.98
				c0.12-0.34,0.23-0.7,0.34-1.06c0.11-0.37,0.17-0.72,0.17-1.06c0-0.42-0.09-0.7-0.27-0.86c-0.18-0.16-0.41-0.23-0.68-0.23
				c-0.49,0-0.99,0.19-1.5,0.57c-0.51,0.38-1,0.87-1.47,1.45c-0.48,0.59-0.92,1.2-1.33,1.82c-0.41,0.63-0.78,1.19-1.09,1.68
				c-0.25,0-0.49-0.04-0.72-0.12c-0.23-0.08-0.41-0.21-0.53-0.37c0-0.08,0.08-0.31,0.25-0.69c0.17-0.39,0.36-0.86,0.58-1.43
				c0.22-0.57,0.42-1.15,0.59-1.75s0.26-1.14,0.26-1.63c0.1-0.1,0.25-0.21,0.45-0.31c0.21-0.1,0.42-0.16,0.64-0.16
				c0.43,0,0.64,0.19,0.64,0.58c0,0.24-0.07,0.64-0.21,1.2s-0.32,1.14-0.55,1.76c0.43-0.61,0.91-1.22,1.44-1.82
				c0.53-0.6,1.1-1.11,1.7-1.51c0.6-0.4,1.2-0.6,1.8-0.6c0.62,0,1.06,0.21,1.34,0.63c0.28,0.42,0.42,0.88,0.42,1.39
				c0,0.46-0.08,0.89-0.24,1.29c-0.16,0.4-0.32,0.78-0.49,1.14c-0.17,0.37-0.25,0.73-0.25,1.11c0,0.31,0.07,0.53,0.2,0.66
				c0.13,0.13,0.3,0.19,0.51,0.19c0.4,0,0.79-0.18,1.19-0.53c0.4-0.35,0.78-0.79,1.15-1.33c0.37-0.54,0.7-1.08,0.99-1.63l0.26,0.29
				c-0.33,0.73-0.7,1.38-1.12,1.95c-0.41,0.57-0.86,1.01-1.35,1.34C41.53,87.68,40.98,87.85,40.38,87.85z"/>
			<path class="st0" d="M45.49,87.98c-0.62,0-1.08-0.18-1.38-0.55s-0.45-0.81-0.45-1.33c0-0.34,0.07-0.78,0.2-1.3
				c0.13-0.52,0.31-1.07,0.53-1.64c0.22-0.57,0.48-1.11,0.77-1.62c0.29-0.51,0.61-0.92,0.94-1.24c0.33-0.32,0.66-0.48,0.97-0.48
				c0.14,0,0.27,0.04,0.37,0.12c0.1,0.08,0.15,0.21,0.15,0.37c0,0.18-0.12,0.47-0.37,0.87c-0.25,0.4-0.53,0.87-0.87,1.39
				c-0.33,0.52-0.62,1.07-0.87,1.64s-0.37,1.12-0.37,1.64c0,0.54,0.1,0.9,0.29,1.07s0.48,0.27,0.88,0.27c0.54,0,1.11-0.25,1.72-0.76
				c0.61-0.51,1.25-1.39,1.94-2.66L50.17,84c-0.46,1.28-1.12,2.27-1.98,2.95C47.32,87.64,46.42,87.98,45.49,87.98z M48.34,77.74
				c-0.25,0-0.48-0.06-0.68-0.18c-0.2-0.12-0.3-0.31-0.3-0.56c0-0.31,0.19-0.58,0.58-0.82c0.39-0.23,0.77-0.35,1.15-0.35
				c0.24,0,0.43,0.05,0.57,0.16c0.14,0.1,0.21,0.28,0.21,0.54c0,0.28-0.16,0.56-0.49,0.82C49.07,77.61,48.72,77.74,48.34,77.74z"/>
			<path class="st0" d="M57.17,87.85c-0.55,0-0.97-0.13-1.25-0.4c-0.28-0.27-0.42-0.61-0.42-1.03c0-0.31,0.06-0.64,0.18-0.98
				c0.12-0.34,0.23-0.7,0.34-1.06c0.11-0.37,0.17-0.72,0.17-1.06c0-0.42-0.09-0.7-0.27-0.86c-0.18-0.16-0.41-0.23-0.68-0.23
				c-0.49,0-0.99,0.19-1.5,0.57c-0.51,0.38-1,0.87-1.47,1.45c-0.48,0.59-0.92,1.2-1.33,1.82c-0.41,0.63-0.78,1.19-1.09,1.68
				c-0.25,0-0.49-0.04-0.72-0.12c-0.23-0.08-0.41-0.21-0.53-0.37c0-0.08,0.08-0.31,0.25-0.69c0.17-0.39,0.36-0.86,0.58-1.43
				c0.22-0.57,0.42-1.15,0.59-1.75s0.26-1.14,0.26-1.63c0.1-0.1,0.25-0.21,0.45-0.31c0.21-0.1,0.42-0.16,0.64-0.16
				c0.43,0,0.64,0.19,0.64,0.58c0,0.24-0.07,0.64-0.21,1.2s-0.32,1.14-0.55,1.76c0.43-0.61,0.91-1.22,1.44-1.82
				c0.53-0.6,1.1-1.11,1.7-1.51c0.6-0.4,1.2-0.6,1.8-0.6c0.62,0,1.06,0.21,1.34,0.63c0.28,0.42,0.42,0.88,0.42,1.39
				c0,0.46-0.08,0.89-0.24,1.29c-0.16,0.4-0.32,0.78-0.49,1.14c-0.17,0.37-0.25,0.73-0.25,1.11c0,0.31,0.07,0.53,0.2,0.66
				c0.13,0.13,0.3,0.19,0.51,0.19c0.4,0,0.79-0.18,1.19-0.53c0.4-0.35,0.78-0.79,1.15-1.33c0.37-0.54,0.7-1.08,0.99-1.63l0.26,0.29
				c-0.33,0.73-0.7,1.38-1.12,1.95c-0.41,0.57-0.86,1.01-1.35,1.34C58.32,87.68,57.77,87.85,57.17,87.85z"/>
			<path class="st0" d="M61.47,93.67c-0.35,0-0.67-0.1-0.95-0.3c-0.29-0.2-0.43-0.53-0.43-1c0-0.45,0.15-0.86,0.44-1.24
				c0.29-0.38,0.67-0.73,1.13-1.05c0.46-0.32,0.96-0.62,1.51-0.88s1.06-0.52,1.56-0.76c0.22-0.52,0.43-1.08,0.63-1.69
				c0.2-0.6,0.39-1.27,0.58-2c-0.6,0.82-1.23,1.5-1.89,2.05c-0.66,0.54-1.32,0.82-1.98,0.82c-0.57,0-1.01-0.2-1.32-0.6
				c-0.31-0.4-0.46-0.92-0.46-1.57c0-0.78,0.2-1.51,0.61-2.21s0.93-1.32,1.58-1.86c0.65-0.54,1.34-0.96,2.07-1.26
				c0.73-0.31,1.41-0.46,2.04-0.46c0.46,0,0.79,0.07,0.99,0.21s0.3,0.31,0.3,0.5c0,0.13-0.04,0.24-0.12,0.31s-0.13,0.12-0.17,0.13
				c-0.08-0.12-0.2-0.21-0.36-0.26c-0.16-0.05-0.36-0.08-0.59-0.08c-0.62,0-1.22,0.17-1.79,0.51c-0.58,0.34-1.09,0.78-1.53,1.32
				c-0.44,0.54-0.8,1.09-1.06,1.67s-0.39,1.1-0.39,1.58c0,0.36,0.07,0.63,0.23,0.82c0.15,0.19,0.35,0.28,0.61,0.28
				c0.46,0,1.01-0.29,1.65-0.86c0.64-0.57,1.26-1.27,1.86-2.09c0.05-0.21,0.09-0.4,0.13-0.56s0.09-0.37,0.15-0.63
				c0.05-0.21,0.16-0.45,0.34-0.73c0.18-0.28,0.47-0.41,0.87-0.41c0.08,0,0.16,0,0.24,0.01c0.08,0.01,0.17,0.03,0.26,0.06
				c0,0.24-0.08,0.67-0.23,1.31s-0.36,1.37-0.64,2.21c-0.28,0.84-0.6,1.71-0.96,2.61c0.52-0.24,1.03-0.54,1.53-0.92
				c0.5-0.37,0.95-0.8,1.37-1.29c0.41-0.49,0.74-1.01,0.97-1.58L70.54,84c-0.24,0.67-0.62,1.28-1.14,1.83s-1.08,1.03-1.67,1.43
				c-0.59,0.4-1.14,0.72-1.63,0.94c-0.44,1-0.91,1.91-1.4,2.74c-0.49,0.83-1,1.49-1.53,1.98C62.64,93.42,62.07,93.67,61.47,93.67z
				 M61.4,92.95c0.32,0,0.75-0.29,1.29-0.88c0.55-0.59,1.14-1.6,1.77-3.03c-0.63,0.3-1.22,0.61-1.77,0.93
				c-0.55,0.32-0.99,0.66-1.34,1.02c-0.35,0.36-0.52,0.75-0.52,1.19c0,0.24,0.06,0.43,0.17,0.57C61.11,92.88,61.24,92.95,61.4,92.95
				z"/>
			<path class="st0" d="M78,88.43c-0.68,0-1.2-0.19-1.57-0.56s-0.55-0.92-0.55-1.66c0-0.45,0.07-0.98,0.2-1.61
				c0.13-0.63,0.32-1.29,0.55-2c0.23-0.71,0.48-1.4,0.75-2.07c-0.16-0.03-0.31-0.08-0.45-0.15c-0.14-0.07-0.28-0.12-0.4-0.17v-0.4
				c0.13,0.02,0.28,0.05,0.45,0.11c0.17,0.06,0.37,0.1,0.59,0.11c0.44-1.07,0.91-2.07,1.41-2.98c0.5-0.91,0.98-1.64,1.44-2.19
				c0.46-0.55,0.85-0.83,1.16-0.83c0.13,0,0.24,0.04,0.34,0.12s0.15,0.21,0.15,0.37c0,0.15-0.06,0.36-0.19,0.64
				c-0.13,0.28-0.3,0.6-0.52,0.97s-0.47,0.78-0.74,1.23s-0.55,0.92-0.85,1.43c-0.3,0.51-0.59,1.04-0.85,1.59
				c0.4,0.06,0.78,0.11,1.15,0.16s0.76,0.07,1.15,0.07c0.43,0,0.89-0.03,1.38-0.09c0.49-0.06,1.05-0.15,1.69-0.27
				c0.41-1.06,0.87-2.11,1.39-3.15s1.04-2,1.57-2.85c0.53-0.86,1.04-1.54,1.52-2.06s0.9-0.77,1.25-0.77c0.29,0,0.49,0.16,0.61,0.48
				c0.12,0.32,0.18,0.63,0.18,0.93c0,0.52-0.14,1.14-0.42,1.85c-0.28,0.71-0.65,1.44-1.13,2.19c-0.48,0.75-1.03,1.46-1.65,2.1
				s-1.29,1.17-1.98,1.58c-0.25,0.57-0.48,1.22-0.68,1.97c-0.2,0.75-0.34,1.48-0.42,2.2s-0.09,1.32-0.02,1.8
				c0.38-1.03,0.81-1.98,1.28-2.86s1.01-1.59,1.6-2.13s1.24-0.8,1.94-0.8c0.65,0,1.11,0.21,1.39,0.64c0.28,0.43,0.42,0.88,0.42,1.38
				c0,0.46-0.08,0.91-0.25,1.34c-0.17,0.43-0.34,0.85-0.51,1.25c-0.17,0.4-0.26,0.79-0.26,1.16c0,0.3,0.07,0.51,0.2,0.65
				c0.13,0.13,0.3,0.2,0.51,0.2c0.36,0,0.77-0.16,1.22-0.49s0.9-0.76,1.34-1.31c0.44-0.54,0.82-1.14,1.14-1.78l0.31,0.27
				c-0.33,0.73-0.74,1.39-1.21,1.98c-0.48,0.59-1,1.06-1.57,1.4s-1.16,0.51-1.78,0.51c-0.54,0-0.95-0.13-1.22-0.4
				c-0.28-0.27-0.42-0.6-0.42-1.01c0-0.31,0.06-0.66,0.19-1.05c0.13-0.39,0.25-0.78,0.37-1.19c0.12-0.4,0.18-0.78,0.18-1.14
				c0-0.39-0.09-0.66-0.26-0.83c-0.17-0.16-0.39-0.25-0.64-0.25c-0.4,0-0.75,0.15-1.07,0.45c-0.32,0.3-0.61,0.68-0.87,1.15
				s-0.51,0.97-0.74,1.49s-0.45,1.02-0.65,1.49c-0.21,0.47-0.41,0.85-0.62,1.15c-0.21,0.3-0.42,0.45-0.64,0.45
				c-0.17,0-0.33-0.08-0.48-0.25c-0.14-0.17-0.26-0.4-0.34-0.69c-0.09-0.3-0.14-0.64-0.15-1.04c-0.02-0.4,0.01-0.82,0.07-1.26
				c-0.6,1-1.34,1.82-2.22,2.46C79.89,88.11,78.96,88.43,78,88.43z M78.69,87.6c0.82,0,1.63-0.34,2.42-1.03
				c0.79-0.69,1.49-1.62,2.09-2.8c0.11-0.49,0.23-0.96,0.34-1.41s0.28-0.95,0.49-1.5c-0.54,0.12-1.05,0.2-1.53,0.25
				c-0.48,0.04-0.95,0.07-1.39,0.07s-0.86-0.03-1.26-0.08c-0.4-0.05-0.79-0.11-1.19-0.17c-0.36,0.79-0.67,1.6-0.93,2.44
				c-0.25,0.84-0.38,1.65-0.38,2.44c0,0.64,0.1,1.1,0.31,1.38C77.87,87.46,78.21,87.6,78.69,87.6z M85.93,79.68
				c0.55-0.42,1.07-0.92,1.56-1.51c0.48-0.59,0.91-1.19,1.29-1.81c0.38-0.62,0.68-1.19,0.89-1.72c0.21-0.53,0.32-0.94,0.32-1.22
				c0-0.12-0.03-0.18-0.09-0.18c-0.11,0-0.32,0.17-0.64,0.49c-0.32,0.33-0.68,0.78-1.08,1.37c-0.4,0.58-0.8,1.26-1.2,2.05
				C86.58,77.93,86.23,78.77,85.93,79.68z"/>
			<path class="st0" d="M96.64,88.39c-0.97,0-1.69-0.25-2.17-0.75c-0.48-0.5-0.72-1.12-0.72-1.85c0-0.67,0.18-1.38,0.53-2.13
				c0.36-0.75,0.83-1.45,1.43-2.1c0.59-0.66,1.25-1.19,1.96-1.6c0.71-0.41,1.42-0.62,2.11-0.62c0.36,0,0.7,0.09,1.01,0.27
				c0.31,0.18,0.46,0.54,0.46,1.1c0,0.57-0.18,1.1-0.53,1.6s-0.82,0.94-1.4,1.33c-0.58,0.39-1.21,0.71-1.9,0.95
				c-0.69,0.25-1.37,0.4-2.05,0.46c-0.03,0.15-0.06,0.29-0.07,0.43c-0.02,0.13-0.02,0.26-0.02,0.38c0,0.22,0.03,0.45,0.08,0.67
				c0.06,0.22,0.15,0.43,0.3,0.62s0.34,0.33,0.58,0.44c0.25,0.1,0.55,0.16,0.91,0.16c0.68,0,1.35-0.18,2.02-0.55
				s1.28-0.85,1.85-1.44c0.57-0.6,1.05-1.25,1.45-1.97l0.29,0.2c-0.43,0.89-0.97,1.67-1.63,2.33c-0.66,0.66-1.37,1.17-2.14,1.53
				C98.21,88.2,97.43,88.39,96.64,88.39z M95.48,84.63c0.43-0.13,0.91-0.33,1.45-0.59c0.54-0.26,1.06-0.57,1.56-0.93
				c0.5-0.36,0.91-0.75,1.23-1.19c0.32-0.43,0.49-0.89,0.49-1.37c0-0.16-0.03-0.29-0.1-0.38c-0.06-0.09-0.2-0.13-0.4-0.13
				c-0.38,0-0.78,0.14-1.21,0.41c-0.43,0.28-0.84,0.64-1.23,1.08c-0.4,0.45-0.75,0.94-1.07,1.48
				C95.87,83.55,95.64,84.09,95.48,84.63z"/>
			<path class="st0" d="M110.37,89.04c-0.82,0-1.44-0.25-1.84-0.76c-0.4-0.51-0.61-1.19-0.61-2.06c0-0.75,0.13-1.63,0.4-2.64
				c0.27-1.01,0.63-2.08,1.07-3.19c0.44-1.11,0.94-2.2,1.48-3.25c0.55-1.06,1.1-2.02,1.65-2.88c0.55-0.86,1.08-1.54,1.57-2.06
				c0.49-0.51,0.89-0.77,1.21-0.77c0.27,0,0.46,0.16,0.58,0.47c0.12,0.31,0.18,0.63,0.18,0.94c0,0.42-0.09,0.92-0.28,1.52
				c-0.19,0.6-0.46,1.23-0.81,1.91c-0.35,0.68-0.75,1.35-1.21,2c-0.46,0.66-0.95,1.26-1.48,1.8c-0.53,0.54-1.07,0.97-1.63,1.29
				c-0.1,0.16-0.23,0.5-0.42,1.02c-0.18,0.51-0.35,1.1-0.5,1.77c-0.15,0.66-0.23,1.31-0.23,1.94c0,0.61,0.1,1.12,0.3,1.51
				c0.2,0.39,0.53,0.59,1.01,0.59c0.46,0,0.93-0.18,1.42-0.53c0.49-0.35,0.89-0.8,1.19-1.35c-0.59-0.28-1.02-0.7-1.31-1.24
				c-0.28-0.54-0.43-1.09-0.43-1.64c0-0.72,0.2-1.29,0.59-1.72c0.4-0.43,0.86-0.65,1.4-0.65c0.46,0,0.82,0.18,1.09,0.53
				s0.4,0.86,0.4,1.53c0,0.49-0.07,1-0.21,1.52c-0.14,0.52-0.35,1.03-0.62,1.52c0.1,0.01,0.19,0.03,0.3,0.04
				c0.1,0.01,0.21,0.02,0.32,0.02c0.57,0,1.04-0.13,1.42-0.39s0.7-0.58,0.96-0.96c0.26-0.38,0.48-0.74,0.65-1.09l0.29,0.29
				c-0.44,1.03-0.97,1.71-1.58,2.05c-0.61,0.33-1.21,0.5-1.82,0.5c-0.13,0-0.25-0.01-0.38-0.02c-0.13-0.01-0.25-0.03-0.38-0.04
				c-0.43,0.69-0.95,1.27-1.58,1.76C111.94,88.79,111.21,89.04,110.37,89.04z M110.92,80.49c0.44-0.33,0.88-0.75,1.29-1.25
				c0.42-0.51,0.81-1.05,1.17-1.62c0.36-0.57,0.69-1.14,0.97-1.69c0.29-0.55,0.51-1.05,0.67-1.5c0.16-0.45,0.24-0.78,0.24-1.01
				c0-0.08-0.01-0.12-0.02-0.15s-0.04-0.03-0.07-0.03c-0.13,0-0.37,0.21-0.72,0.64c-0.36,0.43-0.75,0.99-1.19,1.7
				c-0.44,0.71-0.87,1.49-1.29,2.35C111.53,78.78,111.19,79.64,110.92,80.49z M113.67,85.86c0.17-0.34,0.31-0.71,0.4-1.08
				c0.09-0.38,0.14-0.77,0.14-1.17c0-0.52-0.08-0.93-0.23-1.23c-0.15-0.3-0.34-0.45-0.56-0.45c-0.24,0-0.45,0.15-0.63,0.46
				c-0.18,0.31-0.27,0.69-0.27,1.15c0,0.4,0.09,0.83,0.26,1.28C112.97,85.25,113.26,85.6,113.67,85.86z"/>
			<path class="st0" d="M119.16,88.12c-0.68,0-1.16-0.2-1.45-0.59c-0.29-0.4-0.43-0.88-0.43-1.44c0-0.46,0.08-0.94,0.24-1.43
				s0.37-0.95,0.63-1.39c0.26-0.43,0.55-0.78,0.88-1.05s0.65-0.4,0.99-0.4c0.08,0,0.16,0.01,0.25,0.03s0.17,0.05,0.25,0.08
				c-0.14,0.12-0.31,0.34-0.51,0.66c-0.2,0.32-0.38,0.69-0.56,1.1c-0.17,0.41-0.32,0.82-0.44,1.22s-0.18,0.75-0.18,1.03
				c0,0.45,0.08,0.77,0.24,0.97c0.16,0.2,0.36,0.3,0.62,0.3c0.33,0,0.73-0.17,1.19-0.5c0.46-0.33,0.91-0.76,1.35-1.29
				c-0.44-0.34-0.79-0.79-1.03-1.35c-0.25-0.56-0.37-1.13-0.37-1.71c0-0.49,0.09-0.95,0.27-1.39s0.45-0.78,0.8-1.04
				c0.35-0.26,0.77-0.39,1.26-0.39c0.65,0,1.08,0.17,1.31,0.49c0.22,0.33,0.33,0.74,0.33,1.23c0,0.58-0.15,1.23-0.45,1.94
				c-0.3,0.71-0.68,1.39-1.14,2.05c0.29,0.15,0.59,0.22,0.9,0.22c0.25,0,0.54-0.05,0.85-0.15s0.63-0.26,0.94-0.5
				c0.31-0.24,0.56-0.56,0.75-0.96l0.29,0.22c-0.32,0.7-0.76,1.2-1.34,1.49c-0.58,0.29-1.13,0.44-1.65,0.44
				c-0.21,0-0.4-0.02-0.59-0.06c-0.19-0.04-0.37-0.09-0.55-0.17c-0.54,0.67-1.13,1.23-1.77,1.68
				C120.38,87.89,119.76,88.12,119.16,88.12z M122.65,84.83c0.4-0.55,0.72-1.13,0.99-1.73c0.26-0.6,0.39-1.17,0.39-1.71
				c0-0.43-0.07-0.75-0.2-0.95c-0.13-0.2-0.3-0.3-0.51-0.3c-0.32,0-0.64,0.22-0.97,0.65c-0.33,0.43-0.5,0.98-0.5,1.63
				c0,0.43,0.07,0.87,0.2,1.31C122.18,84.16,122.38,84.53,122.65,84.83z"/>
			<path class="st0" d="M127.97,88.07c-0.54,0-0.97-0.23-1.29-0.68c-0.33-0.46-0.49-0.98-0.49-1.58c0-0.43,0.08-0.93,0.23-1.5
				c0.15-0.57,0.34-1.13,0.56-1.68c0.22-0.55,0.45-1.01,0.69-1.37c0.24-0.36,0.44-0.54,0.62-0.54c0.08,0,0.21,0.04,0.4,0.12
				c0.19,0.08,0.35,0.19,0.47,0.32c-0.17,0.25-0.39,0.64-0.64,1.16c-0.25,0.52-0.47,1.08-0.67,1.68c-0.19,0.6-0.28,1.15-0.28,1.66
				c0,0.12,0.02,0.3,0.05,0.55s0.11,0.47,0.24,0.66c0.13,0.19,0.32,0.29,0.57,0.29c0.3,0,0.61-0.15,0.93-0.44
				c0.32-0.29,0.64-0.67,0.96-1.13c0.33-0.46,0.64-0.96,0.94-1.5s0.58-1.05,0.84-1.54c0.26-0.49,0.48-0.9,0.65-1.23
				c0.1,0.02,0.23,0.04,0.42,0.09c0.18,0.04,0.35,0.1,0.5,0.18c0.15,0.08,0.23,0.18,0.23,0.31c0,0.06-0.08,0.26-0.24,0.59
				s-0.34,0.75-0.56,1.23c-0.21,0.49-0.4,0.97-0.56,1.47s-0.24,0.92-0.24,1.3c0,0.27,0.06,0.48,0.18,0.65
				c0.12,0.16,0.32,0.25,0.61,0.25c0.33,0,0.74-0.14,1.21-0.42s0.96-0.7,1.45-1.24c0.49-0.54,0.93-1.2,1.31-1.96l0.31,0.2
				c-0.33,0.8-0.77,1.52-1.31,2.14c-0.54,0.62-1.11,1.1-1.71,1.44c-0.6,0.34-1.19,0.51-1.76,0.51c-0.41,0-0.74-0.07-0.99-0.22
				c-0.25-0.15-0.42-0.35-0.52-0.6c-0.1-0.25-0.15-0.53-0.15-0.83c0-0.18,0.02-0.36,0.05-0.55c0.03-0.19,0.07-0.38,0.12-0.57
				c-0.29,0.49-0.59,0.95-0.93,1.38c-0.33,0.43-0.68,0.76-1.04,1.02C128.74,87.95,128.36,88.07,127.97,88.07z"/>
			<path class="st0" d="M144.26,87.85c-0.55,0-0.97-0.13-1.25-0.4c-0.28-0.27-0.42-0.61-0.42-1.03c0-0.31,0.06-0.64,0.18-0.98
				c0.12-0.34,0.23-0.7,0.34-1.06c0.11-0.37,0.17-0.72,0.17-1.06c0-0.42-0.09-0.7-0.27-0.86c-0.18-0.16-0.41-0.23-0.68-0.23
				c-0.49,0-0.99,0.19-1.5,0.57c-0.51,0.38-1,0.87-1.47,1.45c-0.47,0.59-0.92,1.2-1.33,1.82c-0.41,0.63-0.78,1.19-1.09,1.68
				c-0.25,0-0.5-0.04-0.72-0.12c-0.23-0.08-0.41-0.21-0.53-0.37c0-0.08,0.08-0.31,0.25-0.69c0.17-0.39,0.36-0.86,0.58-1.43
				c0.22-0.57,0.42-1.15,0.59-1.75c0.17-0.6,0.26-1.14,0.26-1.63c0.09-0.1,0.25-0.21,0.45-0.31c0.21-0.1,0.42-0.16,0.64-0.16
				c0.43,0,0.64,0.19,0.64,0.58c0,0.24-0.07,0.64-0.21,1.2s-0.32,1.14-0.55,1.76c0.43-0.61,0.91-1.22,1.44-1.82s1.1-1.11,1.7-1.51
				c0.6-0.4,1.2-0.6,1.8-0.6c0.62,0,1.06,0.21,1.34,0.63c0.28,0.42,0.42,0.88,0.42,1.39c0,0.46-0.08,0.89-0.24,1.29
				c-0.16,0.4-0.32,0.78-0.49,1.14s-0.25,0.73-0.25,1.11c0,0.31,0.07,0.53,0.2,0.66c0.13,0.13,0.3,0.19,0.51,0.19
				c0.4,0,0.79-0.18,1.19-0.53s0.78-0.79,1.15-1.33s0.7-1.08,0.99-1.63l0.26,0.29c-0.33,0.73-0.71,1.38-1.12,1.95
				c-0.41,0.57-0.86,1.01-1.35,1.34C145.41,87.68,144.86,87.85,144.26,87.85z"/>
			<path class="st0" d="M149.06,88.07c-0.27,0-0.54-0.06-0.82-0.19c-0.28-0.13-0.51-0.33-0.69-0.62c-0.18-0.28-0.27-0.64-0.27-1.07
				c0-0.49,0.13-1.04,0.38-1.66c0.25-0.61,0.59-1.22,1.02-1.82c0.43-0.6,0.92-1.16,1.47-1.68c0.55-0.51,1.13-0.92,1.73-1.23
				s1.2-0.46,1.78-0.46c0.33,0,0.59,0.06,0.77,0.17c0.18,0.11,0.27,0.29,0.27,0.53c0,0.06,0,0.11-0.01,0.16
				c-0.01,0.04-0.02,0.1-0.04,0.16c-0.08-0.12-0.19-0.21-0.34-0.26c-0.15-0.05-0.34-0.08-0.56-0.08c-0.51,0-1,0.15-1.48,0.44
				s-0.93,0.67-1.33,1.14c-0.4,0.47-0.76,0.97-1.06,1.51s-0.53,1.06-0.7,1.55c-0.17,0.5-0.25,0.92-0.25,1.26
				c0,0.33,0.08,0.59,0.24,0.78c0.16,0.19,0.36,0.29,0.62,0.29c0.43,0,0.95-0.25,1.56-0.76c0.61-0.51,1.23-1.22,1.86-2.15
				c0.63-0.92,1.2-2.01,1.71-3.24c0.35-0.87,0.71-1.75,1.08-2.64c0.37-0.9,0.75-1.76,1.13-2.58c0.38-0.83,0.75-1.57,1.1-2.21
				c0.36-0.65,0.7-1.16,1.02-1.54c0.32-0.38,0.61-0.57,0.87-0.57c0.13,0,0.24,0.05,0.33,0.15c0.1,0.1,0.14,0.22,0.14,0.37
				c0,0.24-0.13,0.65-0.39,1.22s-0.6,1.26-1.02,2.06s-0.86,1.67-1.32,2.61c-0.46,0.94-0.9,1.89-1.32,2.86
				c-0.42,0.97-0.76,1.91-1.02,2.81s-0.39,1.73-0.39,2.47c0,0.42,0.02,0.73,0.07,0.94c0.05,0.21,0.21,0.31,0.47,0.31
				c0.33,0,0.72-0.13,1.16-0.4c0.44-0.27,0.89-0.65,1.33-1.14c0.44-0.49,0.83-1.08,1.16-1.77l0.29,0.2
				c-0.3,0.76-0.71,1.44-1.23,2.05s-1.08,1.08-1.67,1.43c-0.59,0.35-1.16,0.53-1.7,0.53c-0.59,0-0.99-0.18-1.22-0.55
				c-0.23-0.37-0.34-0.74-0.34-1.13c0-0.25,0.04-0.59,0.12-1.01c0.08-0.42,0.19-0.88,0.33-1.39c-0.51,0.79-1.04,1.5-1.62,2.14
				c-0.57,0.63-1.13,1.13-1.67,1.49C150.07,87.89,149.55,88.07,149.06,88.07z"/>
			<path class="st0" d="M160.03,88.45c-0.49,0-0.91-0.15-1.25-0.46c-0.34-0.31-0.51-0.77-0.51-1.4c0-0.54,0.13-1.11,0.38-1.73
				s0.6-1.23,1.04-1.83c0.44-0.6,0.95-1.16,1.51-1.66c0.56-0.5,1.16-0.9,1.78-1.2c0.63-0.3,1.25-0.45,1.86-0.45
				c0.62,0,1.13,0.15,1.54,0.46c0.41,0.31,0.62,0.71,0.62,1.22c0,0.37-0.11,0.63-0.32,0.76c-0.21,0.13-0.5,0.2-0.84,0.2
				c0.03-0.12,0.06-0.25,0.08-0.39c0.02-0.14,0.04-0.27,0.04-0.39c0-0.34-0.09-0.64-0.26-0.88c-0.17-0.25-0.48-0.37-0.9-0.37
				c-0.44,0-0.9,0.15-1.35,0.44s-0.9,0.68-1.33,1.16c-0.43,0.49-0.81,1.01-1.14,1.58c-0.33,0.57-0.59,1.13-0.78,1.68
				c-0.19,0.55-0.29,1.04-0.29,1.48c0,0.58,0.21,0.87,0.64,0.87c0.36,0,0.76-0.16,1.19-0.48c0.43-0.32,0.87-0.73,1.32-1.23
				s0.88-1.02,1.29-1.56c0.41-0.54,0.78-1.03,1.09-1.48c0.06-0.09,0.1-0.13,0.12-0.13c0.09,0.01,0.22,0.04,0.37,0.09
				c0.15,0.04,0.28,0.1,0.39,0.18c0.11,0.07,0.17,0.17,0.17,0.29c0,0.13-0.07,0.32-0.21,0.55c-0.14,0.23-0.3,0.5-0.47,0.79
				c-0.17,0.3-0.33,0.6-0.47,0.91s-0.21,0.59-0.21,0.86c0,0.22,0.06,0.44,0.19,0.66c0.13,0.22,0.33,0.32,0.62,0.32
				c0.43,0,0.99-0.29,1.69-0.88c0.7-0.59,1.4-1.47,2.11-2.65l0.24,0.22c-0.33,0.8-0.76,1.51-1.28,2.13
				c-0.52,0.61-1.08,1.09-1.67,1.43c-0.59,0.34-1.18,0.51-1.75,0.51c-0.59,0-1.02-0.16-1.29-0.49s-0.42-0.69-0.42-1.07
				c0-0.09,0.01-0.19,0.02-0.3c0.02-0.11,0.03-0.23,0.05-0.35c-0.68,0.87-1.3,1.51-1.86,1.95
				C161.19,88.24,160.62,88.45,160.03,88.45z"/>
			<path class="st0" d="M173.35,87.98c-0.54,0-0.96-0.13-1.27-0.4s-0.46-0.62-0.46-1.05c0-0.45,0.11-0.92,0.33-1.41
				s0.44-0.98,0.65-1.47c0.21-0.48,0.32-0.92,0.32-1.31c0-0.48-0.15-0.83-0.44-1.06c-0.29-0.23-0.59-0.44-0.89-0.64
				c-0.36,0.88-0.75,1.72-1.14,2.51c-0.4,0.79-0.72,1.39-0.97,1.79l-0.21-0.38c0.22-0.39,0.51-0.95,0.87-1.7s0.71-1.6,1.06-2.55
				c-0.16-0.15-0.24-0.33-0.24-0.54c0-0.45,0.13-0.81,0.4-1.1c0.27-0.28,0.47-0.43,0.59-0.43c0.17,0,0.27,0.07,0.3,0.21
				c0.02,0.14,0.04,0.25,0.04,0.32c0,0.08-0.04,0.22-0.13,0.44c-0.09,0.22-0.13,0.35-0.13,0.39c0,0.21,0.12,0.4,0.37,0.57
				c0.25,0.17,0.53,0.37,0.84,0.58c0.32,0.22,0.6,0.48,0.84,0.78s0.37,0.7,0.37,1.17c0,0.45-0.1,0.9-0.3,1.36
				c-0.2,0.46-0.4,0.9-0.59,1.32s-0.3,0.78-0.3,1.1c0,0.27,0.07,0.45,0.21,0.54c0.14,0.09,0.31,0.13,0.5,0.13
				c0.38,0,0.77-0.11,1.17-0.34c0.4-0.22,0.8-0.51,1.18-0.85c0.38-0.34,0.72-0.71,1.02-1.09c0.3-0.38,0.52-0.73,0.67-1.06l0.31,0.22
				c-0.3,0.63-0.71,1.24-1.23,1.85c-0.52,0.6-1.1,1.1-1.75,1.49S174.03,87.98,173.35,87.98z"/>
			<path class="st0" d="M179.22,87.98c-0.62,0-1.08-0.18-1.38-0.55s-0.45-0.81-0.45-1.33c0-0.34,0.07-0.78,0.2-1.3
				c0.13-0.52,0.31-1.07,0.53-1.64c0.22-0.57,0.48-1.11,0.77-1.62c0.29-0.51,0.61-0.92,0.94-1.24c0.33-0.32,0.66-0.48,0.97-0.48
				c0.14,0,0.27,0.04,0.37,0.12c0.1,0.08,0.15,0.21,0.15,0.37c0,0.18-0.12,0.47-0.37,0.87c-0.25,0.4-0.54,0.87-0.87,1.39
				c-0.33,0.52-0.62,1.07-0.87,1.64s-0.37,1.12-0.37,1.64c0,0.54,0.1,0.9,0.29,1.07c0.19,0.18,0.48,0.27,0.88,0.27
				c0.54,0,1.11-0.25,1.72-0.76s1.25-1.39,1.94-2.66L183.9,84c-0.46,1.28-1.12,2.27-1.98,2.95
				C181.05,87.64,180.15,87.98,179.22,87.98z M182.07,77.74c-0.25,0-0.48-0.06-0.68-0.18c-0.2-0.12-0.3-0.31-0.3-0.56
				c0-0.31,0.19-0.58,0.58-0.82c0.39-0.23,0.77-0.35,1.15-0.35c0.24,0,0.43,0.05,0.57,0.16c0.14,0.1,0.21,0.28,0.21,0.54
				c0,0.28-0.16,0.56-0.49,0.82C182.8,77.61,182.45,77.74,182.07,77.74z"/>
			<path class="st0" d="M185.8,88.39c-0.97,0-1.69-0.25-2.17-0.75c-0.48-0.5-0.72-1.12-0.72-1.85c0-0.67,0.18-1.38,0.53-2.13
				s0.83-1.45,1.42-2.1c0.59-0.66,1.25-1.19,1.96-1.6c0.71-0.41,1.42-0.62,2.11-0.62c0.36,0,0.7,0.09,1.01,0.27s0.46,0.54,0.46,1.1
				c0,0.57-0.18,1.1-0.54,1.6c-0.36,0.5-0.82,0.94-1.4,1.33c-0.58,0.39-1.21,0.71-1.9,0.95s-1.37,0.4-2.05,0.46
				c-0.03,0.15-0.06,0.29-0.07,0.43c-0.02,0.13-0.02,0.26-0.02,0.38c0,0.22,0.03,0.45,0.08,0.67c0.06,0.22,0.15,0.43,0.3,0.62
				s0.34,0.33,0.58,0.44c0.25,0.1,0.55,0.16,0.91,0.16c0.68,0,1.35-0.18,2.02-0.55s1.28-0.85,1.85-1.44
				c0.57-0.6,1.05-1.25,1.45-1.97l0.29,0.2c-0.43,0.89-0.97,1.67-1.63,2.33c-0.66,0.66-1.37,1.17-2.14,1.53
				C187.37,88.2,186.59,88.39,185.8,88.39z M184.63,84.63c0.43-0.13,0.91-0.33,1.45-0.59s1.06-0.57,1.56-0.93
				c0.5-0.36,0.91-0.75,1.24-1.19c0.32-0.43,0.49-0.89,0.49-1.37c0-0.16-0.03-0.29-0.1-0.38c-0.06-0.09-0.2-0.13-0.4-0.13
				c-0.38,0-0.78,0.14-1.21,0.41c-0.43,0.28-0.84,0.64-1.23,1.08c-0.4,0.45-0.75,0.94-1.07,1.48
				C185.03,83.55,184.79,84.09,184.63,84.63z"/>
			<path class="st0" d="M193.63,88.54c-0.75,0-1.33-0.15-1.77-0.46c-0.44-0.31-0.74-0.68-0.93-1.13c-0.18-0.45-0.27-0.9-0.27-1.34
				s0.06-0.79,0.19-1.03c0.13-0.24,0.28-0.42,0.46-0.54c0.18-0.12,0.36-0.21,0.52-0.27c0.17-0.06,0.28-0.12,0.34-0.18
				c0.47-0.49,0.91-1.01,1.31-1.54c0.4-0.54,0.74-1.1,1.04-1.7v-0.27c0-0.55,0.1-0.94,0.3-1.17c0.2-0.23,0.41-0.35,0.63-0.35
				c0.13,0,0.22,0.03,0.29,0.09s0.09,0.13,0.09,0.2c0,0.08-0.02,0.19-0.07,0.36c-0.05,0.16-0.07,0.37-0.07,0.63
				c0,0.49,0.1,1.03,0.31,1.6c0.21,0.57,0.41,1.18,0.62,1.81c0.21,0.63,0.31,1.29,0.31,1.98c0,0.19-0.01,0.38-0.04,0.57
				c-0.02,0.19-0.06,0.36-0.11,0.53c0.55-0.09,1.08-0.32,1.57-0.7c0.49-0.38,0.97-0.99,1.42-1.82l0.21,0.22
				c-0.3,0.82-0.75,1.44-1.35,1.87c-0.6,0.42-1.26,0.69-1.97,0.79c-0.25,0.64-0.65,1.11-1.2,1.41
				C194.93,88.39,194.31,88.54,193.63,88.54z M193.68,87.76c0.19,0,0.44-0.06,0.76-0.18c0.32-0.12,0.56-0.42,0.74-0.92
				c-0.67-0.12-1.25-0.37-1.77-0.74c-0.52-0.37-0.9-0.75-1.15-1.12c-0.35,0.02-0.52,0.28-0.52,0.78c0,0.54,0.17,1.03,0.51,1.49
				C192.58,87.53,193.06,87.76,193.68,87.76z M195.3,86.3c0.03-0.15,0.06-0.31,0.07-0.47s0.02-0.36,0.02-0.58
				c0-0.7-0.09-1.4-0.27-2.09c-0.18-0.69-0.34-1.35-0.46-1.96c-0.36,0.57-0.75,1.11-1.15,1.62c-0.4,0.51-0.79,0.94-1.15,1.29
				c0.24,0.48,0.61,0.92,1.1,1.34S194.57,86.16,195.3,86.3z"/>
		</g>
	</g>
</g>
</svg>
