<?xml version="1.0" encoding="iso-8859-1"?>
<!-- Generator: Adobe Illustrator 19.0.0, SVG Export Plug-In . SVG Version: 6.00 Build 0)  -->
<svg version="1.1" id="Layer_1" xmlns="http://www.w3.org/2000/svg" xmlns:xlink="http://www.w3.org/1999/xlink" x="0px" y="0px"
	 viewBox="0 0 512.001 512.001" style="enable-background:new 0 0 512.001 512.001;" xml:space="preserve">
<path style="fill:#FCD577;" d="M242.261,181.976v17.668c-13.457-5.256-28.102-8.136-43.428-8.136
	c-15.316,0-29.971,2.88-43.428,8.136v-17.668c0-7.949,6.454-14.403,14.403-14.403h12.182h38.009h7.861
	C235.807,167.573,242.261,174.026,242.261,181.976z"/>
<g>
	<path style="fill:#415E72;" d="M266.45,303.907h-67.617V236.29C236.17,236.29,266.45,266.558,266.45,303.907z"/>
	<path style="fill:#415E72;" d="M198.832,236.29v67.617h-67.628C131.204,266.558,161.484,236.29,198.832,236.29z"/>
</g>
<g>
	<path style="fill:#FCD577;" d="M198.832,303.907h67.617c0,37.349-30.279,67.617-67.617,67.617
		c-37.349,0-67.628-30.268-67.628-67.617H198.832z"/>
	<polygon style="fill:#FCD577;" points="469.244,451.882 469.244,503.195 354.67,503.195 266.592,503.195 266.592,503.183 
		266.592,451.882 318.388,451.882 348.371,451.882 386.378,451.882 	"/>
</g>
<polygon style="fill:#CFDCE5;" points="386.378,133.259 386.378,451.882 348.371,451.882 348.371,369.61 348.371,133.259 "/>
<g>
	<path style="fill:#415E72;" d="M386.378,110.346v22.912h-38.009v-22.912c0-35.403-28.794-64.197-64.186-64.197
		s-64.186,28.794-64.186,64.197v57.227h-38.009v-57.227c0-56.347,45.848-102.195,102.195-102.195S386.378,53.998,386.378,110.346z"
		/>
	<rect x="318.387" y="369.609" style="fill:#415E72;" width="29.982" height="82.276"/>
	<path style="fill:#415E72;" d="M266.592,503.183v0.011H105.675h-62.69V369.61h36.283v107.164c0,14.59,11.83,26.409,26.409,26.409
		L266.592,503.183L266.592,503.183z"/>
</g>
<path style="fill:#CFDCE5;" d="M318.388,369.61v82.273h-51.796v51.301H105.675c-14.579,0-26.409-11.819-26.409-26.409V369.61
	v-58.546c0-50.718,31.576-94.048,76.137-111.42c13.457-5.256,28.114-8.136,43.428-8.136c15.327,0,29.971,2.88,43.428,8.136
	c44.55,17.372,76.126,60.712,76.126,111.42v58.546H318.388z M198.832,371.523c37.337,0,67.617-30.268,67.617-67.617
	s-30.279-67.617-67.617-67.617c-37.349,0-67.628,30.268-67.628,67.617S161.484,371.523,198.832,371.523z"/>
<circle style="fill:#FF6F52;" cx="136.177" cy="447.114" r="23.91"/>
<path d="M238.991,495.043h-21.771c-0.073-0.002-0.145-0.011-0.219-0.011H105.56c-9.887,0-17.93-8.043-17.93-17.93v-165.71
	c0-25.029,8.124-48.655,23.492-68.324c2.883-3.69,2.229-9.018-1.461-11.901c-3.689-2.882-9.018-2.23-11.902,1.461
	c-17.72,22.678-27.087,49.914-27.087,78.764v50.068H42.869c-4.684,0-8.479,3.796-8.479,8.479v133.585
	c0,4.682,3.795,8.479,8.479,8.479H238.99c4.684,0,8.479-3.796,8.479-8.479C247.469,498.84,243.674,495.043,238.991,495.043z
	 M51.347,378.416h19.325v98.686c0,6.557,1.821,12.695,4.98,17.942H51.347C51.347,495.044,51.347,378.416,51.347,378.416z"/>
<path d="M439.918,443.732h-45.175v-38.347c0-4.682-3.795-8.479-8.479-8.479s-8.479,3.796-8.479,8.479v38.347h-21.052V142.065h21.052
	v235.833c0,4.682,3.795,8.479,8.479,8.479s8.479-3.796,8.479-8.479V110.674C394.743,49.648,345.094,0,284.069,0
	S173.397,49.647,173.397,110.674v48.748h-3.703c-12.616,0-22.881,10.265-22.881,22.882v12.036
	c-8.716,3.868-16.997,8.698-24.667,14.428c-3.751,2.802-4.521,8.116-1.719,11.868c2.802,3.751,8.118,4.521,11.867,1.718
	c8.018-5.989,16.792-10.862,26.082-14.484c12.835-5.014,26.41-7.555,40.344-7.555c13.934,0,27.508,2.542,40.348,7.557
	c20.604,8.033,38.201,21.919,50.892,40.152c12.977,18.648,19.838,40.56,19.838,63.368v132.34h-14.105
	c-20.783,0-37.691,16.909-37.691,37.691v22.099c0,4.682,3.795,8.479,8.479,8.479h202.653c4.684,0,8.479-3.796,8.479-8.479v-22.099
	C477.61,460.64,460.701,443.732,439.918,443.732z M190.353,110.674c0-51.675,42.04-93.716,93.715-93.716
	c51.676,0,93.716,42.041,93.716,93.716v14.435h-21.052v-14.435c0-40.074-32.597-72.676-72.665-72.676s-72.665,32.602-72.665,72.676
	v48.748h-21.051V110.674z M163.769,188.188v-5.885c0-3.267,2.658-5.925,5.924-5.925h58.052c3.267,0,5.924,2.658,5.924,5.925v5.885
	c-11.307-3.207-23.016-4.831-34.95-4.831C186.784,183.357,175.074,184.981,163.769,188.188z M303.875,238.337
	c-13.498-19.394-31.829-34.508-53.25-44.001v-12.033c0-12.408-9.935-22.519-22.264-22.85v-48.779
	c0-30.724,24.99-55.719,55.708-55.719s55.708,24.995,55.708,55.719v250.786h-13.024v-50.068
	C326.752,285.104,318.841,259.842,303.875,238.337z M326.752,378.416h13.024v65.315h-13.024V378.416z M460.653,495.043H274.956
	v-13.62c0-11.433,9.302-20.734,20.734-20.734h144.227c11.432,0,20.735,9.302,20.735,20.734V495.043z"/>
<path d="M198.718,228.138c-41.965,0-76.106,34.136-76.106,76.096s34.14,76.096,76.106,76.096c41.959,0,76.096-34.136,76.096-76.096
	S240.677,228.138,198.718,228.138z M257.24,295.755h-50.043v-50.043C233.032,249.438,253.512,269.92,257.24,295.755z
	 M190.24,245.712v50.043h-50.053C143.913,269.919,164.399,249.438,190.24,245.712z M198.718,363.372
	c-29.735,0-54.405-22.054-58.531-50.66H257.24C253.113,341.318,228.447,363.372,198.718,363.372z"/>
<path d="M136.063,479.835c17.86,0,32.39-14.531,32.39-32.39s-14.531-32.39-32.39-32.39s-32.39,14.531-32.39,32.39
	S118.202,479.835,136.063,479.835z M136.063,432.01c8.51,0,15.433,6.924,15.433,15.433c0,8.509-6.923,15.433-15.433,15.433
	c-8.51,0-15.433-6.924-15.433-15.433C120.63,438.934,127.553,432.01,136.063,432.01z"/>
<g>
</g>
<g>
</g>
<g>
</g>
<g>
</g>
<g>
</g>
<g>
</g>
<g>
</g>
<g>
</g>
<g>
</g>
<g>
</g>
<g>
</g>
<g>
</g>
<g>
</g>
<g>
</g>
<g>
</g>
</svg>
