<?xml version="1.0" encoding="iso-8859-1"?>
<!-- Generator: Adobe Illustrator 19.0.0, SVG Export Plug-In . SVG Version: 6.00 Build 0)  -->
<svg version="1.1" id="Layer_1" xmlns="http://www.w3.org/2000/svg" xmlns:xlink="http://www.w3.org/1999/xlink" x="0px" y="0px"
	 viewBox="0 0 512.002 512.002" style="enable-background:new 0 0 512.002 512.002;" xml:space="preserve">
<path style="fill:#51C4BC;" d="M167.434,456.888c-23.304,0-43.309-13.477-47.581-32.066c-25.643-111.583-25.643-226.056,0-337.641
	c4.272-18.59,24.278-32.066,47.581-32.066h64.278c11.186,0,20.758-8.025,22.735-19.035c0.028-0.158,0.056-0.315,0.086-0.473
	c2.549-14.16-8.348-27.165-22.735-27.165H108.349c-23.304,0-43.309,16.608-47.581,39.516c-25.643,137.508-25.643,278.577,0,416.085
	c4.272,22.909,24.277,39.516,47.581,39.516h123.448c14.387,0,25.284-13.005,22.735-27.165c-0.028-0.158-0.056-0.315-0.086-0.473
	c-1.975-11.011-11.548-19.035-22.735-19.035h-64.278V456.888z"/>
<path style="fill:#E8BB51;" d="M470.483,254.87H315.173v229.625c0,10.529,8.536,19.065,19.063,19.065h117.181
	c10.529,0,19.064-8.536,19.064-19.065V254.87H470.483z"/>
<path style="fill:#CEA554;" d="M357.377,254.87h-42.204v229.625c0,10.529,8.536,19.065,19.063,19.065h23.14L357.377,254.87
	L357.377,254.87z"/>
<rect x="420.044" y="254.867" style="fill:#F7CE76;" width="21.102" height="248.688"/>
<rect x="333.73" y="155.453" style="fill:#F0E9DD;" width="118.199" height="99.414"/>
<rect x="333.73" y="155.453" style="fill:#CEC4BC;" width="35.464" height="99.414"/>
<polygon style="fill:#E77763;" points="437.688,46.258 437.688,155.453 347.976,155.453 347.976,8.441 379.32,21.654 "/>
<polygon style="fill:#D1594A;" points="379.32,21.654 379.32,155.453 347.976,155.453 347.976,8.441 "/>
<path d="M167.434,63.556h64.278c15.286,0,28.342-10.928,31.04-25.972l0.086-0.482c1.659-9.209-0.833-18.609-6.835-25.789
	C249.993,4.124,241.17,0,231.797,0H108.349C80.986,0,57.485,19.519,52.47,46.411c-2.032,10.891-3.929,21.964-5.641,32.908
	c-0.72,4.605,2.43,8.924,7.035,9.644c4.613,0.719,8.924-2.431,9.644-7.035c1.686-10.783,3.555-21.69,5.558-32.422
	c3.525-18.904,20.047-32.623,39.283-32.623h123.448c4.358,0,8.46,1.917,11.253,5.258c2.787,3.333,3.944,7.695,3.166,12.017
	l-0.077,0.431c-1.256,7.002-7.324,12.084-14.425,12.084h-64.278c-27.195,0-50.666,16.241-55.808,38.618
	c-26.033,113.275-26.033,228.145,0,341.421c5.142,22.376,28.613,38.617,55.808,38.617h64.278c7.103,0,13.169,5.083,14.428,12.099
	l0.083,0.465c0.77,4.273-0.388,8.636-3.174,11.968c-2.792,3.342-6.895,5.258-11.253,5.258h-79.859c-4.663,0-8.441,3.779-8.441,8.441
	s3.778,8.441,8.441,8.441h79.859c9.373,0,18.196-4.124,24.206-11.312c6.002-7.179,8.494-16.58,6.834-25.797l-0.082-0.459
	c-2.7-15.057-15.756-25.986-31.042-25.986h-64.278c-16.722,0-31.317-7.972-37.21-19.635h116.097c4.663,0,8.441-3.779,8.441-8.441
	c0-4.662-3.778-8.441-8.441-8.441H125.64c-1.403-6.546-2.719-13.096-3.945-19.651H242.64c4.663,0,8.441-3.779,8.441-8.441
	s-3.778-8.441-8.441-8.441H118.751c-1.07-6.542-2.053-13.089-2.947-19.64h124.203c4.663,0,8.441-3.779,8.441-8.441
	c0-4.662-3.778-8.441-8.441-8.441H113.682c-0.742-6.544-1.397-13.091-1.962-19.64h126.588c4.663,0,8.441-3.779,8.441-8.441
	s-3.778-8.441-8.441-8.441H110.472c-0.414-6.549-0.741-13.1-0.979-19.651h127.983c4.663,0,8.441-3.779,8.441-8.441
	s-3.778-8.441-8.441-8.441H109.058c-0.088-6.547-0.088-13.094,0-19.64h128.417c4.663,0,8.441-3.779,8.441-8.441
	c0-4.662-3.778-8.441-8.441-8.441H109.494c0.239-6.548,0.564-13.094,0.978-19.64h127.836c4.663,0,8.441-3.779,8.441-8.441
	c0-4.662-3.778-8.441-8.441-8.441H111.72c0.565-6.549,1.22-13.096,1.962-19.64h126.326c4.663,0,8.441-3.779,8.441-8.441
	c0-4.662-3.778-8.441-8.441-8.441H115.803c0.895-6.554,1.877-13.104,2.949-19.651h123.889c4.663,0,8.441-3.779,8.441-8.441
	c0-4.662-3.778-8.441-8.441-8.441H121.697c1.226-6.551,2.54-13.098,3.943-19.64h120.683c4.663,0,8.441-3.779,8.441-8.441
	s-3.778-8.441-8.441-8.441h-116.1C136.115,71.53,150.71,63.556,167.434,63.556z"/>
<path d="M123.801,495.118h-15.452c-19.238,0-35.758-13.72-39.283-32.622C47.732,348.09,44.245,231.529,58.704,116.051
	c0.58-4.626-2.7-8.845-7.327-9.425c-4.619-0.577-8.845,2.7-9.424,7.327C27.277,231.161,30.815,349.469,52.47,465.591
	C57.485,492.483,80.986,512,108.349,512h15.452c4.663,0,8.441-3.779,8.441-8.441C132.242,498.898,128.464,495.118,123.801,495.118z"
	/>
<path d="M470.483,303.419c4.663,0,8.441-3.779,8.441-8.441v-40.109c0-4.662-3.778-8.441-8.441-8.441h-10.115v-90.974
	c0-4.662-3.778-8.441-8.441-8.441h-5.8V46.259c0-3.396-2.034-6.459-5.163-7.778L351.25,0.663c-2.608-1.1-5.59-0.819-7.947,0.745
	c-2.357,1.564-3.774,4.205-3.774,7.033v37.805c0,4.662,3.778,8.441,8.441,8.441c4.663,0,8.441-3.779,8.441-8.441V21.161
	l72.833,30.701v95.151h-72.833V74.384c0-4.662-3.778-8.441-8.441-8.441c-4.663,0-8.441,3.779-8.441,8.441v72.63h-5.8
	c-4.663,0-8.441,3.779-8.441,8.441v90.974h-10.115c-4.663,0-8.441,3.779-8.441,8.441v229.625c0,15.167,12.339,27.505,27.505,27.505
	h117.181c15.167,0,27.505-12.339,27.505-27.505V323.117c0-4.662-3.778-8.441-8.441-8.441s-8.441,3.779-8.441,8.441v161.379
	c0,5.858-4.765,10.622-10.622,10.622h-117.18c-5.857,0-10.622-4.765-10.622-10.622V263.312h10.115h118.198h10.115v31.668
	C462.041,299.64,465.821,303.419,470.483,303.419z M342.17,246.429v-82.533h5.8h89.715h5.8v82.533H342.17z"/>
<g>
</g>
<g>
</g>
<g>
</g>
<g>
</g>
<g>
</g>
<g>
</g>
<g>
</g>
<g>
</g>
<g>
</g>
<g>
</g>
<g>
</g>
<g>
</g>
<g>
</g>
<g>
</g>
<g>
</g>
</svg>
