<?xml version="1.0" encoding="iso-8859-1"?>
<!-- Generator: Adobe Illustrator 19.0.0, SVG Export Plug-In . SVG Version: 6.00 Build 0)  -->
<svg version="1.1" id="Layer_1" xmlns="http://www.w3.org/2000/svg" xmlns:xlink="http://www.w3.org/1999/xlink" x="0px" y="0px"
	 viewBox="0 0 511.999 511.999" style="enable-background:new 0 0 511.999 511.999;" xml:space="preserve">
<path style="fill:#FFCEB3;" d="M175.113,92.753v42.426c0,29.489-23.991,53.48-53.479,53.48s-53.478-23.991-53.478-53.48V92.753
	H175.113z"/>
<path style="fill:#6D529F;" d="M30.618,395.003l110.424,10.549l1.156-164.243c-0.396-24.676-20.512-44.472-45.192-44.472H30.618
	V395.003z"/>
<rect x="30.628" y="438.33" style="fill:#FF738D;" width="457.418" height="61.893"/>
<g>
	<path style="fill:#FFCEB3;" d="M348.26,438.333H30.633v-97.445h274.645c23.738,0,42.982,19.244,42.982,42.982V438.333z"/>
	<path style="fill:#FFCEB3;" d="M439.117,406.474l-36.458,22.382c-25.34,15.557-58.613,7.598-74.17-17.741
		c-15.557-25.339-7.598-58.612,17.743-74.17l36.458-22.382L439.117,406.474z"/>
</g>
<path d="M76.066,403.597c-0.777,0-1.544-0.071-2.308-0.224c-0.755-0.153-1.497-0.377-2.202-0.671
	c-0.708-0.294-1.391-0.659-2.037-1.083c-0.636-0.436-1.248-0.93-1.79-1.472c-0.542-0.542-1.036-1.142-1.46-1.79
	c-0.424-0.636-0.789-1.319-1.083-2.025c-0.294-0.718-0.518-1.46-0.671-2.202c-0.153-0.765-0.236-1.543-0.236-2.308
	c0-0.765,0.082-1.543,0.236-2.296c0.153-0.754,0.377-1.496,0.671-2.202c0.294-0.718,0.659-1.401,1.083-2.037
	c0.424-0.648,0.919-1.248,1.46-1.79c0.542-0.542,1.153-1.036,1.79-1.46c0.648-0.424,1.331-0.789,2.037-1.083
	c0.707-0.294,1.447-0.518,2.202-0.671c1.519-0.306,3.084-0.306,4.603,0c0.755,0.153,1.497,0.377,2.202,0.671
	c0.708,0.294,1.391,0.659,2.037,1.083c0.636,0.424,1.248,0.919,1.79,1.46c0.542,0.542,1.036,1.142,1.46,1.79
	c0.424,0.636,0.789,1.319,1.083,2.037c0.294,0.707,0.518,1.448,0.671,2.202c0.153,0.754,0.223,1.531,0.223,2.296
	c0,0.765-0.071,1.543-0.223,2.308c-0.153,0.742-0.377,1.484-0.671,2.202c-0.294,0.707-0.659,1.39-1.083,2.025
	c-0.424,0.648-0.919,1.248-1.46,1.79c-0.542,0.542-1.153,1.036-1.79,1.472c-0.648,0.424-1.331,0.789-2.037,1.083
	c-0.707,0.294-1.447,0.518-2.202,0.671C77.597,403.526,76.83,403.597,76.066,403.597z"/>
<path style="fill:#F5CDB3;" d="M420.637,473.963l-98.095,8.421c-12.499,0.394-23.208-3.879-29.976-11.961l-59.896-68.73
	c-8.02-11.055-6.118-26.46,4.541-35.385l0,0c12.561-10.41,27.541-4.708,34.053,3.068l60.659,69.642l86.322-3.376
	c8.893-0.347,16.859,5.459,19.249,14.032l0,0C440.723,461.262,432.624,472.934,420.637,473.963z"/>
<path style="fill:#A67CAB;" d="M357.893,355.942c9.114-5.596,36.458-22.382,36.458-22.382l44.657,72.739
	c37.247-26.331,54.017-68.08,29.819-107.496c-26.823-43.689-73.274-44.446-114.324-19.244l-94.843,61.331l60.874,81.358
	C325.372,393.235,318.269,380.268,357.893,355.942z"/>
<path style="fill:#FF9732;" d="M102.284,135.18c0-10.606,0-42.426,0-42.426h73.769c-2.927-45.142-30.655-80.978-76.524-80.978
	c-50.842,0-75.584,38.865-75.584,86.637v134.322h107.298C120.941,222.98,102.284,201.051,102.284,135.18z"/>
<g>
	<path style="fill:#E3A9ED;" d="M238.082,338.983h-25.294c-15.886,0-28.764-12.878-28.764-28.764l0,0
		c0-15.885,12.878-28.763,28.764-28.763h25.294c15.886,0,28.764,12.878,28.764,28.763l0,0
		C266.845,326.105,253.967,338.983,238.082,338.983z"/>
	<path style="fill:#E3A9ED;" d="M143.876,338.983h-25.294c-15.886,0-28.764-12.878-28.764-28.764l0,0
		c0-15.885,12.878-28.763,28.764-28.763h25.294c15.886,0,28.764,12.878,28.764,28.763l0,0
		C172.639,326.105,159.761,338.983,143.876,338.983z"/>
</g>
<path d="M230.536,227.026c-6.503,0-11.776-5.272-11.776-11.776c0-10.12,4.311-15.705,7.163-19.403
	c1.912-2.478,2.257-2.925,2.257-5.014c0-2.089-0.345-2.535-2.257-5.015c-2.853-3.696-7.163-9.283-7.163-19.403
	c0-10.119,4.311-15.704,7.163-19.402c1.912-2.478,2.257-2.924,2.257-5.012c0-6.504,5.273-11.776,11.776-11.776
	c6.503,0,11.776,5.272,11.776,11.776c0,10.119-4.311,15.705-7.164,19.402c-1.911,2.478-2.256,2.924-2.256,5.012
	c0,2.089,0.345,2.535,2.257,5.015c2.853,3.696,7.163,9.283,7.163,19.403c0,10.12-4.31,15.705-7.163,19.402
	c-1.912,2.479-2.257,2.925-2.257,5.015C242.312,221.753,237.04,227.026,230.536,227.026z"/>
<path d="M278.465,248.406c-6.503,0-11.776-5.272-11.776-11.776c0-10.119,4.31-15.705,7.163-19.402
	c1.912-2.479,2.257-2.925,2.257-5.015c0-2.089-0.345-2.535-2.257-5.014c-2.852-3.698-7.163-9.283-7.163-19.403
	c0-10.119,4.311-15.705,7.163-19.402c1.912-2.478,2.257-2.925,2.257-5.013c0-6.504,5.273-11.776,11.776-11.776
	c6.503,0,11.776,5.272,11.776,11.776c0,10.119-4.311,15.705-7.163,19.402c-1.912,2.478-2.257,2.925-2.257,5.013
	c0,2.089,0.345,2.535,2.257,5.015c2.853,3.696,7.163,9.283,7.163,19.402c0,10.12-4.311,15.705-7.163,19.403
	c-1.912,2.478-2.257,2.925-2.257,5.014C290.24,243.134,284.967,248.406,278.465,248.406z"/>
<path d="M488.053,426.556h-56.38c-0.543-0.243-1.093-0.47-1.651-0.682l15.254-9.365c0.894-0.549,1.693-1.218,2.4-1.968
	c20.172-14.762,34.174-33.238,40.524-53.576c7.19-23.036,3.961-46.661-9.338-68.325c-27.966-45.552-79.2-54.627-130.521-23.118
	c-0.079,0.048-0.157,0.098-0.233,0.147l-69.749,45.104c0.168-1.496,0.263-3.012,0.263-4.553c0-22.354-18.185-40.539-40.54-40.539
	h-25.294c-14.532,0-27.297,7.691-34.456,19.211c-5.53-8.901-14.408-15.508-24.863-18.055l0.504-29.444c0-0.091,0-0.181-0.001-0.271
	c-0.267-16.68-7.843-31.669-19.611-41.942c29.909-5.937,52.529-32.373,52.529-64V97.323c0.704-1.669,1.035-3.488,0.915-5.332
	C184.236,36.969,148.762,0,99.529,0C46.46,0,12.17,38.629,12.17,98.412v134.322c0,4.673,2.728,8.696,6.672,10.599l0.015,256.89
	c0,6.504,5.273,11.776,11.776,11.776h457.42c6.503,0,11.776-5.272,11.776-11.776v-61.892
	C499.829,431.828,494.557,426.556,488.053,426.556z M335.351,398.637c2.065-11.531,7.128-19.415,28.702-32.66l26.422-16.222
	l5.138,8.368l27.306,44.477l-26.422,16.221c-19.804,12.159-45.812,5.937-57.971-13.867
	C337.269,402.908,336.22,400.793,335.351,398.637z M360.778,289.521c15.255-9.337,66.807-35.389,98.012,15.44
	c20.211,32.919,5.983,63.507-16.7,83.851l-37.705-61.415c-1.634-2.661-4.258-4.564-7.296-5.292c-3.038-0.727-6.24-0.218-8.901,1.418
	l-36.457,22.382c0,0,0,0-0.001,0c-27.685,16.997-35.743,30.119-39.07,46.163l-36.021-48.141L360.778,289.521z M262.234,376.935
	c0.049,0.059,0.099,0.117,0.148,0.174l60.659,69.642c2.343,2.691,5.823,4.182,9.341,4.032l86.322-3.377
	c3.463-0.112,6.517,2.097,7.445,5.427c0.815,2.925-0.31,5.159-1.053,6.229c-0.744,1.072-2.441,2.906-5.467,3.165l-97.758,8.393
	c-8.703,0.19-15.909-2.541-20.279-7.76c-0.049-0.059-0.1-0.118-0.151-0.177l-59.499-68.277c-4.145-6.094-2.97-14.219,2.78-19.034
	C252.667,368.791,260.556,374.931,262.234,376.935z M212.786,293.232h25.294c9.368,0,16.989,7.621,16.989,16.988
	c0,9.366-7.621,16.988-16.989,16.988h-25.294c-9.368,0-16.989-7.621-16.989-16.988C195.798,300.853,203.419,293.232,212.786,293.232
	z M236.695,352.663c-2.416,1.215-4.779,2.738-7.044,4.615c-7.164,6-11.594,14.151-13.079,22.767H112.694
	c-6.503,0-11.776,5.272-11.776,11.776c0,6.504,5.273,11.776,11.776,11.776h106.852c0.177,0,0.349-0.019,0.523-0.026
	c0.88,1.733,1.897,3.419,3.07,5.035c0.205,0.284,0.423,0.557,0.654,0.821l14.927,17.128H42.409v-73.893h194.286V352.663z
	 M82.728,329.112H42.393V244.51h87.972l-0.43,25.171H118.58c-22.354,0-40.54,18.185-40.54,40.539
	C78.04,317.039,79.74,323.466,82.728,329.112z M143.876,293.232c9.368,0,16.989,7.621,16.989,16.988
	c0,9.366-7.621,16.988-16.989,16.988h-25.294c-9.368,0-16.989-7.621-16.989-16.988c0-9.366,7.621-16.988,16.989-16.988H143.876z
	 M163.338,135.179c0,22.996-18.708,41.704-41.703,41.704c-1.464,0-2.91-0.079-4.336-0.227c-1.978-11.108-3.241-24.73-3.241-41.477
	v-30.65h49.279V135.179z M35.721,98.412c0-17.561,4.601-74.861,63.808-74.861c38.785,0,57.6,28.679,63.162,57.426h-60.409
	c-6.503,0-11.776,5.272-11.776,11.776v42.426c0,43.244,7.668,69.216,16.864,85.779h-71.65V98.412z M42.409,450.108h216.834
	l24.374,27.969c3.609,4.286,7.971,7.754,12.911,10.371H42.409V450.108z M476.278,488.448h-86.701l32.069-2.753
	c9.216-0.791,17.527-5.604,22.8-13.204c4.569-6.584,6.375-14.571,5.163-22.383h26.67V488.448z"/>
<g>
</g>
<g>
</g>
<g>
</g>
<g>
</g>
<g>
</g>
<g>
</g>
<g>
</g>
<g>
</g>
<g>
</g>
<g>
</g>
<g>
</g>
<g>
</g>
<g>
</g>
<g>
</g>
<g>
</g>
</svg>
