<?xml version="1.0" encoding="iso-8859-1"?>
<!-- Generator: Adobe Illustrator 19.0.0, SVG Export Plug-In . SVG Version: 6.00 Build 0)  -->
<svg version="1.1" id="Layer_1" xmlns="http://www.w3.org/2000/svg" xmlns:xlink="http://www.w3.org/1999/xlink" x="0px" y="0px"
	 viewBox="0 0 512 512" style="enable-background:new 0 0 512 512;" xml:space="preserve">
<g>
	<polygon style="fill:#7E8488;" points="295.385,270.441 295.385,480.492 253.374,480.492 211.364,480.492 211.364,270.441 
		253.374,270.441 	"/>
	<rect x="421.415" y="39.385" style="fill:#7E8488;" width="42.01" height="84.021"/>
</g>
<path style="fill:#FFD311;" d="M421.415,123.405v21.005c0,5.776-4.726,10.503-10.503,10.503H22.318
	c-5.776,0-10.503-4.726-10.503-10.503V18.379c0-5.776,4.726-10.503,10.503-10.503h388.595c5.776,0,10.503,4.726,10.503,10.503
	v21.005V123.405z"/>
<path style="fill:#FABB1B;" d="M421.415,39.385V18.379c0-5.776-4.726-10.503-10.503-10.503H22.318
	c-5.776,0-10.503,4.726-10.503,10.503v68.267h409.6V39.385z"/>
<rect x="211.364" y="270.441" style="fill:#6E7377;" width="42.01" height="210.051"/>
<path d="M494.933,68.267h-23.631V31.508h-42.01V18.379C429.292,8.246,421.047,0,410.913,0H22.318C12.184,0,3.938,8.246,3.938,18.379
	V144.41c0,10.134,8.246,18.379,18.379,18.379h388.595c10.134,0,18.379-8.246,18.379-18.379v-13.128h42.01V84.021h21.005v105.026
	H258.626c-6.365,0-13.128,4.601-13.128,13.128v60.39h-42.01v225.805h42.01V512h15.754v-23.631h42.01V262.564h-42.01V204.8h233.682
	c8.527,0,13.128-6.764,13.128-13.128V81.395C508.062,72.868,501.298,68.267,494.933,68.267z M413.538,144.41
	c0,1.423-1.203,2.626-2.626,2.626H22.318c-1.423,0-2.626-1.203-2.626-2.626V18.379c0-1.423,1.203-2.626,2.626-2.626h388.595
	c1.423,0,2.626,1.203,2.626,2.626V144.41z M455.549,115.528h-26.256V47.262h26.256V115.528z M287.508,472.615h-68.267V278.318
	h68.267V472.615z"/>
<g>
	<rect x="232.369" y="304.574" style="fill:#FFFFFF;" width="42.01" height="15.754"/>
	<rect x="232.369" y="346.585" style="fill:#FFFFFF;" width="42.01" height="15.754"/>
	<rect x="232.369" y="388.595" style="fill:#FFFFFF;" width="42.01" height="15.754"/>
	<rect x="232.369" y="430.605" style="fill:#FFFFFF;" width="42.01" height="15.754"/>
	<rect x="38.072" y="78.769" style="fill:#FFFFFF;" width="246.81" height="15.754"/>
	<rect x="305.887" y="78.769" style="fill:#FFFFFF;" width="63.015" height="15.754"/>
</g>
<g>
</g>
<g>
</g>
<g>
</g>
<g>
</g>
<g>
</g>
<g>
</g>
<g>
</g>
<g>
</g>
<g>
</g>
<g>
</g>
<g>
</g>
<g>
</g>
<g>
</g>
<g>
</g>
<g>
</g>
</svg>
