<?xml version="1.0" encoding="iso-8859-1"?>
<!-- Generator: Adobe Illustrator 19.0.0, SVG Export Plug-In . SVG Version: 6.00 Build 0)  -->
<svg version="1.1" id="Layer_1" xmlns="http://www.w3.org/2000/svg" xmlns:xlink="http://www.w3.org/1999/xlink" x="0px" y="0px"
	 viewBox="0 0 511.997 511.997" style="enable-background:new 0 0 511.997 511.997;" xml:space="preserve">
<path style="fill:#FD3B6D;" d="M441.717,63.344l-0.023,0.058l26.683,73.44l-26.683,73.452c-12.165,4.314-26.196,7.944-42.745,10.53
	c2.957,37.607,2.47,71.179-1.461,101.968c-6.158,48.218-21.187,90.742-44.67,126.367c-9.59,14.53-25.141,22.775-41.283,23.622
	c-10.843,0.568-21.952-2.203-31.705-8.639c-24.295-16.015-31.009-48.694-14.994-72.977c4.673-7.085,9.324-14.658,13.777-22.741
	c0.023,0.012,47.731-46.374,47.731-46.374s-15.377-51.198-15.771-51.198c1.229-10.298,1.902-21.059,1.902-32.308
	c0-4.986-0.128-10.066-0.406-15.249c-35.45-4.395-69.37-16.305-111.372-25.385l0.058-0.29l-23.193-60.783l23.193-61.05
	c52.706-11.376,92.702-27.171,138.183-27.171C384.582,48.617,416.994,54.589,441.717,63.344z"/>
<path style="fill:#FCB5B5;" d="M453.291,110.751v52.184h-74.786c-14.414,0-26.092-11.678-26.092-26.092
	c0-14.403,11.678-26.092,26.092-26.092C378.505,110.751,453.291,110.751,453.291,110.751z"/>
<path style="fill:#FF738E;" d="M476.727,79.997c-9.927-6.042-21.28-11.782-35.01-16.653l-0.023,0.058v146.892
	c13.742-4.871,25.095-10.599,35.033-16.641c0,0,23.68-19.389,23.68-56.834S476.727,79.997,476.727,79.997z"/>
<path style="fill:#0E4675;" d="M200.754,75.787V197.62l-0.058,0.29c-29.513-6.378-63.015-11.365-103.858-11.365l-34.789-54.631
	l34.789-44.82C137.612,87.094,171.183,82.13,200.754,75.787z"/>
<path style="fill:#3D7A94;" d="M96.839,87.094v99.451c0,0-31.357,32.018-85.246,47.951V39.142
	C65.482,55.076,96.839,87.094,96.839,87.094z"/>
<path style="fill:#FCB5B5;" d="M342.788,307.067l0.615,0.139c-2.656,12.084-6.355,26.544-10.437,38.999
	c-3.989,12.118-17.058,22.23-29.814,22.23c-6.135,0-24.515,0-24.515,0c9.822-17.859,18.763-38.222,24.979-61.426l0.22,0.058
	l18.264-11.596L342.788,307.067z"/>
<path style="fill:#FF738E;" d="M326.205,270.851c13.29,0,22.184,10.483,19.9,23.031c-0.696,3.85-1.612,8.384-2.702,13.324
	l-0.615-0.139h-38.953l-0.22-0.058c3.038-11.365,5.427-23.402,6.958-36.158C310.967,270.851,316.104,270.851,326.205,270.851z"/>
<path style="fill:#000030;" d="M484.069,71.021c-0.416-0.341-0.856-0.653-1.316-0.932c-37.576-22.873-81.929-33.073-143.811-33.073
	c-32.843,0-63.099,7.901-95.13,16.265c-38.893,10.156-82.856,21.629-142.391,22.193c-10.12-9.153-40.43-33.816-86.535-47.45
	c-3.508-1.037-7.299-0.359-10.229,1.83S0,35.486,0,39.144v195.359c0,3.658,1.726,7.102,4.656,9.29
	c2.027,1.516,4.467,2.307,6.94,2.307c1.101,0,2.208-0.157,3.288-0.477c46.105-13.634,76.416-38.297,86.535-47.45
	c59.351,0.564,103.08,11.987,141.767,22.101c19.72,5.155,38.506,10.066,57.643,13.134c0.238,11.839-0.273,23.394-1.548,34.733
	c-0.209,0.871-0.332,1.774-0.332,2.709v0.001c-4.903,39.625-19.227,76.657-43.796,113.928
	c-19.509,29.594-11.303,69.543,18.291,89.052c10.586,6.979,22.719,10.62,35.281,10.62c1.134,0,2.272-0.03,3.412-0.089
	c20.337-1.063,39.162-11.837,50.359-28.821c24.467-37.117,40.11-81.285,46.494-131.281c3.675-28.787,4.423-59.572,2.261-93.812
	c27.249-5.266,50.188-13.915,71.5-26.888c0.459-0.279,0.899-0.591,1.316-0.932c1.14-0.934,27.93-23.353,27.93-65.802
	C512,94.374,485.21,71.955,484.069,71.021z M430.096,151.342h-51.594c-7.992,0-14.494-6.502-14.494-14.494
	s6.502-14.494,14.494-14.494h51.594V151.342z M23.193,55.294c32.354,12.322,54.135,29.841,62.054,36.854v89.351
	c-7.922,7.015-29.704,24.532-62.054,36.854V55.294z M312.251,318.669h16.527c-2.051,8.131-4.386,16.466-6.835,23.923
	c-2.493,7.591-11.275,14.251-18.794,14.251h-5.678C303.391,344.272,308.319,331.56,312.251,318.669z M334.695,291.804
	c-0.212,1.163-0.449,2.403-0.697,3.673h-15.783c0.909-4.321,1.706-8.666,2.403-13.031h5.592c3.017,0,5.521,1.01,7.051,2.842
	C334.668,286.975,335.163,289.227,334.695,291.804z M397.156,209.363c-5.99,0.935-10.249,6.325-9.774,12.368
	c2.905,36.901,2.447,69.478-1.397,99.589c-5.933,46.454-20.349,87.317-42.852,121.453c-7.157,10.858-19.197,17.745-32.205,18.426
	c-8.789,0.458-17.339-1.868-24.718-6.733c-18.917-12.47-24.162-38.006-11.692-56.922c3.83-5.811,7.422-11.646,10.803-17.507h17.827
	c17.621,0,35.174-12.986,40.83-30.208c5.779-17.6,10.962-39.739,13.534-53.872c1.69-9.289-0.659-18.594-6.445-25.528
	c-5.927-7.102-14.987-11.176-24.858-11.176h-2.905c0.874-11.999,0.994-24.177,0.34-36.567c-0.297-5.612-4.575-10.204-10.152-10.896
	c-21.055-2.614-42.129-8.123-64.439-13.956c-11.692-3.056-23.833-6.227-36.707-9.202v-46.665c0-6.405-5.192-11.596-11.596-11.596
	s-11.596,5.192-11.596,11.596v41.755c-23.734-4.528-50.14-7.94-80.713-8.638v-76.52c30.536-0.696,56.95-4.094,80.713-8.61v14.133
	c0,6.405,5.192,11.596,11.596,11.596s11.596-5.192,11.596-11.596V85.061c13.098-3.015,25.443-6.237,37.326-9.34
	c31.876-8.324,59.405-15.513,89.27-15.513c40.537,0,69.507,4.823,91.156,11.465V99.16h-51.594
	c-20.781,0-37.687,16.906-37.687,37.687s16.906,37.687,37.687,37.687h51.594v27.366
	C419.877,205.051,408.983,207.518,397.156,209.363z M469.857,184.251c-5.371,3.23-10.878,6.151-16.568,8.791V80.538
	c6.264,2.922,11.716,5.932,16.576,8.86c3.016,2.756,18.941,18.685,18.941,47.425C488.807,165.49,472.906,181.455,469.857,184.251z"
	/>
<g>
</g>
<g>
</g>
<g>
</g>
<g>
</g>
<g>
</g>
<g>
</g>
<g>
</g>
<g>
</g>
<g>
</g>
<g>
</g>
<g>
</g>
<g>
</g>
<g>
</g>
<g>
</g>
<g>
</g>
</svg>
