
<?xml version="1.0" encoding="iso-8859-1"?>
<!-- Generator: Adobe Illustrator 19.0.0, SVG Export Plug-In . SVG Version: 6.00 Build 0)  -->
<svg version="1.1" id="Layer_1" xmlns="http://www.w3.org/2000/svg" xmlns:xlink="http://www.w3.org/1999/xlink" x="0px" y="0px"
	 viewBox="0 0 512 512" style="enable-background:new 0 0 512 512;" xml:space="preserve">
<g>
	<path style="fill:#F1F2F2;" d="M199.223,341.222l-0.112,0.111L113.889,455C51.767,410.733,11.378,338.034,11.378,256
		S51.767,101.267,113.889,57l85.222,113.666l0.112,0.112C171.688,189.1,153.6,220.5,153.6,256S171.688,322.9,199.223,341.222z"/>
	<path style="fill:#F1F2F2;" d="M394.356,54.266c64.166,44.156,106.266,118,106.266,201.734c0,83.744-42.1,157.578-106.266,201.734
		l-1.823-2.623l-83.622-111.5C338.6,325.745,358.4,293.2,358.4,256s-19.8-69.745-49.489-87.611l83.622-111.5L394.356,54.266z"/>
</g>
<g>
	<path style="fill:#F4661E;" d="M394.356,54.266l-1.823,2.623l-83.622,111.5C293.433,158.956,275.345,153.6,256,153.6
		c-20.933,0-40.511,6.377-56.777,17.178l-0.111-0.111L113.889,57C153.933,28.223,202.977,11.378,256,11.378
		C307.422,11.378,354.989,27.2,394.356,54.266z"/>
	<path style="fill:#F4661E;" d="M392.533,455.111l1.823,2.623c-39.367,27.077-86.934,42.889-138.356,42.889
		c-53.023,0-102.067-16.845-142.111-45.623l85.222-113.666l0.112-0.111C215.489,352.033,235.067,358.4,256,358.4
		c19.345,0,37.433-5.344,52.911-14.789L392.533,455.111z"/>
</g>
<g>
	<path style="fill:#231F20;" d="M400.803,44.891C358.088,15.524,308.017,0,256,0c-53.835,0-105.273,16.516-148.713,47.734
		c-32.488,23.149-59.466,54.031-78.019,89.306C10.119,173.445,0,214.581,0,256s10.119,82.555,29.268,118.959
		c18.554,35.276,45.532,66.157,77.981,89.28C150.727,495.484,202.165,512,256,512c52.033,0,102.105-15.524,144.806-44.893
		C470.432,419.194,512,340.275,512,256S470.432,92.806,400.803,44.891z M378.053,57.234l-72.343,96.461
		c-15.391-7.521-32.379-11.472-49.71-11.472c-18.87,0-37.271,4.672-53.826,13.562l-72.038-96.082
		C167.6,35.5,210.868,22.756,256,22.756C299.447,22.756,341.397,34.648,378.053,57.234z M302.985,333.899
		c-14.07,8.586-30.317,13.123-46.985,13.123c-17.988,0-35.443-5.283-50.474-15.272c-25.391-16.895-40.548-45.213-40.548-75.75
		s15.157-58.854,40.538-75.743c15.054-9.995,32.512-15.279,50.484-15.279c16.651,0,32.9,4.539,47.045,13.16
		c27.538,16.573,43.977,45.68,43.977,77.863S330.582,317.29,302.985,333.899z M22.756,256c0-71.468,33.022-139.065,88.867-183.055
		l71.645,95.557c-25.89,21.476-41.045,53.375-41.045,87.497c0,34.12,15.153,66.018,41.046,87.496l-71.647,95.559
		C55.79,395.089,22.756,327.482,22.756,256z M130.137,452.296l72.036-96.079c16.539,8.888,34.941,13.56,53.827,13.56
		c17.358,0,34.359-3.956,49.712-11.465l72.341,96.456c-36.644,22.586-78.592,34.476-122.053,34.476
		C210.88,489.244,167.624,476.507,130.137,452.296z M396.827,441.873l-71.67-95.562c28.144-21.378,44.62-54.303,44.62-90.311
		c0-36.025-16.491-68.962-44.619-90.316l71.669-95.557c58.057,44.099,92.417,112.766,92.417,185.873
		S454.884,397.775,396.827,441.873z"/>
	<path style="fill:#231F20;" d="M110.151,178.432l-16.633-15.531c-23.62,25.296-36.628,58.36-36.628,93.099
		c0,23.993,6.315,47.601,18.26,68.271l19.702-11.387C84.903,295.671,79.644,276.001,79.644,256
		C79.644,227.047,90.477,199.499,110.151,178.432z"/>
	<path style="fill:#231F20;" d="M418.484,162.901l-16.633,15.531c19.671,21.067,30.505,48.615,30.505,77.568
		c0,19.891-5.26,39.571-15.213,56.914l19.738,11.327c11.926-20.785,18.231-44.381,18.231-68.241
		C455.111,221.261,442.103,188.198,418.484,162.901z"/>
</g>
<g>
</g>
<g>
</g>
<g>
</g>
<g>
</g>
<g>
</g>
<g>
</g>
<g>
</g>
<g>
</g>
<g>
</g>
<g>
</g>
<g>
</g>
<g>
</g>
<g>
</g>
<g>
</g>
<g>
</g>
</svg>
