<?xml version="1.0" standalone="no"?>
<!DOCTYPE svg PUBLIC "-//W3C//DTD SVG 20010904//EN"
 "http://www.w3.org/TR/2001/REC-SVG-20010904/DTD/svg10.dtd">
<svg version="1.0" xmlns="http://www.w3.org/2000/svg"
 width="798.000000pt" height="798.000000pt" viewBox="0 0 798.000000 798.000000"
 preserveAspectRatio="xMidYMid meet">
<metadata>
Created by potrace 1.11, written by Peter Selinger 2001-2013
</metadata>
<g transform="translate(0.000000,798.000000) scale(0.100000,-0.100000)"
fill="#000000" stroke="none">
<path d="M2416 5743 c-2 -2 -21 -6 -42 -9 -185 -22 -362 -160 -409 -319 -23
-75 -29 -210 -29 -635 0 -418 6 -545 30 -611 80 -229 321 -352 637 -327 262
20 436 135 501 329 22 68 29 211 29 614 -1 431 -2 490 -19 576 -37 195 -193
334 -419 375 -44 7 -272 13 -279 7z m172 -327 c8 -8 17 -49 21 -95 8 -99 6
-1052 -3 -1101 -9 -48 -41 -73 -85 -66 -19 3 -38 9 -43 14 -20 20 -24 135 -23
652 1 569 2 586 48 608 26 11 67 6 85 -12z"/>
<path d="M5569 5670 c-1 -48 -1 -1749 0 -1778 l1 -23 428 5 c235 2 441 6 457
9 107 16 172 50 216 110 53 74 64 141 63 402 0 256 -21 326 -116 395 -22 16
-63 36 -91 46 -29 9 -56 21 -62 28 -5 6 -6 8 -2 4 11 -8 118 34 157 62 56 40
81 120 81 255 -1 132 -17 226 -52 300 -42 89 -150 170 -254 190 -22 5 -47 10
-55 11 -47 10 -239 17 -488 18 l-282 1 -1 -35z m617 -305 c35 -23 45 -58 46
-157 0 -118 -10 -183 -32 -203 -10 -9 -41 -18 -73 -20 l-55 -4 -1 203 -2 204
46 -3 c25 -2 57 -11 71 -20z m-3 -687 c16 -6 33 -22 38 -36 13 -33 13 -361 0
-394 -12 -33 -52 -54 -109 -57 l-43 -3 2 244 c1 134 5 248 10 254 11 13 61 9
102 -8z"/>
<path d="M3860 5192 c-61 -20 -125 -58 -154 -91 -11 -11 -22 -21 -25 -21 -3 0
-6 24 -6 52 l0 53 -232 0 c-128 0 -234 -2 -234 -5 -1 -3 -2 -348 -3 -767 l-1
-763 102 -1 c57 0 159 0 228 -1 70 0 129 3 132 6 4 4 6 72 4 153 l-2 146 46
-41 c47 -41 112 -78 156 -88 13 -3 51 -7 84 -8 154 -7 270 64 308 188 17 58
17 973 0 1031 -16 53 -75 112 -141 143 -73 33 -186 39 -262 14z m-74 -236 c18
-14 19 -32 22 -427 3 -426 0 -467 -37 -470 -34 -3 -65 1 -74 10 -5 5 -13 29
-17 52 -11 58 -10 739 0 786 14 59 62 81 106 49z"/>
<path d="M7155 5194 c-133 -26 -256 -109 -300 -200 -43 -92 -47 -127 -50 -444
-1 -168 1 -334 6 -369 23 -163 114 -265 276 -306 75 -19 132 -25 257 -25 213
-1 346 50 443 168 46 56 68 119 79 217 7 73 7 590 0 625 -3 14 -8 39 -12 55
-24 117 -152 226 -319 271 -81 22 -289 26 -380 8z m236 -242 c0 -4 3 -16 5
-27 4 -17 8 -625 5 -761 -1 -49 -17 -73 -54 -79 -20 -4 -34 1 -52 19 l-25 25
1 393 c0 216 5 403 10 416 11 29 46 42 81 30 16 -6 28 -13 29 -16z"/>
<path d="M4789 5136 c-2 -2 -22 -6 -44 -10 -151 -21 -283 -111 -324 -220 -31
-83 -37 -160 -35 -446 2 -266 3 -282 25 -349 42 -126 166 -218 337 -247 12 -2
34 -6 50 -9 15 -3 77 -5 138 -5 197 0 304 33 401 123 90 83 114 143 119 310
l3 107 -27 1 c-27 0 -386 0 -409 -1 -8 0 -12 -42 -15 -140 -3 -155 -8 -166
-69 -176 -25 -4 -41 -1 -59 14 -24 19 -24 21 -24 198 l-1 179 302 5 302 5 -4
150 c-2 83 -5 159 -8 170 -3 11 -8 34 -12 50 -33 134 -162 240 -341 281 -33 7
-298 16 -305 10z m179 -240 c13 -13 17 -37 17 -118 l0 -102 -65 -1 -65 0 1 90
c1 107 8 142 32 148 31 7 63 0 80 -17z"/>
<path d="M1037 4433 c-101 -144 -257 -314 -664 -722 -178 -179 -322 -326 -320
-327 3 -3 153 -10 407 -19 80 -3 195 -8 255 -10 61 -3 171 -7 245 -10 185 -6
411 -14 555 -20 66 -3 170 -7 230 -10 61 -2 184 -7 275 -10 91 -3 206 -8 255
-10 50 -2 171 -6 270 -10 99 -3 216 -8 260 -10 364 -17 670 -20 2035 -19 1310
0 2117 5 2937 17 137 2 142 3 146 24 3 17 -2 23 -22 28 -14 4 -287 6 -606 5
-1616 -6 -2193 -3 -2625 15 -178 7 -357 15 -420 19 -334 23 -433 30 -540 41
-25 3 -70 7 -100 10 -62 6 -96 10 -225 25 -49 6 -99 13 -110 14 -11 2 -45 8
-75 12 -30 4 -57 9 -60 9 -3 1 -27 5 -55 9 -197 30 -485 103 -636 162 -123 48
-399 189 -639 327 -310 177 -586 378 -687 500 l-31 37 -55 -77z m231 -446
c201 -164 516 -356 742 -453 36 -15 68 -30 72 -33 4 -4 -274 -6 -617 -6 -344
0 -625 3 -625 6 0 5 257 422 316 512 13 20 27 37 30 37 3 0 40 -28 82 -63z"/>
<path d="M368 3124 c-139 -48 -260 -185 -317 -359 -25 -76 -23 -196 4 -249 32
-63 85 -99 148 -101 174 -5 343 179 372 405 7 49 6 150 0 183 -8 38 -32 75
-56 82 -45 14 -120 -36 -173 -115 -21 -31 -21 -76 0 -84 24 -9 34 -7 34 7 1
16 50 108 75 139 50 60 86 30 88 -74 3 -134 -32 -258 -106 -380 -56 -92 -150
-147 -225 -132 -87 18 -121 157 -77 312 51 175 215 362 318 362 11 0 18 3 14
6 -11 11 -65 10 -99 -2z"/>
<path d="M6358 3113 c-31 -34 -83 -131 -127 -238 -93 -225 -106 -248 -178
-320 -49 -49 -77 -60 -99 -38 -31 31 11 146 77 213 39 39 97 64 126 53 11 -4
14 -2 11 8 -6 19 -44 23 -89 10 -54 -16 -116 -77 -188 -183 -68 -101 -104
-133 -134 -117 -22 13 -22 37 3 100 33 84 10 149 -54 149 -39 0 -79 -25 -140
-86 -27 -27 -46 -41 -42 -31 15 46 18 94 5 99 -34 13 -54 -9 -67 -71 -11 -52
-21 -70 -60 -111 -50 -51 -93 -70 -116 -51 -20 16 -13 56 24 142 24 56 28 74
18 81 -25 15 -34 7 -82 -77 -59 -100 -97 -145 -126 -145 -49 0 -43 110 11 207
16 29 16 33 2 45 -13 11 -20 8 -44 -22 -16 -19 -29 -40 -29 -48 0 -33 -35 -85
-66 -98 -31 -13 -84 -19 -84 -10 0 2 12 27 26 55 31 60 41 129 22 153 -21 26
-73 30 -103 7 -48 -38 -53 -119 -13 -190 l21 -38 -29 -25 c-61 -54 -109 -42
-100 25 6 46 31 107 53 131 15 17 14 18 -9 18 -32 0 -62 -29 -89 -89 -24 -52
-61 -81 -103 -81 l-25 0 14 41 c38 105 2 181 -73 155 -64 -22 -65 -136 -1
-190 l23 -19 -39 -34 c-98 -85 -149 2 -100 171 11 36 29 63 69 101 125 122
207 308 156 359 -53 53 -275 -337 -305 -537 -14 -94 16 -156 76 -158 68 -3 79
2 126 47 37 35 57 46 87 49 22 3 44 9 50 15 16 16 23 12 29 -17 10 -42 20 -53
57 -58 41 -5 88 16 126 55 23 23 38 30 72 30 24 0 56 7 72 15 29 15 30 15 31
-10 3 -46 14 -67 46 -84 33 -17 85 8 117 55 l26 39 0 -31 c0 -39 18 -62 54
-68 31 -6 89 15 120 42 18 16 19 16 13 0 -6 -16 10 -28 37 -28 7 0 31 28 54
63 42 64 117 146 136 148 50 6 58 5 67 -12 10 -20 8 -36 -12 -110 -11 -41 -10
-50 4 -72 15 -24 18 -24 96 -18 8 0 30 18 50 39 l36 38 2 -28 c2 -54 60 -80
116 -51 31 16 90 72 124 118 l22 30 -8 -30 c-13 -48 -5 -97 18 -116 28 -23 81
-11 132 30 32 26 37 28 34 12 -2 -11 5 -31 16 -46 35 -44 109 -28 162 35 23
27 45 42 34 23 -10 -16 14 -54 39 -63 75 -29 162 42 233 190 l48 100 27 -25
c31 -29 30 -54 -7 -135 -24 -54 -24 -100 -1 -117 40 -29 128 -7 175 43 28 30
34 30 36 2 6 -78 127 -79 198 -2 l22 24 6 -30 c9 -44 58 -70 122 -66 58 4 99
22 148 66 l34 29 16 -38 c24 -54 57 -68 146 -62 13 0 38 16 55 35 18 18 43 37
57 41 38 12 80 45 90 73 14 37 5 37 -22 -2 -13 -19 -38 -41 -56 -50 l-33 -16
0 45 c0 24 -11 77 -23 118 -13 41 -23 90 -21 110 1 30 -1 37 -16 37 -23 0 -29
-9 -34 -50 -5 -40 -59 -120 -103 -150 -19 -13 -45 -38 -56 -56 -80 -116 -239
-145 -247 -44 -4 41 -1 46 25 48 14 1 49 12 78 24 89 38 138 95 131 152 -4 34
-18 46 -59 46 -75 -1 -167 -74 -214 -170 -51 -106 -87 -140 -145 -140 -59 0
-55 70 10 182 24 43 44 84 44 93 0 20 -30 19 -57 -3 -23 -18 -67 -99 -78 -144
-8 -33 -94 -115 -129 -124 -33 -8 -56 1 -56 21 0 9 10 37 21 63 40 87 30 136
-36 179 -31 20 -33 26 -28 58 5 30 3 34 -11 29 -21 -8 -49 -61 -36 -69 21 -13
-60 -181 -115 -238 -45 -46 -81 -62 -101 -46 -20 17 -17 44 11 97 29 55 31 68
9 76 -10 4 -24 -4 -38 -21 -109 -141 -154 -180 -187 -162 -34 18 -18 89 42
177 43 65 93 102 139 102 29 0 40 -15 40 -56 0 -26 7 -29 29 -15 20 13 17 60
-5 76 -78 57 -215 -10 -290 -143 -49 -85 -113 -139 -150 -125 -14 5 -16 16
-11 67 7 85 25 133 129 349 80 165 89 190 77 203 -13 12 -18 11 -41 -13z
m-1797 -157 c-34 -69 -97 -159 -123 -175 -16 -10 -16 -8 -8 14 28 74 105 208
145 251 24 27 15 -31 -14 -90z m2991 -215 c-18 -44 -72 -90 -145 -123 l-38
-18 7 23 c17 58 79 131 129 153 26 11 32 11 42 -3 6 -8 9 -23 5 -32z m-2623
30 c28 -18 -10 -156 -45 -168 -14 -5 -35 75 -29 107 6 31 33 70 48 70 6 0 18
-4 26 -9z m2855 -78 c12 -54 19 -166 10 -161 -5 3 -26 13 -46 23 -20 9 -44 28
-53 41 -15 23 -14 26 27 77 24 30 46 52 49 51 4 -2 9 -16 13 -31z m-3238 -12
c10 -19 3 -106 -10 -118 -10 -11 -37 13 -45 41 -20 76 24 139 55 77z m3162
-120 c20 -16 47 -32 60 -36 12 -3 22 -11 22 -16 0 -15 -60 -37 -82 -31 -24 6
-57 57 -53 80 2 10 4 20 4 25 2 12 11 8 49 -22z"/>
<path d="M3553 3115 c-35 -24 -90 -106 -143 -213 -28 -55 -50 -105 -50 -111 0
-6 -15 -14 -32 -19 -36 -9 -174 -9 -183 0 -3 3 21 51 54 107 58 97 71 133 53
145 -25 15 -87 -64 -140 -176 -27 -58 -34 -66 -54 -61 -22 4 -22 4 -5 -10 18
-15 17 -18 -7 -99 -37 -121 -38 -176 -4 -208 44 -40 132 -20 202 48 24 23 46
42 49 42 3 0 5 -13 5 -29 -1 -17 7 -42 16 -56 l18 -27 24 23 c13 12 24 26 24
30 0 18 63 140 86 168 29 35 68 41 82 14 10 -20 10 -28 -8 -93 -24 -89 -9
-120 57 -120 34 0 113 42 113 60 0 21 16 9 27 -20 8 -21 24 -36 49 -46 91 -38
215 20 284 134 23 38 10 43 -15 6 -91 -139 -265 -173 -265 -52 0 27 4 38 13
35 21 -7 117 31 159 65 62 48 84 124 44 150 -26 17 -82 7 -134 -24 -57 -35
-128 -127 -139 -180 -6 -28 -85 -108 -107 -108 -41 1 -47 34 -20 106 29 79 18
152 -24 156 -9 0 -24 2 -32 3 -22 2 -62 -19 -92 -50 -22 -22 -63 -95 -92 -165
-12 -31 4 117 18 166 13 40 26 59 65 90 81 64 161 201 161 274 0 59 -17 73
-57 45z m23 -87 c-8 -42 -86 -166 -126 -202 -31 -27 -32 -27 -25 -4 21 68 129
238 152 238 3 0 3 -14 -1 -32z m410 -271 c-10 -49 -67 -102 -148 -139 -44 -20
-46 -13 -17 39 43 79 128 145 156 122 6 -6 10 -15 9 -22z m-650 -24 c-3 -6
-10 -31 -16 -55 -17 -61 -37 -97 -78 -136 -33 -33 -87 -62 -115 -62 -48 0 -64
58 -40 153 29 115 25 112 147 112 78 0 105 -3 102 -12z"/>
<path d="M1890 2930 c-25 -25 -25 -37 -2 -49 24 -13 78 11 84 37 3 12 3 23 0
26 -13 13 -64 4 -82 -14z"/>
<path d="M7243 2935 c-22 -15 -22 -42 0 -57 14 -8 59 9 74 28 29 39 -29 61
-74 29z"/>
<path d="M646 2822 c-2 -4 -12 -55 -20 -112 -20 -133 -47 -246 -81 -335 -15
-38 -29 -79 -31 -89 -4 -20 12 -46 27 -46 14 0 41 61 70 160 15 52 34 116 42
143 8 26 13 47 11 47 -6 0 32 71 48 90 30 36 86 70 117 70 25 0 34 -5 42 -27
34 -90 -54 -216 -160 -230 -58 -8 -51 -23 12 -23 80 0 150 48 193 132 36 71
30 141 -15 175 -9 7 -34 12 -56 13 -52 0 -96 -28 -138 -90 -19 -27 -20 -18 -8
47 6 28 5 48 -3 57 -14 17 -44 28 -50 18z"/>
<path d="M1110 2783 c-113 -68 -182 -205 -141 -281 19 -36 68 -55 122 -49 58
7 97 26 151 75 l41 37 -16 -31 c-12 -23 -13 -34 -4 -43 23 -23 45 -9 90 57 78
114 134 161 178 147 31 -10 33 -32 10 -114 -7 -24 -10 -54 -7 -67 15 -57 93
-55 158 4 23 20 39 29 35 20 -3 -10 3 -27 14 -42 28 -36 92 -36 143 -1 42 29
50 31 43 11 -6 -14 12 -26 37 -26 7 0 32 28 54 63 68 102 114 146 160 152 52
6 62 -30 32 -121 -32 -97 60 -137 144 -63 l33 28 21 -28 c20 -27 31 -30 90
-23 7 1 36 23 64 50 28 26 49 40 46 32 -3 -8 -13 -39 -22 -68 -16 -48 -22 -54
-72 -79 -109 -53 -160 -126 -118 -167 47 -47 134 15 194 138 21 41 42 69 63
81 67 39 159 136 143 152 -3 4 -7 4 -9 2 -37 -54 -67 -86 -100 -110 -50 -36
-62 -37 -43 -1 12 24 45 124 47 144 0 4 4 21 9 38 8 27 6 30 -14 30 -29 0 -44
-17 -52 -61 -8 -41 -112 -149 -144 -149 -35 0 -46 42 -25 96 35 91 115 155
188 148 38 -3 54 17 21 30 -82 31 -237 -65 -272 -169 -20 -58 -36 -82 -76
-113 -22 -17 -32 -19 -47 -11 -24 13 -24 36 2 101 13 33 18 64 15 82 -21 104
-133 81 -235 -49 -23 -29 -24 -29 -17 -5 19 76 19 97 -2 103 -30 7 -49 -12
-57 -58 -15 -88 -94 -175 -159 -175 -59 0 -55 70 10 182 48 84 54 108 26 108
-37 0 -72 -46 -115 -150 -30 -70 -74 -126 -110 -139 -52 -19 -59 10 -26 104
42 121 -27 186 -127 119 -39 -27 -54 -41 -100 -99 l-25 -30 12 30 c19 49 22
102 7 107 -30 12 -55 -10 -62 -53 -11 -71 -101 -171 -171 -191 -74 -21 -118
-4 -128 48 -6 32 11 52 48 57 65 10 155 68 179 116 16 31 13 81 -6 92 -26 17
-83 9 -128 -18z m106 -27 c-7 -46 -72 -105 -158 -143 -34 -15 -35 -5 -5 45 35
61 49 77 91 105 29 20 43 24 56 17 10 -5 17 -16 16 -24z m1309 -393 c-51 -86
-107 -117 -113 -62 -2 17 6 33 27 51 30 28 103 69 110 63 2 -2 -9 -26 -24 -52z"/>
</g>
</svg>
